ISO-10303-21;
HEADER;
FILE_DESCRIPTION (( 'STEP AP214' ),
    '1' );
FILE_NAME ('37电机支架.STEP',
    '2023-01-28T01:15:18',
    ( '' ),
    ( '' ),
    'SwSTEP 2.0',
    'SolidWorks 2022',
    '' );
FILE_SCHEMA (( 'AUTOMOTIVE_DESIGN' ));
ENDSEC;

DATA;
#1 = DIRECTION ( 'NONE',  ( 0.000000000000000000, 0.000000000000000000, -1.000000000000000000 ) ) ;
#2 = DIRECTION ( 'NONE',  ( 0.000000000000000000, 1.000000000000000000, 0.000000000000000000 ) ) ;
#3 = EDGE_LOOP ( 'NONE', ( #571, #181, #50, #1164, #536, #522, #1055, #979 ) ) ;
#4 = DIRECTION ( 'NONE',  ( -3.097720492815729631E-16, -1.000000000000000000, 0.000000000000000000 ) ) ;
#5 = DIRECTION ( 'NONE',  ( -0.000000000000000000, -1.000000000000000000, -0.000000000000000000 ) ) ;
#6 = CIRCLE ( 'NONE', #301, 0.5000000000000004441 ) ;
#7 = CARTESIAN_POINT ( 'NONE',  ( 13.89999999999999680, 26.50000000000000000, -19.50000000000000355 ) ) ;
#8 = EDGE_LOOP ( 'NONE', ( #601, #165, #378, #813, #1085, #23, #1045, #1247 ) ) ;
#9 = DIRECTION ( 'NONE',  ( 0.000000000000000000, 1.000000000000000000, 0.000000000000000000 ) ) ;
#10 = EDGE_CURVE ( 'NONE', #901, #46, #248, .T. ) ;
#11 = FACE_OUTER_BOUND ( 'NONE', #487, .T. ) ;
#12 = EDGE_CURVE ( 'NONE', #30, #570, #1135, .T. ) ;
#13 = VECTOR ( 'NONE', #345, 1000.000000000000000 ) ;
#14 = DIRECTION ( 'NONE',  ( -1.000000000000000000, 0.000000000000000000, 0.000000000000000000 ) ) ;
#15 = DIRECTION ( 'NONE',  ( -1.000000000000000000, 0.000000000000000000, 0.000000000000000000 ) ) ;
#16 = EDGE_LOOP ( 'NONE', ( #81, #589, #786, #976 ) ) ;
#17 = DIRECTION ( 'NONE',  ( -0.000000000000000000, -1.000000000000000000, -0.000000000000000000 ) ) ;
#18 = AXIS2_PLACEMENT_3D ( 'NONE', #167, #1063, #276 ) ;
#19 =( LENGTH_UNIT ( ) NAMED_UNIT ( * ) SI_UNIT ( .MILLI., .METRE. ) );
#20 = AXIS2_PLACEMENT_3D ( 'NONE', #822, #729, #1215 ) ;
#21 = CYLINDRICAL_SURFACE ( 'NONE', #456, 1.500000000000001332 ) ;
#22 = DIRECTION ( 'NONE',  ( 0.000000000000000000, 1.000000000000000000, 0.000000000000000000 ) ) ;
#23 = ORIENTED_EDGE ( 'NONE', *, *, #1282, .T. ) ;
#24 = CARTESIAN_POINT ( 'NONE',  ( -15.00000000000000000, 1.500000000000000000, 12.00000000000000000 ) ) ;
#25 = APPLICATION_PROTOCOL_DEFINITION ( 'draft international standard', 'automotive_design', 1998, #669 ) ;
#26 = CIRCLE ( 'NONE', #754, 20.00000000000000711 ) ;
#27 = AXIS2_PLACEMENT_3D ( 'NONE', #33, #728, #1227 ) ;
#28 = CARTESIAN_POINT ( 'NONE',  ( -20.00000000000000711, 0.000000000000000000, -21.00000000000000355 ) ) ;
#29 = DIRECTION ( 'NONE',  ( -0.000000000000000000, -0.000000000000000000, 1.000000000000000000 ) ) ;
#30 = VERTEX_POINT ( 'NONE', #639 ) ;
#31 = VECTOR ( 'NONE', #995, 1000.000000000000000 ) ;
#32 = EDGE_CURVE ( 'NONE', #36, #693, #146, .T. ) ;
#33 = CARTESIAN_POINT ( 'NONE',  ( 17.00000000000000000, 1.500000000000000000, 17.00000000000000000 ) ) ;
#34 = CARTESIAN_POINT ( 'NONE',  ( 9.350000000000001421, 13.07660624134118876, -19.50000000000000355 ) ) ;
#35 = DIRECTION ( 'NONE',  ( 0.000000000000000000, 0.000000000000000000, 1.000000000000000000 ) ) ;
#36 = VERTEX_POINT ( 'NONE', #1241 ) ;
#37 = CARTESIAN_POINT ( 'NONE',  ( 20.00000000000000711, 0.000000000000000000, -19.50000000000000355 ) ) ;
#38 = CARTESIAN_POINT ( 'NONE',  ( -15.50000000000000000, 26.49999999999999645, -19.50000000000000355 ) ) ;
#39 = ADVANCED_FACE ( 'NONE', ( #1141 ), #154, .F. ) ;
#40 = LINE ( 'NONE', #342, #1058 ) ;
#41 = VERTEX_POINT ( 'NONE', #705 ) ;
#42 = CARTESIAN_POINT ( 'NONE',  ( -15.00000000000000000, 0.000000000000000000, -13.50000000000000178 ) ) ;
#43 = ADVANCED_FACE ( 'NONE', ( #225 ), #496, .F. ) ;
#44 = ORIENTED_EDGE ( 'NONE', *, *, #1229, .F. ) ;
#45 = CARTESIAN_POINT ( 'NONE',  ( 0.000000000000000000, 1.000000000000000888, -21.00000000000000355 ) ) ;
#46 = VERTEX_POINT ( 'NONE', #725 ) ;
#47 = DIRECTION ( 'NONE',  ( 0.000000000000000000, 0.000000000000000000, -1.000000000000000000 ) ) ;
#48 = CARTESIAN_POINT ( 'NONE',  ( 15.00000000000000000, 1.500000000000000000, 10.49999999999999822 ) ) ;
#49 = ORIENTED_EDGE ( 'NONE', *, *, #326, .T. ) ;
#50 = ORIENTED_EDGE ( 'NONE', *, *, #102, .T. ) ;
#51 = EDGE_CURVE ( 'NONE', #857, #95, #621, .T. ) ;
#52 = EDGE_CURVE ( 'NONE', #1078, #1185, #114, .T. ) ;
#53 = CYLINDRICAL_SURFACE ( 'NONE', #1285, 2.999999999999999112 ) ;
#54 = ORIENTED_EDGE ( 'NONE', *, *, #500, .F. ) ;
#55 = AXIS2_PLACEMENT_3D ( 'NONE', #608, #1006, #1211 ) ;
#56 = CYLINDRICAL_SURFACE ( 'NONE', #820, 1.500000000000001332 ) ;
#57 = FACE_BOUND ( 'NONE', #88, .T. ) ;
#58 = DIRECTION ( 'NONE',  ( -0.000000000000000000, -0.000000000000000000, 1.000000000000000000 ) ) ;
#59 = ORIENTED_EDGE ( 'NONE', *, *, #1236, .F. ) ;
#60 = ORIENTED_EDGE ( 'NONE', *, *, #1166, .F. ) ;
#61 = CIRCLE ( 'NONE', #495, 1.600000000000000755 ) ;
#62 = VECTOR ( 'NONE', #580, 1000.000000000000000 ) ;
#63 = VERTEX_POINT ( 'NONE', #816 ) ;
#64 = DIRECTION ( 'NONE',  ( 0.000000000000000000, 0.000000000000000000, 1.000000000000000000 ) ) ;
#65 = CARTESIAN_POINT ( 'NONE',  ( 17.10000000000000142, 26.50000000000000000, -19.50000000000000355 ) ) ;
#66 = CYLINDRICAL_SURFACE ( 'NONE', #959, 1.600000000000001643 ) ;
#67 = ORIENTED_EDGE ( 'NONE', *, *, #1236, .T. ) ;
#68 = ORIENTED_EDGE ( 'NONE', *, *, #499, .T. ) ;
#69 = DIRECTION ( 'NONE',  ( -0.000000000000000000, -0.000000000000000000, 1.000000000000000000 ) ) ;
#70 = ADVANCED_FACE ( 'NONE', ( #303 ), #513, .F. ) ;
#71 = EDGE_CURVE ( 'NONE', #1171, #46, #996, .T. ) ;
#72 = DIRECTION ( 'NONE',  ( -0.000000000000000000, -0.000000000000000000, 1.000000000000000000 ) ) ;
#73 = CIRCLE ( 'NONE', #467, 1.600000000000000755 ) ;
#74 = EDGE_LOOP ( 'NONE', ( #49, #661 ) ) ;
#75 = ORIENTED_EDGE ( 'NONE', *, *, #1003, .F. ) ;
#76 = DIRECTION ( 'NONE',  ( -0.000000000000000000, 1.000000000000000000, -0.000000000000000000 ) ) ;
#77 = CIRCLE ( 'NONE', #807, 1.500000000000001332 ) ;
#78 = CARTESIAN_POINT ( 'NONE',  ( -15.00000000000000000, 1.500000000000000000, -12.00000000000000000 ) ) ;
#79 = ORIENTED_EDGE ( 'NONE', *, *, #982, .T. ) ;
#80 = CARTESIAN_POINT ( 'NONE',  ( 0.000000000000000000, 2.000000000000000000, -19.00000000000000355 ) ) ;
#81 = ORIENTED_EDGE ( 'NONE', *, *, #939, .F. ) ;
#82 = AXIS2_PLACEMENT_3D ( 'NONE', #509, #295, #1290 ) ;
#83 = AXIS2_PLACEMENT_3D ( 'NONE', #721, #319, #525 ) ;
#84 = DIRECTION ( 'NONE',  ( -1.000000000000000000, 0.000000000000000000, 0.000000000000000000 ) ) ;
#85 = VERTEX_POINT ( 'NONE', #503 ) ;
#86 = ADVANCED_FACE ( 'NONE', ( #1020 ), #128, .F. ) ;
#87 = DIRECTION ( 'NONE',  ( -1.000000000000000000, 0.000000000000000000, 0.000000000000000000 ) ) ;
#88 = EDGE_LOOP ( 'NONE', ( #44, #635 ) ) ;
#89 = VERTEX_POINT ( 'NONE', #7 ) ;
#90 = CIRCLE ( 'NONE', #299, 1.600000000000002531 ) ;
#91 = CIRCLE ( 'NONE', #363, 1.600000000000000755 ) ;
#92 = DIRECTION ( 'NONE',  ( -1.000000000000000000, 0.000000000000000000, 0.000000000000000000 ) ) ;
#93 = EDGE_LOOP ( 'NONE', ( #197, #215 ) ) ;
#94 = DIRECTION ( 'NONE',  ( 1.000000000000000000, 0.000000000000000000, 0.000000000000000000 ) ) ;
#95 = VERTEX_POINT ( 'NONE', #407 ) ;
#96 = CARTESIAN_POINT ( 'NONE',  ( -17.00000000000000000, 0.000000000000000000, 16.99999999999999645 ) ) ;
#97 = ORIENTED_EDGE ( 'NONE', *, *, #830, .T. ) ;
#98 = VECTOR ( 'NONE', #732, 1000.000000000000000 ) ;
#99 = FACE_OUTER_BOUND ( 'NONE', #530, .T. ) ;
#100 = DIRECTION ( 'NONE',  ( 0.000000000000000000, 1.000000000000000000, 0.000000000000000000 ) ) ;
#101 = ORIENTED_EDGE ( 'NONE', *, *, #236, .T. ) ;
#102 = EDGE_CURVE ( 'NONE', #1060, #1095, #521, .T. ) ;
#103 = VECTOR ( 'NONE', #694, 1000.000000000000000 ) ;
#104 = DIRECTION ( 'NONE',  ( -0.000000000000000000, -1.000000000000000000, -0.000000000000000000 ) ) ;
#105 = CARTESIAN_POINT ( 'NONE',  ( -15.00000000000000000, 1.500000000000000000, 10.49999999999999822 ) ) ;
#106 = DIRECTION ( 'NONE',  ( 0.000000000000000000, -1.000000000000000000, 0.000000000000000000 ) ) ;
#107 = EDGE_LOOP ( 'NONE', ( #1021, #449, #882, #284 ) ) ;
#108 = EDGE_CURVE ( 'NONE', #657, #278, #410, .T. ) ;
#109 = CARTESIAN_POINT ( 'NONE',  ( 17.00000000000000355, 1.500000000000000000, 19.99999999999999645 ) ) ;
#110 = EDGE_CURVE ( 'NONE', #267, #806, #825, .T. ) ;
#111 = UNCERTAINTY_MEASURE_WITH_UNIT (LENGTH_MEASURE( 1.000000000000000082E-05 ), #433, 'distance_accuracy_value', 'NONE');
#112 = SURFACE_SIDE_STYLE ('',( #809 ) ) ;
#113 = DIRECTION ( 'NONE',  ( 0.000000000000000000, 0.000000000000000000, -1.000000000000000000 ) ) ;
#114 = LINE ( 'NONE', #119, #579 ) ;
#115 = VERTEX_POINT ( 'NONE', #1012 ) ;
#116 = LINE ( 'NONE', #1101, #250 ) ;
#117 = FILL_AREA_STYLE_COLOUR ( '', #722 ) ;
#118 = DIRECTION ( 'NONE',  ( -1.000000000000000000, 0.000000000000000000, 0.000000000000000000 ) ) ;
#119 = CARTESIAN_POINT ( 'NONE',  ( -17.10000000000000142, 26.49999999999999645, -21.00000000000000355 ) ) ;
#120 = ORIENTED_EDGE ( 'NONE', *, *, #289, .F. ) ;
#121 = ORIENTED_EDGE ( 'NONE', *, *, #765, .F. ) ;
#122 = CARTESIAN_POINT ( 'NONE',  ( -6.499999999999995559, 33.49999999999999289, -21.00000000000000355 ) ) ;
#123 = AXIS2_PLACEMENT_3D ( 'NONE', #751, #568, #759 ) ;
#124 = DIRECTION ( 'NONE',  ( 1.000000000000000000, 0.000000000000000000, 0.000000000000000000 ) ) ;
#125 = EDGE_CURVE ( 'NONE', #915, #1190, #309, .T. ) ;
#126 = FACE_BOUND ( 'NONE', #1089, .T. ) ;
#127 = EDGE_CURVE ( 'NONE', #294, #756, #141, .T. ) ;
#128 = CYLINDRICAL_SURFACE ( 'NONE', #187, 1.500000000000001332 ) ;
#129 = ORIENTED_EDGE ( 'NONE', *, *, #475, .T. ) ;
#130 = ORIENTED_EDGE ( 'NONE', *, *, #174, .T. ) ;
#131 = CYLINDRICAL_SURFACE ( 'NONE', #27, 2.999999999999999112 ) ;
#132 = CYLINDRICAL_SURFACE ( 'NONE', #980, 1.599999999999998979 ) ;
#133 = FACE_BOUND ( 'NONE', #737, .T. ) ;
#134 = DIRECTION ( 'NONE',  ( 0.000000000000000000, 1.000000000000000000, 0.000000000000000000 ) ) ;
#135 = VECTOR ( 'NONE', #784, 1000.000000000000000 ) ;
#136 = ORIENTED_EDGE ( 'NONE', *, *, #971, .T. ) ;
#137 = EDGE_CURVE ( 'NONE', #885, #266, #412, .T. ) ;
#138 = EDGE_CURVE ( 'NONE', #718, #1284, #1079, .T. ) ;
#139 = DIRECTION ( 'NONE',  ( 0.000000000000000000, 0.000000000000000000, -1.000000000000000000 ) ) ;
#140 = DIRECTION ( 'NONE',  ( -1.000000000000000000, 0.000000000000000000, 0.000000000000000000 ) ) ;
#141 = CIRCLE ( 'NONE', #685, 1.599999999999998979 ) ;
#142 = FACE_BOUND ( 'NONE', #581, .T. ) ;
#143 = ORIENTED_EDGE ( 'NONE', *, *, #230, .T. ) ;
#144 = CARTESIAN_POINT ( 'NONE',  ( 6.500000000000000888, 33.49999999999998579, -21.00000000000000355 ) ) ;
#145 = CARTESIAN_POINT ( 'NONE',  ( -7.749999999999996447, 13.07660624134118343, -21.00000000000000355 ) ) ;
#146 = LINE ( 'NONE', #940, #306 ) ;
#147 = CIRCLE ( 'NONE', #1040, 1.599999999999998979 ) ;
#148 = CIRCLE ( 'NONE', #1043, 6.499999999999998224 ) ;
#149 = LINE ( 'NONE', #451, #98 ) ;
#150 = ORIENTED_EDGE ( 'NONE', *, *, #770, .T. ) ;
#151 = CARTESIAN_POINT ( 'NONE',  ( 9.350000000000001421, 13.07660624134118876, -21.00000000000000355 ) ) ;
#152 = CARTESIAN_POINT ( 'NONE',  ( -20.00000000000000711, 0.000000000000000000, -20.00000000000000355 ) ) ;
#153 = EDGE_CURVE ( 'NONE', #775, #421, #77, .T. ) ;
#154 = CYLINDRICAL_SURFACE ( 'NONE', #510, 1.600000000000000755 ) ;
#155 = ADVANCED_FACE ( 'NONE', ( #812 ), #400, .F. ) ;
#156 = ORIENTED_EDGE ( 'NONE', *, *, #765, .T. ) ;
#157 = CIRCLE ( 'NONE', #978, 1.500000000000001332 ) ;
#158 = DIRECTION ( 'NONE',  ( 0.000000000000000000, 1.000000000000000000, 0.000000000000000000 ) ) ;
#159 = EDGE_LOOP ( 'NONE', ( #189, #120 ) ) ;
#160 = DIRECTION ( 'NONE',  ( -1.000000000000000000, 0.000000000000000000, 0.000000000000000000 ) ) ;
#161 = DIRECTION ( 'NONE',  ( -0.000000000000000000, -0.000000000000000000, 1.000000000000000000 ) ) ;
#162 = DIRECTION ( 'NONE',  ( 0.000000000000000000, 0.000000000000000000, 1.000000000000000000 ) ) ;
#163 = ORIENTED_EDGE ( 'NONE', *, *, #1076, .T. ) ;
#164 = ORIENTED_EDGE ( 'NONE', *, *, #964, .T. ) ;
#165 = ORIENTED_EDGE ( 'NONE', *, *, #288, .T. ) ;
#166 = AXIS2_PLACEMENT_3D ( 'NONE', #849, #158, #1231 ) ;
#167 = CARTESIAN_POINT ( 'NONE',  ( 20.00000000000000711, 1.500000000000000000, -19.50000000000000355 ) ) ;
#168 = LINE ( 'NONE', #562, #1195 ) ;
#169 = CARTESIAN_POINT ( 'NONE',  ( -9.349999999999999645, 13.07660624134118343, -21.00000000000000355 ) ) ;
#170 = ORIENTED_EDGE ( 'NONE', *, *, #764, .F. ) ;
#171 = AXIS2_PLACEMENT_3D ( 'NONE', #824, #321, #607 ) ;
#172 = ORIENTED_EDGE ( 'NONE', *, *, #779, .F. ) ;
#173 = CARTESIAN_POINT ( 'NONE',  ( 20.00000000000000711, 26.50000000000000000, -21.00000000000000355 ) ) ;
#174 = EDGE_CURVE ( 'NONE', #1278, #115, #1011, .T. ) ;
#175 = LINE ( 'NONE', #271, #1083 ) ;
#176 = VERTEX_POINT ( 'NONE', #337 ) ;
#177 = ORIENTED_EDGE ( 'NONE', *, *, #559, .T. ) ;
#178 = FACE_BOUND ( 'NONE', #585, .T. ) ;
#179 = ADVANCED_FACE ( 'NONE', ( #1039 ), #53, .T. ) ;
#180 = CARTESIAN_POINT ( 'NONE',  ( 17.10000000000000142, 26.50000000000000000, -21.00000000000000355 ) ) ;
#181 = ORIENTED_EDGE ( 'NONE', *, *, #655, .T. ) ;
#182 = CARTESIAN_POINT ( 'NONE',  ( 15.50000000000000000, 26.50000000000000000, -19.50000000000000355 ) ) ;
#183 = ORIENTED_EDGE ( 'NONE', *, *, #981, .F. ) ;
#184 = CARTESIAN_POINT ( 'NONE',  ( 20.00000000000000711, 1.500000000000000000, -19.50000000000000355 ) ) ;
#185 =( GEOMETRIC_REPRESENTATION_CONTEXT ( 3 ) GLOBAL_UNCERTAINTY_ASSIGNED_CONTEXT ( ( #398 ) ) GLOBAL_UNIT_ASSIGNED_CONTEXT ( ( #1024, #802, #1009 ) ) REPRESENTATION_CONTEXT ( 'NONE', 'WORKASPACE' ) );
#186 = EDGE_CURVE ( 'NONE', #1060, #41, #149, .T. ) ;
#187 = AXIS2_PLACEMENT_3D ( 'NONE', #900, #508, #1204 ) ;
#188 = FACE_OUTER_BOUND ( 'NONE', #481, .T. ) ;
#189 = ORIENTED_EDGE ( 'NONE', *, *, #795, .F. ) ;
#190 = DIRECTION ( 'NONE',  ( -0.000000000000000000, -0.000000000000000000, 1.000000000000000000 ) ) ;
#191 = ORIENTED_EDGE ( 'NONE', *, *, #341, .T. ) ;
#192 = AXIS2_PLACEMENT_3D ( 'NONE', #660, #680, #1065 ) ;
#193 = AXIS2_PLACEMENT_3D ( 'NONE', #96, #104, #397 ) ;
#194 = ORIENTED_EDGE ( 'NONE', *, *, #127, .T. ) ;
#195 = AXIS2_PLACEMENT_3D ( 'NONE', #402, #409, #588 ) ;
#196 = DIRECTION ( 'NONE',  ( -1.000000000000000000, 0.000000000000000000, 0.000000000000000000 ) ) ;
#197 = ORIENTED_EDGE ( 'NONE', *, *, #438, .F. ) ;
#198 = CARTESIAN_POINT ( 'NONE',  ( -15.00000000000000000, 0.000000000000000000, -10.49999999999999822 ) ) ;
#199 = ORIENTED_EDGE ( 'NONE', *, *, #1054, .F. ) ;
#200 = AXIS2_PLACEMENT_3D ( 'NONE', #234, #735, #739 ) ;
#201 = CARTESIAN_POINT ( 'NONE',  ( 2.504156088940087241E-15, 33.49999999999999289, -21.00000000000000355 ) ) ;
#202 = EDGE_LOOP ( 'NONE', ( #543, #172, #388, #343 ) ) ;
#203 = CARTESIAN_POINT ( 'NONE',  ( -15.50000000000000000, 26.49999999999999645, -21.00000000000000355 ) ) ;
#204 = ORIENTED_EDGE ( 'NONE', *, *, #939, .T. ) ;
#205 = CARTESIAN_POINT ( 'NONE',  ( 20.00000000000000711, 26.50000000000000000, -19.50000000000000355 ) ) ;
#206 = CARTESIAN_POINT ( 'NONE',  ( -7.750000000000003553, 39.92339375865878992, -21.00000000000000355 ) ) ;
#207 = EDGE_CURVE ( 'NONE', #578, #1145, #40, .T. ) ;
#208 = DIRECTION ( 'NONE',  ( -0.000000000000000000, -0.000000000000000000, 1.000000000000000000 ) ) ;
#209 = ORIENTED_EDGE ( 'NONE', *, *, #673, .T. ) ;
#210 = CARTESIAN_POINT ( 'NONE',  ( -15.00000000000000000, 1.500000000000000000, 12.00000000000000000 ) ) ;
#211 = AXIS2_PLACEMENT_3D ( 'NONE', #505, #1008, #196 ) ;
#212 = CARTESIAN_POINT ( 'NONE',  ( -6.499999999999995559, 33.49999999999999289, -19.50000000000000355 ) ) ;
#213 = DIRECTION ( 'NONE',  ( 0.000000000000000000, 1.000000000000000000, 0.000000000000000000 ) ) ;
#214 = DIRECTION ( 'NONE',  ( 0.000000000000000000, 0.000000000000000000, -1.000000000000000000 ) ) ;
#215 = ORIENTED_EDGE ( 'NONE', *, *, #1172, .F. ) ;
#216 = PLANE ( 'NONE',  #82 ) ;
#217 = DIRECTION ( 'NONE',  ( -1.000000000000000000, 0.000000000000000000, 0.000000000000000000 ) ) ;
#218 = CARTESIAN_POINT ( 'NONE',  ( -20.00000000000000711, 1.500000000000000000, -19.00000000000000355 ) ) ;
#219 = ORIENTED_EDGE ( 'NONE', *, *, #288, .F. ) ;
#220 = DIRECTION ( 'NONE',  ( -3.469446951953615372E-15, 0.000000000000000000, 1.000000000000000000 ) ) ;
#221 = CIRCLE ( 'NONE', #1114, 6.499999999999998224 ) ;
#222 = CARTESIAN_POINT ( 'NONE',  ( 0.000000000000000000, 0.000000000000000000, 0.000000000000000000 ) ) ;
#223 = AXIS2_PLACEMENT_3D ( 'NONE', #222, #619, #124 ) ;
#224 = CARTESIAN_POINT ( 'NONE',  ( -13.89999999999999680, 26.49999999999999645, -19.50000000000000355 ) ) ;
#225 = FACE_OUTER_BOUND ( 'NONE', #391, .T. ) ;
#226 = ORIENTED_EDGE ( 'NONE', *, *, #1017, .T. ) ;
#227 = DIRECTION ( 'NONE',  ( -1.000000000000000000, 0.000000000000000000, 0.000000000000000000 ) ) ;
#228 = DIRECTION ( 'NONE',  ( -0.000000000000000000, -0.000000000000000000, 1.000000000000000000 ) ) ;
#229 = AXIS2_PLACEMENT_3D ( 'NONE', #1010, #1210, #1216 ) ;
#230 = EDGE_CURVE ( 'NONE', #1246, #1171, #491, .T. ) ;
#231 = FACE_BOUND ( 'NONE', #949, .T. ) ;
#232 = DIRECTION ( 'NONE',  ( 1.000000000000000000, 0.000000000000000000, 0.000000000000000000 ) ) ;
#233 = VERTEX_POINT ( 'NONE', #835 ) ;
#234 = CARTESIAN_POINT ( 'NONE',  ( -15.00000000000000000, 0.000000000000000000, -12.00000000000000000 ) ) ;
#235 = DIRECTION ( 'NONE',  ( -1.000000000000000000, 0.000000000000000000, -1.756682000989171735E-16 ) ) ;
#236 = EDGE_CURVE ( 'NONE', #928, #1081, #662, .T. ) ;
#237 = ADVANCED_FACE ( 'NONE', ( #1248, #347, #736, #1136, #142 ), #245, .T. ) ;
#238 = CARTESIAN_POINT ( 'NONE',  ( 0.000000000000000000, 1.500000000000000000, 0.000000000000000000 ) ) ;
#239 = CIRCLE ( 'NONE', #926, 1.600000000000000755 ) ;
#240 = VERTEX_POINT ( 'NONE', #649 ) ;
#241 = LINE ( 'NONE', #743, #989 ) ;
#242 = CARTESIAN_POINT ( 'NONE',  ( -6.149999999999994138, 13.07660624134118343, -19.50000000000000355 ) ) ;
#243 = PRODUCT_DEFINITION_CONTEXT ( 'detailed design', #669, 'design' ) ;
#244 = EDGE_LOOP ( 'NONE', ( #136, #748, #1002, #1071 ) ) ;
#245 = PLANE ( 'NONE',  #268 ) ;
#246 = ORIENTED_EDGE ( 'NONE', *, *, #636, .T. ) ;
#247 = LINE ( 'NONE', #1023, #695 ) ;
#248 = CIRCLE ( 'NONE', #1038, 1.600000000000002531 ) ;
#249 = ORIENTED_EDGE ( 'NONE', *, *, #138, .F. ) ;
#250 = VECTOR ( 'NONE', #992, 1000.000000000000000 ) ;
#251 = AXIS2_PLACEMENT_3D ( 'NONE', #24, #334, #814 ) ;
#252 = DIRECTION ( 'NONE',  ( 0.000000000000000000, 1.000000000000000000, 0.000000000000000000 ) ) ;
#253 = ORIENTED_EDGE ( 'NONE', *, *, #599, .T. ) ;
#254 = CARTESIAN_POINT ( 'NONE',  ( 15.00000000000000000, 0.000000000000000000, -12.00000000000000000 ) ) ;
#255 = LINE ( 'NONE', #1162, #863 ) ;
#256 = CARTESIAN_POINT ( 'NONE',  ( 17.10000000000000142, 26.50000000000000000, -21.00000000000000355 ) ) ;
#257 = ORIENTED_EDGE ( 'NONE', *, *, #898, .F. ) ;
#258 = ORIENTED_EDGE ( 'NONE', *, *, #499, .F. ) ;
#259 = CIRCLE ( 'NONE', #526, 1.500000000000001332 ) ;
#260 = CIRCLE ( 'NONE', #1092, 1.600000000000002531 ) ;
#261 = EDGE_LOOP ( 'NONE', ( #1287, #253, #129, #855 ) ) ;
#262 = LINE ( 'NONE', #184, #713 ) ;
#263 = FACE_BOUND ( 'NONE', #381, .T. ) ;
#264 = DIRECTION ( 'NONE',  ( 1.000000000000000000, 0.000000000000000000, 0.000000000000000000 ) ) ;
#265 = EDGE_CURVE ( 'NONE', #1284, #663, #927, .T. ) ;
#266 = VERTEX_POINT ( 'NONE', #948 ) ;
#267 = VERTEX_POINT ( 'NONE', #641 ) ;
#268 = AXIS2_PLACEMENT_3D ( 'NONE', #238, #134, #528 ) ;
#269 = DIRECTION ( 'NONE',  ( 0.000000000000000000, 0.000000000000000000, -1.000000000000000000 ) ) ;
#270 = FACE_BOUND ( 'NONE', #1281, .T. ) ;
#271 = CARTESIAN_POINT ( 'NONE',  ( 6.149999999999995914, 39.92339375865878992, -21.00000000000000355 ) ) ;
#272 = ORIENTED_EDGE ( 'NONE', *, *, #723, .F. ) ;
#273 = AXIS2_PLACEMENT_3D ( 'NONE', #792, #1179, #302 ) ;
#274 = EDGE_CURVE ( 'NONE', #681, #1212, #1031, .T. ) ;
#275 = ORIENTED_EDGE ( 'NONE', *, *, #110, .T. ) ;
#276 = DIRECTION ( 'NONE',  ( -1.756682000989171735E-16, 0.000000000000000000, 1.000000000000000000 ) ) ;
#277 = CYLINDRICAL_SURFACE ( 'NONE', #192, 1.000000000000000888 ) ;
#278 = VERTEX_POINT ( 'NONE', #831 ) ;
#279 = LINE ( 'NONE', #399, #135 ) ;
#280 = ORIENTED_EDGE ( 'NONE', *, *, #396, .T. ) ;
#281 = EDGE_CURVE ( 'NONE', #421, #775, #287, .T. ) ;
#282 = DIRECTION ( 'NONE',  ( 0.000000000000000000, 1.000000000000000000, 0.000000000000000000 ) ) ;
#283 = CARTESIAN_POINT ( 'NONE',  ( -15.00000000000000000, 1.500000000000000000, 12.00000000000000000 ) ) ;
#284 = ORIENTED_EDGE ( 'NONE', *, *, #673, .F. ) ;
#285 = CARTESIAN_POINT ( 'NONE',  ( -7.749999999999996447, 13.07660624134118343, -21.00000000000000355 ) ) ;
#286 = ORIENTED_EDGE ( 'NONE', *, *, #289, .T. ) ;
#287 = CIRCLE ( 'NONE', #782, 1.500000000000001332 ) ;
#288 = EDGE_CURVE ( 'NONE', #41, #681, #1183, .T. ) ;
#289 = EDGE_CURVE ( 'NONE', #1251, #985, #720, .T. ) ;
#290 = CARTESIAN_POINT ( 'NONE',  ( 20.00000000000000711, 2.000000000000000000, -19.50000000000000355 ) ) ;
#291 = ORIENTED_EDGE ( 'NONE', *, *, #369, .F. ) ;
#292 = CARTESIAN_POINT ( 'NONE',  ( -6.500000000000000000, 19.50000000000000000, -21.00000000000000355 ) ) ;
#293 = AXIS2_PLACEMENT_3D ( 'NONE', #1254, #564, #1051 ) ;
#294 = VERTEX_POINT ( 'NONE', #431 ) ;
#295 = DIRECTION ( 'NONE',  ( 0.000000000000000000, 0.000000000000000000, -1.000000000000000000 ) ) ;
#296 = ORIENTED_EDGE ( 'NONE', *, *, #1214, .F. ) ;
#297 = DIRECTION ( 'NONE',  ( 1.000000000000000000, 0.000000000000000000, -1.756682000989171735E-16 ) ) ;
#298 = ORIENTED_EDGE ( 'NONE', *, *, #971, .F. ) ;
#299 = AXIS2_PLACEMENT_3D ( 'NONE', #1029, #829, #140 ) ;
#300 = LINE ( 'NONE', #702, #311 ) ;
#301 = AXIS2_PLACEMENT_3D ( 'NONE', #699, #297, #502 ) ;
#302 = DIRECTION ( 'NONE',  ( -1.000000000000000000, 0.000000000000000000, 0.000000000000000000 ) ) ;
#303 = FACE_OUTER_BOUND ( 'NONE', #973, .T. ) ;
#304 = ORIENTED_EDGE ( 'NONE', *, *, #127, .F. ) ;
#305 = CARTESIAN_POINT ( 'NONE',  ( 15.50000000000000000, 26.50000000000000000, -21.00000000000000355 ) ) ;
#306 = VECTOR ( 'NONE', #740, 1000.000000000000000 ) ;
#307 = CARTESIAN_POINT ( 'NONE',  ( -15.00000000000000000, 0.000000000000000000, 10.49999999999999822 ) ) ;
#308 = EDGE_CURVE ( 'NONE', #1145, #36, #221, .T. ) ;
#309 = LINE ( 'NONE', #1225, #1202 ) ;
#310 = ORIENTED_EDGE ( 'NONE', *, *, #1129, .F. ) ;
#311 = VECTOR ( 'NONE', #4, 1000.000000000000000 ) ;
#312 = CARTESIAN_POINT ( 'NONE',  ( -15.00000000000000000, 1.500000000000000000, -12.00000000000000000 ) ) ;
#313 = AXIS2_PLACEMENT_3D ( 'NONE', #210, #17, #1096 ) ;
#314 = CYLINDRICAL_SURFACE ( 'NONE', #682, 1.600000000000000755 ) ;
#315 = CYLINDRICAL_SURFACE ( 'NONE', #1288, 1.600000000000000755 ) ;
#316 = DIRECTION ( 'NONE',  ( -0.000000000000000000, -0.000000000000000000, 1.000000000000000000 ) ) ;
#317 = EDGE_LOOP ( 'NONE', ( #701, #1087, #1243, #291 ) ) ;
#318 = EDGE_CURVE ( 'NONE', #777, #642, #890, .T. ) ;
#319 = DIRECTION ( 'NONE',  ( 0.000000000000000000, 1.000000000000000000, 0.000000000000000000 ) ) ;
#320 = AXIS2_PLACEMENT_3D ( 'NONE', #719, #531, #929 ) ;
#321 = DIRECTION ( 'NONE',  ( 0.000000000000000000, 1.000000000000000000, 0.000000000000000000 ) ) ;
#322 = DIRECTION ( 'NONE',  ( -0.000000000000000000, -1.000000000000000000, -0.000000000000000000 ) ) ;
#323 = ORIENTED_EDGE ( 'NONE', *, *, #1098, .F. ) ;
#324 = ORIENTED_EDGE ( 'NONE', *, *, #981, .T. ) ;
#325 = DIRECTION ( 'NONE',  ( -0.000000000000000000, -0.000000000000000000, 1.000000000000000000 ) ) ;
#326 = EDGE_CURVE ( 'NONE', #943, #1218, #957, .T. ) ;
#327 = ADVANCED_FACE ( 'NONE', ( #919, #126, #133, #1121, #231 ), #1005, .F. ) ;
#328 = AXIS2_PLACEMENT_3D ( 'NONE', #804, #628, #904 ) ;
#329 =( NAMED_UNIT ( * ) PLANE_ANGLE_UNIT ( ) SI_UNIT ( $, .RADIAN. ) );
#330 = DIRECTION ( 'NONE',  ( -0.000000000000000000, 1.000000000000000000, -0.000000000000000000 ) ) ;
#331 = CARTESIAN_POINT ( 'NONE',  ( -20.00000000000000711, 26.50000000000000000, -21.00000000000000355 ) ) ;
#332 = ORIENTED_EDGE ( 'NONE', *, *, #629, .T. ) ;
#333 = CARTESIAN_POINT ( 'NONE',  ( 15.00000000000000000, 0.000000000000000000, -10.49999999999999822 ) ) ;
#334 = DIRECTION ( 'NONE',  ( -0.000000000000000000, -1.000000000000000000, -0.000000000000000000 ) ) ;
#335 = VECTOR ( 'NONE', #330, 1000.000000000000000 ) ;
#336 = CARTESIAN_POINT ( 'NONE',  ( -6.499999999999995559, 33.49999999999999289, -19.50000000000000355 ) ) ;
#337 = CARTESIAN_POINT ( 'NONE',  ( 20.00000000000000711, 26.50000000000000000, -21.00000000000000355 ) ) ;
#338 = ORIENTED_EDGE ( 'NONE', *, *, #550, .T. ) ;
#339 = CARTESIAN_POINT ( 'NONE',  ( -7.750000000000003553, 39.92339375865878992, -21.00000000000000355 ) ) ;
#340 = CARTESIAN_POINT ( 'NONE',  ( -6.150000000000003020, 39.92339375865878992, -21.00000000000000355 ) ) ;
#341 = EDGE_CURVE ( 'NONE', #361, #85, #790, .T. ) ;
#342 = CARTESIAN_POINT ( 'NONE',  ( 6.500000000000000888, 33.49999999999998579, -21.00000000000000355 ) ) ;
#343 = ORIENTED_EDGE ( 'NONE', *, *, #110, .F. ) ;
#344 = CARTESIAN_POINT ( 'NONE',  ( 0.000000000000000000, 26.49999999999999289, -19.50000000000000355 ) ) ;
#345 = DIRECTION ( 'NONE',  ( 0.000000000000000000, -1.000000000000000000, 0.000000000000000000 ) ) ;
#346 = VECTOR ( 'NONE', #805, 1000.000000000000000 ) ;
#347 = FACE_BOUND ( 'NONE', #159, .T. ) ;
#348 = EDGE_LOOP ( 'NONE', ( #150, #163, #896, #59 ) ) ;
#349 = CARTESIAN_POINT ( 'NONE',  ( 15.00000000000000000, 1.500000000000000000, 12.00000000000000000 ) ) ;
#350 = LINE ( 'NONE', #659, #362 ) ;
#351 = EDGE_LOOP ( 'NONE', ( #296, #452, #1100, #272 ) ) ;
#352 = AXIS2_PLACEMENT_3D ( 'NONE', #283, #972, #162 ) ;
#353 = AXIS2_PLACEMENT_3D ( 'NONE', #1153, #1161, #874 ) ;
#354 = VERTEX_POINT ( 'NONE', #520 ) ;
#355 = DIRECTION ( 'NONE',  ( 0.000000000000000000, 0.000000000000000000, 1.000000000000000000 ) ) ;
#356 = EDGE_LOOP ( 'NONE', ( #97, #772, #280, #1205 ) ) ;
#357 = FACE_BOUND ( 'NONE', #1007, .T. ) ;
#358 = ADVANCED_FACE ( 'NONE', ( #406 ), #315, .F. ) ;
#359 = DIRECTION ( 'NONE',  ( -0.000000000000000000, -0.000000000000000000, 1.000000000000000000 ) ) ;
#360 = CARTESIAN_POINT ( 'NONE',  ( 0.000000000000000000, 26.49999999999999289, -21.00000000000000355 ) ) ;
#361 = VERTEX_POINT ( 'NONE', #724 ) ;
#362 = VECTOR ( 'NONE', #752, 1000.000000000000000 ) ;
#363 = AXIS2_PLACEMENT_3D ( 'NONE', #1042, #837, #734 ) ;
#364 = VERTEX_POINT ( 'NONE', #307 ) ;
#365 = DIRECTION ( 'NONE',  ( -0.000000000000000000, -0.000000000000000000, 1.000000000000000000 ) ) ;
#366 = AXIS2_PLACEMENT_3D ( 'NONE', #796, #1197, #1184 ) ;
#367 = CARTESIAN_POINT ( 'NONE',  ( -17.10000000000000142, 26.49999999999999645, -21.00000000000000355 ) ) ;
#368 = FACE_OUTER_BOUND ( 'NONE', #371, .T. ) ;
#369 = EDGE_CURVE ( 'NONE', #375, #354, #1186, .T. ) ;
#370 = EDGE_LOOP ( 'NONE', ( #1150, #1272 ) ) ;
#371 = EDGE_LOOP ( 'NONE', ( #1048, #781, #560, #962 ) ) ;
#372 = LINE ( 'NONE', #173, #645 ) ;
#373 = DIRECTION ( 'NONE',  ( -0.000000000000000000, -1.000000000000000000, -0.000000000000000000 ) ) ;
#374 = ORIENTED_EDGE ( 'NONE', *, *, #1187, .F. ) ;
#375 = VERTEX_POINT ( 'NONE', #1108 ) ;
#376 = PLANE ( 'NONE',  #353 ) ;
#377 = CARTESIAN_POINT ( 'NONE',  ( 6.499999999999996447, 19.50000000000000000, -21.00000000000000355 ) ) ;
#378 = ORIENTED_EDGE ( 'NONE', *, *, #830, .F. ) ;
#379 = EDGE_CURVE ( 'NONE', #1124, #847, #1018, .T. ) ;
#380 = DIRECTION ( 'NONE',  ( 0.000000000000000000, 0.000000000000000000, 1.000000000000000000 ) ) ;
#381 = EDGE_LOOP ( 'NONE', ( #856, #1116, #567, #967 ) ) ;
#382 = VECTOR ( 'NONE', #624, 1000.000000000000000 ) ;
#383 = EDGE_CURVE ( 'NONE', #294, #361, #613, .T. ) ;
#384 = CARTESIAN_POINT ( 'NONE',  ( 6.149999999999999467, 13.07660624134118876, -19.50000000000000355 ) ) ;
#385 = ORIENTED_EDGE ( 'NONE', *, *, #436, .T. ) ;
#386 = LINE ( 'NONE', #292, #31 ) ;
#387 = ORIENTED_EDGE ( 'NONE', *, *, #1187, .T. ) ;
#388 = ORIENTED_EDGE ( 'NONE', *, *, #489, .F. ) ;
#389 = VECTOR ( 'NONE', #741, 1000.000000000000000 ) ;
#390 = FACE_OUTER_BOUND ( 'NONE', #317, .T. ) ;
#391 = EDGE_LOOP ( 'NONE', ( #656, #888, #836, #226 ) ) ;
#392 = CARTESIAN_POINT ( 'NONE',  ( 15.00000000000000000, 0.000000000000000000, 12.00000000000000000 ) ) ;
#393 = AXIS2_PLACEMENT_3D ( 'NONE', #425, #620, #1203 ) ;
#394 = VECTOR ( 'NONE', #405, 1000.000000000000000 ) ;
#395 = VERTEX_POINT ( 'NONE', #224 ) ;
#396 = EDGE_CURVE ( 'NONE', #1212, #885, #1103, .T. ) ;
#397 = DIRECTION ( 'NONE',  ( 0.000000000000000000, 0.000000000000000000, 1.000000000000000000 ) ) ;
#398 = UNCERTAINTY_MEASURE_WITH_UNIT (LENGTH_MEASURE( 1.000000000000000082E-05 ), #1024, 'distance_accuracy_value', 'NONE');
#399 = CARTESIAN_POINT ( 'NONE',  ( -20.00000000000000000, 1.500000000000000000, 19.99999999999999645 ) ) ;
#400 = CYLINDRICAL_SURFACE ( 'NONE', #846, 1.599999999999998979 ) ;
#401 = ORIENTED_EDGE ( 'NONE', *, *, #1017, .F. ) ;
#402 = CARTESIAN_POINT ( 'NONE',  ( -7.750000000000003553, 39.92339375865878992, -21.00000000000000355 ) ) ;
#403 = AXIS2_PLACEMENT_3D ( 'NONE', #584, #482, #477 ) ;
#404 = EDGE_CURVE ( 'NONE', #1081, #928, #727, .T. ) ;
#405 = DIRECTION ( 'NONE',  ( 3.097720492815728152E-16, 1.000000000000000000, -0.000000000000000000 ) ) ;
#406 = FACE_OUTER_BOUND ( 'NONE', #648, .T. ) ;
#407 = CARTESIAN_POINT ( 'NONE',  ( 20.00000000000000711, 1.999999999999998224, -19.50000000000000355 ) ) ;
#408 = ORIENTED_EDGE ( 'NONE', *, *, #841, .F. ) ;
#409 = DIRECTION ( 'NONE',  ( -0.000000000000000000, -0.000000000000000000, 1.000000000000000000 ) ) ;
#410 = CIRCLE ( 'NONE', #1140, 1.500000000000001332 ) ;
#411 = CARTESIAN_POINT ( 'NONE',  ( 15.00000000000000000, 1.500000000000000000, -13.50000000000000178 ) ) ;
#412 = LINE ( 'NONE', #331, #640 ) ;
#413 = ORIENTED_EDGE ( 'NONE', *, *, #1016, .F. ) ;
#414 = AXIS2_PLACEMENT_3D ( 'NONE', #902, #486, #893 ) ;
#415 = DIRECTION ( 'NONE',  ( -0.000000000000000000, -1.000000000000000000, -0.000000000000000000 ) ) ;
#416 = CIRCLE ( 'NONE', #1147, 1.599999999999999867 ) ;
#417 =( NAMED_UNIT ( * ) SI_UNIT ( $, .STERADIAN. ) SOLID_ANGLE_UNIT ( ) );
#418 = CARTESIAN_POINT ( 'NONE',  ( 7.750000000000000000, 13.07660624134118876, -21.00000000000000355 ) ) ;
#419 = CARTESIAN_POINT ( 'NONE',  ( 15.00000000000000000, 0.000000000000000000, 12.00000000000000000 ) ) ;
#420 = ORIENTED_EDGE ( 'NONE', *, *, #546, .F. ) ;
#421 = VERTEX_POINT ( 'NONE', #411 ) ;
#422 = ADVANCED_FACE ( 'NONE', ( #810 ), #21, .F. ) ;
#423 = CARTESIAN_POINT ( 'NONE',  ( -15.00000000000000000, 1.500000000000000000, 13.50000000000000178 ) ) ;
#424 = VECTOR ( 'NONE', #644, 1000.000000000000000 ) ;
#425 = CARTESIAN_POINT ( 'NONE',  ( 7.749999999999994671, 39.92339375865878992, -19.50000000000000355 ) ) ;
#426 = DIRECTION ( 'NONE',  ( 0.000000000000000000, 0.000000000000000000, 1.000000000000000000 ) ) ;
#427 = ORIENTED_EDGE ( 'NONE', *, *, #731, .F. ) ;
#428 = LINE ( 'NONE', #827, #1107 ) ;
#429 = PRODUCT_DEFINITION ( '未知', '', #618, #243 ) ;
#430 = DIRECTION ( 'NONE',  ( -0.000000000000000000, -1.000000000000000000, -0.000000000000000000 ) ) ;
#431 = CARTESIAN_POINT ( 'NONE',  ( 9.349999999999994316, 39.92339375865878992, -21.00000000000000355 ) ) ;
#432 = ORIENTED_EDGE ( 'NONE', *, *, #230, .F. ) ;
#433 =( LENGTH_UNIT ( ) NAMED_UNIT ( * ) SI_UNIT ( .MILLI., .METRE. ) );
#434 = LINE ( 'NONE', #945, #464 ) ;
#435 = VECTOR ( 'NONE', #5, 1000.000000000000000 ) ;
#436 = EDGE_CURVE ( 'NONE', #354, #375, #999, .T. ) ;
#437 = ADVANCED_FACE ( 'NONE', ( #894 ), #1000, .F. ) ;
#438 = EDGE_CURVE ( 'NONE', #63, #1078, #61, .T. ) ;
#439 = DIRECTION ( 'NONE',  ( -1.000000000000000000, 0.000000000000000000, 0.000000000000000000 ) ) ;
#440 = ORIENTED_EDGE ( 'NONE', *, *, #318, .T. ) ;
#441 = CARTESIAN_POINT ( 'NONE',  ( -20.00000000000000711, 1.000000000000000888, -20.00000000000000355 ) ) ;
#442 = DIRECTION ( 'NONE',  ( 1.000000000000000000, 0.000000000000000000, 0.000000000000000000 ) ) ;
#443 = ORIENTED_EDGE ( 'NONE', *, *, #655, .F. ) ;
#444 = CARTESIAN_POINT ( 'NONE',  ( 15.00000000000000000, 1.500000000000000000, -12.00000000000000000 ) ) ;
#445 = ORIENTED_EDGE ( 'NONE', *, *, #10, .F. ) ;
#446 = DIRECTION ( 'NONE',  ( -0.000000000000000000, -0.000000000000000000, 1.000000000000000000 ) ) ;
#447 = DIRECTION ( 'NONE',  ( 1.000000000000000000, 0.000000000000000000, -0.000000000000000000 ) ) ;
#448 = ORIENTED_EDGE ( 'NONE', *, *, #308, .T. ) ;
#449 = ORIENTED_EDGE ( 'NONE', *, *, #153, .T. ) ;
#450 = EDGE_CURVE ( 'NONE', #806, #718, #1192, .T. ) ;
#451 = CARTESIAN_POINT ( 'NONE',  ( 0.000000000000000000, 0.000000000000000000, -20.00000000000000355 ) ) ;
#452 = ORIENTED_EDGE ( 'NONE', *, *, #869, .T. ) ;
#453 = CARTESIAN_POINT ( 'NONE',  ( 7.749999999999994671, 39.92339375865878992, -19.50000000000000355 ) ) ;
#454 = CARTESIAN_POINT ( 'NONE',  ( 17.00000000000000355, 0.000000000000000000, 19.99999999999999645 ) ) ;
#455 = FACE_OUTER_BOUND ( 'NONE', #870, .T. ) ;
#456 = AXIS2_PLACEMENT_3D ( 'NONE', #815, #716, #891 ) ;
#457 = ORIENTED_EDGE ( 'NONE', *, *, #801, .F. ) ;
#458 = ORIENTED_EDGE ( 'NONE', *, *, #730, .F. ) ;
#459 = FACE_BOUND ( 'NONE', #1152, .T. ) ;
#460 = CYLINDRICAL_SURFACE ( 'NONE', #632, 6.499999999999998224 ) ;
#461 = EDGE_CURVE ( 'NONE', #1251, #278, #598, .T. ) ;
#462 = DIRECTION ( 'NONE',  ( 1.000000000000000000, 0.000000000000000000, 0.000000000000000000 ) ) ;
#463 = EDGE_LOOP ( 'NONE', ( #1062, #1219, #954, #478 ) ) ;
#464 = VECTOR ( 'NONE', #638, 1000.000000000000000 ) ;
#465 = EDGE_LOOP ( 'NONE', ( #733, #75 ) ) ;
#466 = PLANE ( 'NONE',  #123 ) ;
#467 = AXIS2_PLACEMENT_3D ( 'NONE', #206, #603, #590 ) ;
#468 = DIRECTION ( 'NONE',  ( 0.000000000000000000, 0.000000000000000000, -1.000000000000000000 ) ) ;
#469 = CARTESIAN_POINT ( 'NONE',  ( -7.749999999999996447, 13.07660624134118343, -19.50000000000000355 ) ) ;
#470 = ORIENTED_EDGE ( 'NONE', *, *, #71, .T. ) ;
#471 = FACE_BOUND ( 'NONE', #1110, .T. ) ;
#472 = AXIS2_PLACEMENT_3D ( 'NONE', #1123, #100, #711 ) ;
#473 = CARTESIAN_POINT ( 'NONE',  ( -7.750000000000003553, 39.92339375865878992, -21.00000000000000355 ) ) ;
#474 = ORIENTED_EDGE ( 'NONE', *, *, #436, .F. ) ;
#475 = EDGE_CURVE ( 'NONE', #892, #364, #776, .T. ) ;
#476 = VECTOR ( 'NONE', #228, 1000.000000000000000 ) ;
#477 = DIRECTION ( 'NONE',  ( 3.097720492815728152E-16, 1.000000000000000000, 0.000000000000000000 ) ) ;
#478 = ORIENTED_EDGE ( 'NONE', *, *, #379, .T. ) ;
#479 = CIRCLE ( 'NONE', #916, 1.599999999999999867 ) ;
#480 = CARTESIAN_POINT ( 'NONE',  ( -15.00000000000000000, 0.000000000000000000, 13.50000000000000178 ) ) ;
#481 = EDGE_LOOP ( 'NONE', ( #1232, #848, #793, #843 ) ) ;
#482 = DIRECTION ( 'NONE',  ( 1.000000000000000000, -3.097720492815728152E-16, 0.000000000000000000 ) ) ;
#483 = EDGE_LOOP ( 'NONE', ( #515, #1046, #676, #650 ) ) ;
#484 = CIRCLE ( 'NONE', #320, 1.500000000000001332 ) ;
#485 = ORIENTED_EDGE ( 'NONE', *, *, #723, .T. ) ;
#486 = DIRECTION ( 'NONE',  ( 0.000000000000000000, 1.000000000000000000, 0.000000000000000000 ) ) ;
#487 = EDGE_LOOP ( 'NONE', ( #1167, #798, #886, #987 ) ) ;
#488 = DIRECTION ( 'NONE',  ( 0.000000000000000000, 0.000000000000000000, -1.000000000000000000 ) ) ;
#489 = EDGE_CURVE ( 'NONE', #806, #240, #6, .T. ) ;
#490 = VERTEX_POINT ( 'NONE', #1097 ) ;
#491 = CIRCLE ( 'NONE', #1224, 1.600000000000002531 ) ;
#492 = CARTESIAN_POINT ( 'NONE',  ( 15.00000000000000000, 0.000000000000000000, -13.50000000000000178 ) ) ;
#493 = EDGE_LOOP ( 'NONE', ( #1032, #514, #742, #298 ) ) ;
#494 = CARTESIAN_POINT ( 'NONE',  ( 15.50000000000000000, 26.50000000000000000, -21.00000000000000355 ) ) ;
#495 = AXIS2_PLACEMENT_3D ( 'NONE', #203, #488, #87 ) ;
#496 = CYLINDRICAL_SURFACE ( 'NONE', #1265, 6.499999999999998224 ) ;
#497 = ORIENTED_EDGE ( 'NONE', *, *, #138, .T. ) ;
#498 = ADVANCED_BREP_SHAPE_REPRESENTATION ( '37\X2\7535673a652f67b6\X0\', ( #563, #223 ), #185 ) ;
#499 = EDGE_CURVE ( 'NONE', #36, #749, #386, .T. ) ;
#500 = EDGE_CURVE ( 'NONE', #278, #657, #968, .T. ) ;
#501 = DIRECTION ( 'NONE',  ( 0.000000000000000000, 0.000000000000000000, -1.000000000000000000 ) ) ;
#502 = DIRECTION ( 'NONE',  ( 0.000000000000000000, 0.000000000000000000, -1.000000000000000000 ) ) ;
#503 = CARTESIAN_POINT ( 'NONE',  ( 6.149999999999995914, 39.92339375865878992, -19.50000000000000355 ) ) ;
#504 = VERTEX_POINT ( 'NONE', #198 ) ;
#505 = CARTESIAN_POINT ( 'NONE',  ( 7.749999999999994671, 39.92339375865878992, -21.00000000000000355 ) ) ;
#506 = PRESENTATION_STYLE_ASSIGNMENT (( #823 ) ) ;
#507 = CARTESIAN_POINT ( 'NONE',  ( 7.750000000000000000, 13.07660624134118876, -19.50000000000000355 ) ) ;
#508 = DIRECTION ( 'NONE',  ( -0.000000000000000000, -1.000000000000000000, -0.000000000000000000 ) ) ;
#509 = CARTESIAN_POINT ( 'NONE',  ( -20.00000000000000000, 1.500000000000000000, 19.99999999999999645 ) ) ;
#510 = AXIS2_PLACEMENT_3D ( 'NONE', #548, #654, #232 ) ;
#511 = ADVANCED_FACE ( 'NONE', ( #99 ), #899, .T. ) ;
#512 = DIRECTION ( 'NONE',  ( 0.000000000000000000, 0.000000000000000000, -1.000000000000000000 ) ) ;
#513 = CYLINDRICAL_SURFACE ( 'NONE', #872, 1.600000000000002531 ) ;
#514 = ORIENTED_EDGE ( 'NONE', *, *, #779, .T. ) ;
#515 = ORIENTED_EDGE ( 'NONE', *, *, #52, .F. ) ;
#516 = CIRCLE ( 'NONE', #853, 1.599999999999999867 ) ;
#517 = AXIS2_PLACEMENT_3D ( 'NONE', #908, #9, #1194 ) ;
#518 = DIRECTION ( 'NONE',  ( 0.000000000000000000, 0.000000000000000000, 1.000000000000000000 ) ) ;
#519 = APPLICATION_PROTOCOL_DEFINITION ( 'draft international standard', 'automotive_design', 1998, #1067 ) ;
#520 = CARTESIAN_POINT ( 'NONE',  ( -6.150000000000003020, 39.92339375865878992, -19.50000000000000355 ) ) ;
#521 = LINE ( 'NONE', #920, #346 ) ;
#522 = ORIENTED_EDGE ( 'NONE', *, *, #489, .T. ) ;
#523 = ORIENTED_EDGE ( 'NONE', *, *, #10, .T. ) ;
#524 = DIRECTION ( 'NONE',  ( 0.000000000000000000, 0.000000000000000000, -1.000000000000000000 ) ) ;
#525 = DIRECTION ( 'NONE',  ( 0.000000000000000000, 0.000000000000000000, 1.000000000000000000 ) ) ;
#526 = AXIS2_PLACEMENT_3D ( 'NONE', #617, #1014, #518 ) ;
#527 = STYLED_ITEM ( 'NONE', ( #1049 ), #563 ) ;
#528 = DIRECTION ( 'NONE',  ( 0.000000000000000000, -0.000000000000000000, 1.000000000000000000 ) ) ;
#529 = ADVANCED_FACE ( 'NONE', ( #771 ), #1173, .F. ) ;
#530 = EDGE_LOOP ( 'NONE', ( #555, #258, #969, #763 ) ) ;
#531 = DIRECTION ( 'NONE',  ( 0.000000000000000000, 1.000000000000000000, 0.000000000000000000 ) ) ;
#532 = LINE ( 'NONE', #715, #424 ) ;
#533 = EDGE_CURVE ( 'NONE', #826, #749, #1030, .T. ) ;
#534 = EDGE_CURVE ( 'NONE', #1284, #847, #279, .T. ) ;
#535 = CARTESIAN_POINT ( 'NONE',  ( -17.00000000000000000, 1.500000000000000000, 16.99999999999999645 ) ) ;
#536 = ORIENTED_EDGE ( 'NONE', *, *, #450, .F. ) ;
#537 = CARTESIAN_POINT ( 'NONE',  ( -9.350000000000004974, 39.92339375865878992, -21.00000000000000355 ) ) ;
#538 = CYLINDRICAL_SURFACE ( 'NONE', #251, 1.500000000000001332 ) ;
#539 = ADVANCED_FACE ( 'NONE', ( #677 ), #1072, .F. ) ;
#540 = VECTOR ( 'NONE', #325, 1000.000000000000000 ) ;
#541 = ORIENTED_EDGE ( 'NONE', *, *, #1075, .T. ) ;
#542 = DIRECTION ( 'NONE',  ( 0.000000000000000000, 0.000000000000000000, -1.000000000000000000 ) ) ;
#543 = ORIENTED_EDGE ( 'NONE', *, *, #1282, .F. ) ;
#544 = LINE ( 'NONE', #537, #1276 ) ;
#545 = CARTESIAN_POINT ( 'NONE',  ( 17.00000000000000000, 0.000000000000000000, 17.00000000000000000 ) ) ;
#546 = EDGE_CURVE ( 'NONE', #1158, #706, #73, .T. ) ;
#547 = AXIS2_PLACEMENT_3D ( 'NONE', #254, #970, #858 ) ;
#548 = CARTESIAN_POINT ( 'NONE',  ( 15.50000000000000000, 26.50000000000000000, -21.00000000000000355 ) ) ;
#549 = EDGE_LOOP ( 'NONE', ( #408, #101, #246, #183 ) ) ;
#550 = EDGE_CURVE ( 'NONE', #1137, #89, #799, .T. ) ;
#551 = DIRECTION ( 'NONE',  ( -3.097720492815729631E-16, -1.000000000000000000, 0.000000000000000000 ) ) ;
#552 = ORIENTED_EDGE ( 'NONE', *, *, #207, .T. ) ;
#553 = FACE_BOUND ( 'NONE', #877, .T. ) ;
#554 = CARTESIAN_POINT ( 'NONE',  ( -17.10000000000000142, 26.49999999999999645, -19.50000000000000355 ) ) ;
#555 = ORIENTED_EDGE ( 'NONE', *, *, #1273, .F. ) ;
#556 = EDGE_LOOP ( 'NONE', ( #668, #921, #1200, #374 ) ) ;
#557 = VECTOR ( 'NONE', #1143, 1000.000000000000000 ) ;
#558 = ADVANCED_FACE ( 'NONE', ( #879 ), #975, .F. ) ;
#559 = EDGE_CURVE ( 'NONE', #706, #1158, #239, .T. ) ;
#560 = ORIENTED_EDGE ( 'NONE', *, *, #1098, .T. ) ;
#561 = FACE_BOUND ( 'NONE', #1226, .T. ) ;
#562 = CARTESIAN_POINT ( 'NONE',  ( -13.89999999999999680, 26.49999999999999645, -21.00000000000000355 ) ) ;
#563 = MANIFOLD_SOLID_BREP ( '圆角3', #1142 ) ;
#564 = DIRECTION ( 'NONE',  ( -0.000000000000000000, -0.000000000000000000, 1.000000000000000000 ) ) ;
#565 = AXIS2_PLACEMENT_3D ( 'NONE', #507, #113, #118 ) ;
#566 = ORIENTED_EDGE ( 'NONE', *, *, #910, .F. ) ;
#567 = ORIENTED_EDGE ( 'NONE', *, *, #308, .F. ) ;
#568 = DIRECTION ( 'NONE',  ( 0.000000000000000000, -0.000000000000000000, 1.000000000000000000 ) ) ;
#569 = CARTESIAN_POINT ( 'NONE',  ( 15.00000000000000000, 1.500000000000000000, 10.49999999999999822 ) ) ;
#570 = VERTEX_POINT ( 'NONE', #924 ) ;
#571 = ORIENTED_EDGE ( 'NONE', *, *, #396, .F. ) ;
#572 = FACE_OUTER_BOUND ( 'NONE', #549, .T. ) ;
#573 = ADVANCED_FACE ( 'NONE', ( #950 ), #56, .F. ) ;
#574 = EDGE_CURVE ( 'NONE', #46, #901, #260, .T. ) ;
#575 = CARTESIAN_POINT ( 'NONE',  ( -6.149999999999994138, 13.07660624134118343, -21.00000000000000355 ) ) ;
#576 = ORIENTED_EDGE ( 'NONE', *, *, #186, .F. ) ;
#577 = DIRECTION ( 'NONE',  ( 0.000000000000000000, 0.000000000000000000, -1.000000000000000000 ) ) ;
#578 = VERTEX_POINT ( 'NONE', #144 ) ;
#579 = VECTOR ( 'NONE', #208, 1000.000000000000000 ) ;
#580 = DIRECTION ( 'NONE',  ( -0.000000000000000000, -1.000000000000000000, -0.000000000000000000 ) ) ;
#581 = EDGE_LOOP ( 'NONE', ( #833, #1066 ) ) ;
#582 = AXIS2_PLACEMENT_3D ( 'NONE', #1208, #235, #909 ) ;
#583 = CIRCLE ( 'NONE', #1084, 1.600000000000002531 ) ;
#584 = CARTESIAN_POINT ( 'NONE',  ( -6.499999999999995559, 33.49999999999999289, -21.00000000000000355 ) ) ;
#585 = EDGE_LOOP ( 'NONE', ( #523, #1255 ) ) ;
#586 = CIRCLE ( 'NONE', #20, 1.600000000000002531 ) ;
#587 = ORIENTED_EDGE ( 'NONE', *, *, #500, .T. ) ;
#588 = DIRECTION ( 'NONE',  ( 1.000000000000000000, 0.000000000000000000, 0.000000000000000000 ) ) ;
#589 = ORIENTED_EDGE ( 'NONE', *, *, #379, .F. ) ;
#590 = DIRECTION ( 'NONE',  ( -1.000000000000000000, 0.000000000000000000, 0.000000000000000000 ) ) ;
#591 = AXIS2_PLACEMENT_3D ( 'NONE', #845, #665, #447 ) ;
#592 = AXIS2_PLACEMENT_3D ( 'NONE', #441, #1125, #47 ) ;
#593 = ORIENTED_EDGE ( 'NONE', *, *, #1166, .T. ) ;
#594 = AXIS2_PLACEMENT_3D ( 'NONE', #392, #983, #380 ) ;
#595 = CYLINDRICAL_SURFACE ( 'NONE', #811, 1.500000000000001332 ) ;
#596 = ORIENTED_EDGE ( 'NONE', *, *, #369, .T. ) ;
#597 = UNCERTAINTY_MEASURE_WITH_UNIT (LENGTH_MEASURE( 1.000000000000000082E-05 ), #19, 'distance_accuracy_value', 'NONE');
#598 = LINE ( 'NONE', #683, #435 ) ;
#599 = EDGE_CURVE ( 'NONE', #915, #892, #484, .T. ) ;
#600 = EDGE_CURVE ( 'NONE', #1185, #395, #91, .T. ) ;
#601 = ORIENTED_EDGE ( 'NONE', *, *, #610, .T. ) ;
#602 = DIRECTION ( 'NONE',  ( 0.000000000000000000, 0.000000000000000000, -1.000000000000000000 ) ) ;
#603 = DIRECTION ( 'NONE',  ( 0.000000000000000000, 0.000000000000000000, -1.000000000000000000 ) ) ;
#604 = CARTESIAN_POINT ( 'NONE',  ( -9.349999999999999645, 13.07660624134118343, -21.00000000000000355 ) ) ;
#605 = EDGE_LOOP ( 'NONE', ( #440, #209 ) ) ;
#606 = CARTESIAN_POINT ( 'NONE',  ( 15.00000000000000000, 1.500000000000000000, -10.49999999999999822 ) ) ;
#607 = DIRECTION ( 'NONE',  ( 0.000000000000000000, 0.000000000000000000, 1.000000000000000000 ) ) ;
#608 = CARTESIAN_POINT ( 'NONE',  ( 2.504156088940087241E-15, 33.49999999999999289, -19.50000000000000355 ) ) ;
#609 = EDGE_LOOP ( 'NONE', ( #1268, #420 ) ) ;
#610 = EDGE_CURVE ( 'NONE', #570, #41, #1118, .T. ) ;
#611 = LINE ( 'NONE', #1004, #646 ) ;
#612 = EDGE_CURVE ( 'NONE', #240, #266, #241, .T. ) ;
#613 = LINE ( 'NONE', #1113, #1064 ) ;
#614 = DIRECTION ( 'NONE',  ( -0.000000000000000000, -0.000000000000000000, 1.000000000000000000 ) ) ;
#615 = ORIENTED_EDGE ( 'NONE', *, *, #674, .T. ) ;
#616 = AXIS2_PLACEMENT_3D ( 'NONE', #1047, #842, #355 ) ;
#617 = CARTESIAN_POINT ( 'NONE',  ( -15.00000000000000000, 0.000000000000000000, 12.00000000000000000 ) ) ;
#618 = PRODUCT_DEFINITION_FORMATION_WITH_SPECIFIED_SOURCE ( '任何', '', #938, .NOT_KNOWN. ) ;
#619 = DIRECTION ( 'NONE',  ( 0.000000000000000000, 0.000000000000000000, 1.000000000000000000 ) ) ;
#620 = DIRECTION ( 'NONE',  ( 0.000000000000000000, 0.000000000000000000, -1.000000000000000000 ) ) ;
#621 = LINE ( 'NONE', #717, #1036 ) ;
#622 = ORIENTED_EDGE ( 'NONE', *, *, #1076, .F. ) ;
#623 = ORIENTED_EDGE ( 'NONE', *, *, #670, .T. ) ;
#624 = DIRECTION ( 'NONE',  ( 1.756682000989171735E-16, -0.000000000000000000, -1.000000000000000000 ) ) ;
#625 = CIRCLE ( 'NONE', #688, 1.600000000000000755 ) ;
#626 = DIRECTION ( 'NONE',  ( -1.000000000000000000, 0.000000000000000000, 0.000000000000000000 ) ) ;
#627 = ADVANCED_FACE ( 'NONE', ( #1022 ), #131, .T. ) ;
#628 = DIRECTION ( 'NONE',  ( 0.000000000000000000, 1.000000000000000000, 0.000000000000000000 ) ) ;
#629 = EDGE_CURVE ( 'NONE', #1158, #375, #544, .T. ) ;
#630 = CARTESIAN_POINT ( 'NONE',  ( -7.749999999999996447, 13.07660624134118343, -21.00000000000000355 ) ) ;
#631 = DIRECTION ( 'NONE',  ( 0.000000000000000000, 0.000000000000000000, -1.000000000000000000 ) ) ;
#632 = AXIS2_PLACEMENT_3D ( 'NONE', #1253, #359, #1156 ) ;
#633 = DIRECTION ( 'NONE',  ( 1.000000000000000000, 0.000000000000000000, 0.000000000000000000 ) ) ;
#634 = CARTESIAN_POINT ( 'NONE',  ( -17.00000000000000000, 1.500000000000000000, 19.99999999999999645 ) ) ;
#635 = ORIENTED_EDGE ( 'NONE', *, *, #861, .F. ) ;
#636 = EDGE_CURVE ( 'NONE', #1081, #880, #428, .T. ) ;
#637 = DIRECTION ( 'NONE',  ( 0.000000000000000000, 1.000000000000000000, 0.000000000000000000 ) ) ;
#638 = DIRECTION ( 'NONE',  ( -0.000000000000000000, -0.000000000000000000, 1.000000000000000000 ) ) ;
#639 = CARTESIAN_POINT ( 'NONE',  ( 20.00000000000000000, 1.500000000000000000, 17.00000000000000000 ) ) ;
#640 = VECTOR ( 'NONE', #614, 1000.000000000000000 ) ;
#641 = CARTESIAN_POINT ( 'NONE',  ( 20.00000000000000711, 1.500000000000000000, -19.00000000000000355 ) ) ;
#642 = VERTEX_POINT ( 'NONE', #333 ) ;
#643 = LINE ( 'NONE', #151, #755 ) ;
#644 = DIRECTION ( 'NONE',  ( -0.000000000000000000, -0.000000000000000000, 1.000000000000000000 ) ) ;
#645 = VECTOR ( 'NONE', #69, 1000.000000000000000 ) ;
#646 = VECTOR ( 'NONE', #415, 1000.000000000000000 ) ;
#647 = DIRECTION ( 'NONE',  ( -1.000000000000000000, 0.000000000000000000, 0.000000000000000000 ) ) ;
#648 = EDGE_LOOP ( 'NONE', ( #413, #684, #623, #712 ) ) ;
#649 = CARTESIAN_POINT ( 'NONE',  ( -20.00000000000000711, 2.000000000000000000, -19.50000000000000355 ) ) ;
#650 = ORIENTED_EDGE ( 'NONE', *, *, #600, .F. ) ;
#651 =( NAMED_UNIT ( * ) SI_UNIT ( $, .STERADIAN. ) SOLID_ANGLE_UNIT ( ) );
#652 = FACE_BOUND ( 'NONE', #465, .T. ) ;
#653 = CYLINDRICAL_SURFACE ( 'NONE', #1249, 20.00000000000000711 ) ;
#654 = DIRECTION ( 'NONE',  ( -0.000000000000000000, -0.000000000000000000, 1.000000000000000000 ) ) ;
#655 = EDGE_CURVE ( 'NONE', #1212, #1060, #1155, .T. ) ;
#656 = ORIENTED_EDGE ( 'NONE', *, *, #174, .F. ) ;
#657 = VERTEX_POINT ( 'NONE', #1239 ) ;
#658 = LINE ( 'NONE', #664, #1250 ) ;
#659 = CARTESIAN_POINT ( 'NONE',  ( -6.149999999999995026, 13.07660624134118343, -21.00000000000000355 ) ) ;
#660 = CARTESIAN_POINT ( 'NONE',  ( 0.000000000000000000, 1.000000000000000888, -20.00000000000000355 ) ) ;
#661 = ORIENTED_EDGE ( 'NONE', *, *, #941, .T. ) ;
#662 = CIRCLE ( 'NONE', #828, 1.500000000000001332 ) ;
#663 = VERTEX_POINT ( 'NONE', #844 ) ;
#664 = CARTESIAN_POINT ( 'NONE',  ( -20.00000000000000000, 1.500000000000000000, 17.00000000000000000 ) ) ;
#665 = DIRECTION ( 'NONE',  ( 0.000000000000000000, -0.000000000000000000, 1.000000000000000000 ) ) ;
#666 = CARTESIAN_POINT ( 'NONE',  ( 7.750000000000000000, 13.07660624134118876, -21.00000000000000355 ) ) ;
#667 = AXIS2_PLACEMENT_3D ( 'NONE', #285, #190, #94 ) ;
#668 = ORIENTED_EDGE ( 'NONE', *, *, #795, .T. ) ;
#669 = APPLICATION_CONTEXT ( 'automotive_design' ) ;
#670 = EDGE_CURVE ( 'NONE', #1256, #943, #643, .T. ) ;
#671 = EDGE_LOOP ( 'NONE', ( #615, #275, #934, #497, #850, #204 ) ) ;
#672 = CARTESIAN_POINT ( 'NONE',  ( 20.00000000000000711, 1.000000000000000888, -21.00000000000000355 ) ) ;
#673 = EDGE_CURVE ( 'NONE', #642, #777, #923, .T. ) ;
#674 = EDGE_CURVE ( 'NONE', #30, #267, #262, .T. ) ;
#675 = DIRECTION ( 'NONE',  ( -1.756682000989171735E-16, 0.000000000000000000, -1.000000000000000000 ) ) ;
#676 = ORIENTED_EDGE ( 'NONE', *, *, #1129, .T. ) ;
#677 = FACE_OUTER_BOUND ( 'NONE', #1174, .T. ) ;
#678 = ORIENTED_EDGE ( 'NONE', *, *, #1003, .T. ) ;
#679 = DIRECTION ( 'NONE',  ( 1.756682000989171735E-16, -0.000000000000000000, -1.000000000000000000 ) ) ;
#680 = DIRECTION ( 'NONE',  ( -1.000000000000000000, 0.000000000000000000, 0.000000000000000000 ) ) ;
#681 = VERTEX_POINT ( 'NONE', #672 ) ;
#682 = AXIS2_PLACEMENT_3D ( 'NONE', #903, #1127, #633 ) ;
#683 = CARTESIAN_POINT ( 'NONE',  ( 15.00000000000000000, 1.500000000000000000, 13.50000000000000178 ) ) ;
#684 = ORIENTED_EDGE ( 'NONE', *, *, #861, .T. ) ;
#685 = AXIS2_PLACEMENT_3D ( 'NONE', #1104, #214, #15 ) ;
#686 = CYLINDRICAL_SURFACE ( 'NONE', #313, 1.500000000000001332 ) ;
#687 = ORIENTED_EDGE ( 'NONE', *, *, #186, .T. ) ;
#688 = AXIS2_PLACEMENT_3D ( 'NONE', #753, #854, #84 ) ;
#689 = VECTOR ( 'NONE', #365, 1000.000000000000000 ) ;
#690 = DIRECTION ( 'NONE',  ( 0.000000000000000000, 0.000000000000000000, -1.000000000000000000 ) ) ;
#691 = ORIENTED_EDGE ( 'NONE', *, *, #704, .T. ) ;
#692 = LINE ( 'NONE', #800, #707 ) ;
#693 = VERTEX_POINT ( 'NONE', #767 ) ;
#694 = DIRECTION ( 'NONE',  ( 1.756682000989171735E-16, 0.000000000000000000, 1.000000000000000000 ) ) ;
#695 = VECTOR ( 'NONE', #430, 1000.000000000000000 ) ;
#696 = EDGE_LOOP ( 'NONE', ( #194, #726, #785, #817 ) ) ;
#697 = MECHANICAL_DESIGN_GEOMETRIC_PRESENTATION_REPRESENTATION (  '', ( #527 ), #883 ) ;
#698 = CARTESIAN_POINT ( 'NONE',  ( -20.00000000000000711, 1.500000000000000000, -19.00000000000000355 ) ) ;
#699 = CARTESIAN_POINT ( 'NONE',  ( -20.00000000000000711, 2.000000000000000000, -19.00000000000000355 ) ) ;
#700 = DIRECTION ( 'NONE',  ( 1.000000000000000000, 0.000000000000000000, 0.000000000000000000 ) ) ;
#701 = ORIENTED_EDGE ( 'NONE', *, *, #629, .F. ) ;
#702 = CARTESIAN_POINT ( 'NONE',  ( 6.500000000000000888, 33.49999999999998579, -19.50000000000000355 ) ) ;
#703 = CARTESIAN_POINT ( 'NONE',  ( 17.00000000000000355, 1.500000000000000000, 19.99999999999999645 ) ) ;
#704 = EDGE_CURVE ( 'NONE', #880, #504, #157, .T. ) ;
#705 = CARTESIAN_POINT ( 'NONE',  ( 20.00000000000000711, 0.000000000000000000, -20.00000000000000355 ) ) ;
#706 = VERTEX_POINT ( 'NONE', #963 ) ;
#707 = VECTOR ( 'NONE', #709, 1000.000000000000000 ) ;
#708 = ADVANCED_FACE ( 'NONE', ( #1056 ), #1175, .F. ) ;
#709 = DIRECTION ( 'NONE',  ( 0.000000000000000000, -1.000000000000000000, 0.000000000000000000 ) ) ;
#710 = CARTESIAN_POINT ( 'NONE',  ( -7.750000000000003553, 39.92339375865878992, -19.50000000000000355 ) ) ;
#711 = DIRECTION ( 'NONE',  ( 0.000000000000000000, 0.000000000000000000, 1.000000000000000000 ) ) ;
#712 = ORIENTED_EDGE ( 'NONE', *, *, #941, .F. ) ;
#713 = VECTOR ( 'NONE', #679, 1000.000000000000000 ) ;
#714 = EDGE_CURVE ( 'NONE', #176, #857, #372, .T. ) ;
#715 = CARTESIAN_POINT ( 'NONE',  ( 6.150000000000000355, 13.07660624134118876, -21.00000000000000355 ) ) ;
#716 = DIRECTION ( 'NONE',  ( -0.000000000000000000, -1.000000000000000000, -0.000000000000000000 ) ) ;
#717 = CARTESIAN_POINT ( 'NONE',  ( 20.00000000000000711, 26.50000000000000000, -19.50000000000000355 ) ) ;
#718 = VERTEX_POINT ( 'NONE', #1069 ) ;
#719 = CARTESIAN_POINT ( 'NONE',  ( -15.00000000000000000, 1.500000000000000000, 12.00000000000000000 ) ) ;
#720 = CIRCLE ( 'NONE', #166, 1.500000000000001332 ) ;
#721 = CARTESIAN_POINT ( 'NONE',  ( 17.00000000000000000, 1.500000000000000000, 17.00000000000000000 ) ) ;
#722 = COLOUR_RGB ( '',0.1490196078431372528, 0.1490196078431372528, 0.1490196078431372528 ) ;
#723 = EDGE_CURVE ( 'NONE', #85, #361, #147, .T. ) ;
#724 = CARTESIAN_POINT ( 'NONE',  ( 9.349999999999994316, 39.92339375865878992, -19.50000000000000355 ) ) ;
#725 = CARTESIAN_POINT ( 'NONE',  ( -9.349999999999999645, 13.07660624134118343, -19.50000000000000355 ) ) ;
#726 = ORIENTED_EDGE ( 'NONE', *, *, #1214, .T. ) ;
#727 = CIRCLE ( 'NONE', #171, 1.500000000000001332 ) ;
#728 = DIRECTION ( 'NONE',  ( 0.000000000000000000, -1.000000000000000000, 0.000000000000000000 ) ) ;
#729 = DIRECTION ( 'NONE',  ( 0.000000000000000000, 0.000000000000000000, -1.000000000000000000 ) ) ;
#730 = EDGE_CURVE ( 'NONE', #1095, #718, #658, .T. ) ;
#731 = EDGE_CURVE ( 'NONE', #1145, #826, #1257, .T. ) ;
#732 = DIRECTION ( 'NONE',  ( 1.000000000000000000, -0.000000000000000000, -0.000000000000000000 ) ) ;
#733 = ORIENTED_EDGE ( 'NONE', *, *, #770, .F. ) ;
#734 = DIRECTION ( 'NONE',  ( -1.000000000000000000, 0.000000000000000000, 0.000000000000000000 ) ) ;
#735 = DIRECTION ( 'NONE',  ( 0.000000000000000000, 1.000000000000000000, 0.000000000000000000 ) ) ;
#736 = FACE_OUTER_BOUND ( 'NONE', #671, .T. ) ;
#737 = EDGE_LOOP ( 'NONE', ( #541, #1263 ) ) ;
#738 = SURFACE_SIDE_STYLE ('',( #1132 ) ) ;
#739 = DIRECTION ( 'NONE',  ( 0.000000000000000000, 0.000000000000000000, 1.000000000000000000 ) ) ;
#740 = DIRECTION ( 'NONE',  ( 3.097720492815728152E-16, 1.000000000000000000, -0.000000000000000000 ) ) ;
#741 = DIRECTION ( 'NONE',  ( 0.000000000000000000, -1.000000000000000000, 0.000000000000000000 ) ) ;
#742 = ORIENTED_EDGE ( 'NONE', *, *, #51, .F. ) ;
#743 = CARTESIAN_POINT ( 'NONE',  ( -20.00000000000000711, 0.000000000000000000, -19.50000000000000355 ) ) ;
#744 = CARTESIAN_POINT ( 'NONE',  ( 0.000000000000000000, 26.49999999999999289, -21.00000000000000355 ) ) ;
#745 = ADVANCED_FACE ( 'NONE', ( #851, #471, #1252, #357, #561, #459, #178, #1269 ), #466, .T. ) ;
#746 = ADVANCED_FACE ( 'NONE', ( #773 ), #376, .T. ) ;
#747 = VECTOR ( 'NONE', #1283, 1000.000000000000000 ) ;
#748 = ORIENTED_EDGE ( 'NONE', *, *, #714, .F. ) ;
#749 = VERTEX_POINT ( 'NONE', #867 ) ;
#750 = ORIENTED_EDGE ( 'NONE', *, *, #438, .T. ) ;
#751 = CARTESIAN_POINT ( 'NONE',  ( 0.000000000000000000, 26.49999999999999289, -19.50000000000000355 ) ) ;
#752 = DIRECTION ( 'NONE',  ( -0.000000000000000000, -0.000000000000000000, 1.000000000000000000 ) ) ;
#753 = CARTESIAN_POINT ( 'NONE',  ( -15.50000000000000000, 26.49999999999999645, -21.00000000000000355 ) ) ;
#754 = AXIS2_PLACEMENT_3D ( 'NONE', #744, #1149, #1050 ) ;
#755 = VECTOR ( 'NONE', #446, 1000.000000000000000 ) ;
#756 = VERTEX_POINT ( 'NONE', #1264 ) ;
#757 = AXIS2_PLACEMENT_3D ( 'NONE', #1080, #1, #1279 ) ;
#758 = ORIENTED_EDGE ( 'NONE', *, *, #265, .F. ) ;
#759 = DIRECTION ( 'NONE',  ( 1.000000000000000000, 0.000000000000000000, -0.000000000000000000 ) ) ;
#760 = PLANE ( 'NONE',  #591 ) ;
#761 = FACE_OUTER_BOUND ( 'NONE', #955, .T. ) ;
#762 = ADVANCED_FACE ( 'NONE', ( #572 ), #595, .F. ) ;
#763 = ORIENTED_EDGE ( 'NONE', *, *, #965, .T. ) ;
#764 = EDGE_CURVE ( 'NONE', #663, #1124, #116, .T. ) ;
#765 = EDGE_CURVE ( 'NONE', #663, #1095, #876, .T. ) ;
#766 = ORIENTED_EDGE ( 'NONE', *, *, #610, .F. ) ;
#767 = CARTESIAN_POINT ( 'NONE',  ( -6.499999999999995559, 33.49999999999999289, -21.00000000000000355 ) ) ;
#768 = DIRECTION ( 'NONE',  ( 0.000000000000000000, 0.000000000000000000, -1.000000000000000000 ) ) ;
#769 = EDGE_LOOP ( 'NONE', ( #457, #401, #552, #993 ) ) ;
#770 = EDGE_CURVE ( 'NONE', #1151, #233, #583, .T. ) ;
#771 = FACE_OUTER_BOUND ( 'NONE', #348, .T. ) ;
#772 = ORIENTED_EDGE ( 'NONE', *, *, #274, .T. ) ;
#773 = FACE_OUTER_BOUND ( 'NONE', #769, .T. ) ;
#774 = PLANE ( 'NONE',  #1019 ) ;
#775 = VERTEX_POINT ( 'NONE', #606 ) ;
#776 = LINE ( 'NONE', #105, #1169 ) ;
#777 = VERTEX_POINT ( 'NONE', #492 ) ;
#778 = EDGE_CURVE ( 'NONE', #1190, #364, #1207, .T. ) ;
#779 = EDGE_CURVE ( 'NONE', #240, #95, #1181, .T. ) ;
#780 = CARTESIAN_POINT ( 'NONE',  ( -20.00000000000000711, 1.000000000000000888, -21.00000000000000355 ) ) ;
#781 = ORIENTED_EDGE ( 'NONE', *, *, #1054, .T. ) ;
#782 = AXIS2_PLACEMENT_3D ( 'NONE', #444, #252, #35 ) ;
#783 = PRESENTATION_LAYER_ASSIGNMENT (  '', '', ( #1138 ) ) ;
#784 = DIRECTION ( 'NONE',  ( 1.000000000000000000, 0.000000000000000000, 0.000000000000000000 ) ) ;
#785 = ORIENTED_EDGE ( 'NONE', *, *, #341, .F. ) ;
#786 = ORIENTED_EDGE ( 'NONE', *, *, #1061, .F. ) ;
#787 = ADVANCED_FACE ( 'NONE', ( #794 ), #216, .F. ) ;
#788 = CYLINDRICAL_SURFACE ( 'NONE', #195, 1.600000000000000755 ) ;
#789 = ORIENTED_EDGE ( 'NONE', *, *, #898, .T. ) ;
#790 = CIRCLE ( 'NONE', #393, 1.599999999999998979 ) ;
#791 = AXIS2_PLACEMENT_3D ( 'NONE', #473, #1271, #264 ) ;
#792 = CARTESIAN_POINT ( 'NONE',  ( -7.750000000000003553, 39.92339375865878992, -19.50000000000000355 ) ) ;
#793 = ORIENTED_EDGE ( 'NONE', *, *, #704, .F. ) ;
#794 = FACE_OUTER_BOUND ( 'NONE', #463, .T. ) ;
#795 = EDGE_CURVE ( 'NONE', #985, #1251, #913, .T. ) ;
#796 = CARTESIAN_POINT ( 'NONE',  ( 15.00000000000000000, 1.500000000000000000, -12.00000000000000000 ) ) ;
#797 = CARTESIAN_POINT ( 'NONE',  ( 7.749999999999994671, 39.92339375865878992, -21.00000000000000355 ) ) ;
#798 = ORIENTED_EDGE ( 'NONE', *, *, #1016, .T. ) ;
#799 = CIRCLE ( 'NONE', #1198, 1.600000000000002531 ) ;
#800 = CARTESIAN_POINT ( 'NONE',  ( 20.00000000000000711, 26.50000000000000000, -21.00000000000000355 ) ) ;
#801 = EDGE_CURVE ( 'NONE', #115, #826, #300, .T. ) ;
#802 =( NAMED_UNIT ( * ) PLANE_ANGLE_UNIT ( ) SI_UNIT ( $, .RADIAN. ) );
#803 = ADVANCED_FACE ( 'NONE', ( #390 ), #788, .F. ) ;
#804 = CARTESIAN_POINT ( 'NONE',  ( 15.00000000000000000, 0.000000000000000000, -12.00000000000000000 ) ) ;
#805 = DIRECTION ( 'NONE',  ( 1.756682000989171735E-16, 0.000000000000000000, 1.000000000000000000 ) ) ;
#806 = VERTEX_POINT ( 'NONE', #698 ) ;
#807 = AXIS2_PLACEMENT_3D ( 'NONE', #895, #2, #1109 ) ;
#808 = LINE ( 'NONE', #897, #878 ) ;
#809 = SURFACE_STYLE_FILL_AREA ( #1015 ) ;
#810 = FACE_OUTER_BOUND ( 'NONE', #866, .T. ) ;
#811 = AXIS2_PLACEMENT_3D ( 'NONE', #312, #887, #986 ) ;
#812 = FACE_OUTER_BOUND ( 'NONE', #696, .T. ) ;
#813 = ORIENTED_EDGE ( 'NONE', *, *, #714, .T. ) ;
#814 = DIRECTION ( 'NONE',  ( 0.000000000000000000, 0.000000000000000000, -1.000000000000000000 ) ) ;
#815 = CARTESIAN_POINT ( 'NONE',  ( 15.00000000000000000, 1.500000000000000000, 12.00000000000000000 ) ) ;
#816 = CARTESIAN_POINT ( 'NONE',  ( -13.89999999999999680, 26.49999999999999645, -21.00000000000000355 ) ) ;
#817 = ORIENTED_EDGE ( 'NONE', *, *, #383, .F. ) ;
#818 = CIRCLE ( 'NONE', #1027, 1.600000000000002531 ) ;
#819 = EDGE_CURVE ( 'NONE', #421, #777, #808, .T. ) ;
#820 = AXIS2_PLACEMENT_3D ( 'NONE', #349, #1220, #821 ) ;
#821 = DIRECTION ( 'NONE',  ( 0.000000000000000000, 0.000000000000000000, -1.000000000000000000 ) ) ;
#822 = CARTESIAN_POINT ( 'NONE',  ( 15.50000000000000000, 26.50000000000000000, -19.50000000000000355 ) ) ;
#823 = SURFACE_STYLE_USAGE ( .BOTH. , #112 ) ;
#824 = CARTESIAN_POINT ( 'NONE',  ( -15.00000000000000000, 1.500000000000000000, -12.00000000000000000 ) ) ;
#825 = LINE ( 'NONE', #218, #907 ) ;
#826 = VERTEX_POINT ( 'NONE', #1188 ) ;
#827 = CARTESIAN_POINT ( 'NONE',  ( -15.00000000000000000, 1.500000000000000000, -13.50000000000000178 ) ) ;
#828 = AXIS2_PLACEMENT_3D ( 'NONE', #942, #1237, #1130 ) ;
#829 = DIRECTION ( 'NONE',  ( 0.000000000000000000, 0.000000000000000000, -1.000000000000000000 ) ) ;
#830 = EDGE_CURVE ( 'NONE', #176, #681, #692, .T. ) ;
#831 = CARTESIAN_POINT ( 'NONE',  ( 15.00000000000000000, 0.000000000000000000, 13.50000000000000178 ) ) ;
#832 = VECTOR ( 'NONE', #213, 1000.000000000000000 ) ;
#833 = ORIENTED_EDGE ( 'NONE', *, *, #404, .F. ) ;
#834 = DIRECTION ( 'NONE',  ( -1.000000000000000000, 0.000000000000000000, 0.000000000000000000 ) ) ;
#835 = CARTESIAN_POINT ( 'NONE',  ( 13.89999999999999680, 26.50000000000000000, -21.00000000000000355 ) ) ;
#836 = ORIENTED_EDGE ( 'NONE', *, *, #859, .T. ) ;
#837 = DIRECTION ( 'NONE',  ( 0.000000000000000000, 0.000000000000000000, -1.000000000000000000 ) ) ;
#838 = DIRECTION ( 'NONE',  ( 0.000000000000000000, 0.000000000000000000, -1.000000000000000000 ) ) ;
#839 = ORIENTED_EDGE ( 'NONE', *, *, #600, .T. ) ;
#840 = ADVANCED_FACE ( 'NONE', ( #1088 ), #686, .F. ) ;
#841 = EDGE_CURVE ( 'NONE', #928, #504, #611, .T. ) ;
#842 = DIRECTION ( 'NONE',  ( 1.000000000000000000, -0.000000000000000000, 1.756682000989171735E-16 ) ) ;
#843 = ORIENTED_EDGE ( 'NONE', *, *, #636, .F. ) ;
#844 = CARTESIAN_POINT ( 'NONE',  ( -17.00000000000000000, 0.000000000000000000, 19.99999999999999645 ) ) ;
#845 = CARTESIAN_POINT ( 'NONE',  ( 0.000000000000000000, 26.49999999999999289, -21.00000000000000355 ) ) ;
#846 = AXIS2_PLACEMENT_3D ( 'NONE', #797, #1199, #700 ) ;
#847 = VERTEX_POINT ( 'NONE', #109 ) ;
#848 = ORIENTED_EDGE ( 'NONE', *, *, #841, .T. ) ;
#849 = CARTESIAN_POINT ( 'NONE',  ( 15.00000000000000000, 1.500000000000000000, 12.00000000000000000 ) ) ;
#850 = ORIENTED_EDGE ( 'NONE', *, *, #534, .T. ) ;
#851 = FACE_BOUND ( 'NONE', #74, .T. ) ;
#852 = FACE_OUTER_BOUND ( 'NONE', #1052, .T. ) ;
#853 = AXIS2_PLACEMENT_3D ( 'NONE', #666, #468, #881 ) ;
#854 = DIRECTION ( 'NONE',  ( 0.000000000000000000, 0.000000000000000000, -1.000000000000000000 ) ) ;
#855 = ORIENTED_EDGE ( 'NONE', *, *, #778, .F. ) ;
#856 = ORIENTED_EDGE ( 'NONE', *, *, #859, .F. ) ;
#857 = VERTEX_POINT ( 'NONE', #205 ) ;
#858 = DIRECTION ( 'NONE',  ( 0.000000000000000000, 0.000000000000000000, 1.000000000000000000 ) ) ;
#859 = EDGE_CURVE ( 'NONE', #693, #578, #148, .T. ) ;
#860 = CARTESIAN_POINT ( 'NONE',  ( -15.00000000000000000, 1.500000000000000000, -13.50000000000000178 ) ) ;
#861 = EDGE_CURVE ( 'NONE', #490, #1256, #479, .T. ) ;
#862 = LINE ( 'NONE', #569, #62 ) ;
#863 = VECTOR ( 'NONE', #161, 1000.000000000000000 ) ;
#864 = ORIENTED_EDGE ( 'NONE', *, *, #475, .F. ) ;
#865 = AXIS2_PLACEMENT_3D ( 'NONE', #80, #1274, #690 ) ;
#866 = EDGE_LOOP ( 'NONE', ( #984, #286, #387, #54 ) ) ;
#867 = CARTESIAN_POINT ( 'NONE',  ( -6.500000000000000000, 19.50000000000000000, -19.50000000000000355 ) ) ;
#868 = FACE_OUTER_BOUND ( 'NONE', #244, .T. ) ;
#869 = EDGE_CURVE ( 'NONE', #756, #294, #1209, .T. ) ;
#870 = EDGE_LOOP ( 'NONE', ( #219, #576, #443, #1117 ) ) ;
#871 = ADVANCED_FACE ( 'NONE', ( #937 ), #538, .F. ) ;
#872 = AXIS2_PLACEMENT_3D ( 'NONE', #1217, #316, #914 ) ;
#873 = ORIENTED_EDGE ( 'NONE', *, *, #52, .T. ) ;
#874 = DIRECTION ( 'NONE',  ( -3.097720492815729138E-16, -1.000000000000000000, 0.000000000000000000 ) ) ;
#875 = CARTESIAN_POINT ( 'NONE',  ( 15.00000000000000000, 1.500000000000000000, 13.50000000000000178 ) ) ;
#876 = CIRCLE ( 'NONE', #193, 2.999999999999999112 ) ;
#877 = EDGE_LOOP ( 'NONE', ( #432, #199 ) ) ;
#878 = VECTOR ( 'NONE', #1206, 1000.000000000000000 ) ;
#879 = FACE_OUTER_BOUND ( 'NONE', #202, .T. ) ;
#880 = VERTEX_POINT ( 'NONE', #42 ) ;
#881 = DIRECTION ( 'NONE',  ( -1.000000000000000000, 0.000000000000000000, 0.000000000000000000 ) ) ;
#882 = ORIENTED_EDGE ( 'NONE', *, *, #819, .T. ) ;
#883 =( GEOMETRIC_REPRESENTATION_CONTEXT ( 3 ) GLOBAL_UNCERTAINTY_ASSIGNED_CONTEXT ( ( #111 ) ) GLOBAL_UNIT_ASSIGNED_CONTEXT ( ( #433, #1028, #651 ) ) REPRESENTATION_CONTEXT ( 'NONE', 'WORKASPACE' ) );
#884 = DIRECTION ( 'NONE',  ( 1.000000000000000000, 0.000000000000000000, 0.000000000000000000 ) ) ;
#885 = VERTEX_POINT ( 'NONE', #1234 ) ;
#886 = ORIENTED_EDGE ( 'NONE', *, *, #326, .F. ) ;
#887 = DIRECTION ( 'NONE',  ( -0.000000000000000000, -1.000000000000000000, -0.000000000000000000 ) ) ;
#888 = ORIENTED_EDGE ( 'NONE', *, *, #965, .F. ) ;
#889 = PRODUCT_DEFINITION_SHAPE ( 'NONE', 'NONE',  #429 ) ;
#890 = CIRCLE ( 'NONE', #328, 1.500000000000001332 ) ;
#891 = DIRECTION ( 'NONE',  ( 0.000000000000000000, 0.000000000000000000, -1.000000000000000000 ) ) ;
#892 = VERTEX_POINT ( 'NONE', #930 ) ;
#893 = DIRECTION ( 'NONE',  ( 0.000000000000000000, 0.000000000000000000, 1.000000000000000000 ) ) ;
#894 = FACE_OUTER_BOUND ( 'NONE', #1275, .T. ) ;
#895 = CARTESIAN_POINT ( 'NONE',  ( 15.00000000000000000, 1.500000000000000000, -12.00000000000000000 ) ) ;
#896 = ORIENTED_EDGE ( 'NONE', *, *, #550, .F. ) ;
#897 = CARTESIAN_POINT ( 'NONE',  ( 15.00000000000000000, 1.500000000000000000, -13.50000000000000178 ) ) ;
#898 = EDGE_CURVE ( 'NONE', #395, #1185, #936, .T. ) ;
#899 = PLANE ( 'NONE',  #403 ) ;
#900 = CARTESIAN_POINT ( 'NONE',  ( 15.00000000000000000, 1.500000000000000000, -12.00000000000000000 ) ) ;
#901 = VERTEX_POINT ( 'NONE', #242 ) ;
#902 = CARTESIAN_POINT ( 'NONE',  ( -15.00000000000000000, 0.000000000000000000, 12.00000000000000000 ) ) ;
#903 = CARTESIAN_POINT ( 'NONE',  ( 7.750000000000000000, 13.07660624134118876, -21.00000000000000355 ) ) ;
#904 = DIRECTION ( 'NONE',  ( 0.000000000000000000, 0.000000000000000000, 1.000000000000000000 ) ) ;
#905 = DIRECTION ( 'NONE',  ( -1.000000000000000000, 0.000000000000000000, 0.000000000000000000 ) ) ;
#906 = EDGE_LOOP ( 'NONE', ( #249, #458, #121, #758 ) ) ;
#907 = VECTOR ( 'NONE', #905, 1000.000000000000000 ) ;
#908 = CARTESIAN_POINT ( 'NONE',  ( 15.00000000000000000, 1.500000000000000000, 12.00000000000000000 ) ) ;
#909 = DIRECTION ( 'NONE',  ( 0.000000000000000000, 0.000000000000000000, 1.000000000000000000 ) ) ;
#910 = EDGE_CURVE ( 'NONE', #706, #354, #1133, .T. ) ;
#911 = DIRECTION ( 'NONE',  ( -0.000000000000000000, -0.000000000000000000, 1.000000000000000000 ) ) ;
#912 = CIRCLE ( 'NONE', #352, 1.500000000000001332 ) ;
#913 = CIRCLE ( 'NONE', #517, 1.500000000000001332 ) ;
#914 = DIRECTION ( 'NONE',  ( 1.000000000000000000, 0.000000000000000000, 0.000000000000000000 ) ) ;
#915 = VERTEX_POINT ( 'NONE', #423 ) ;
#916 = AXIS2_PLACEMENT_3D ( 'NONE', #998, #501, #1201 ) ;
#917 = CARTESIAN_POINT ( 'NONE',  ( 7.749999999999994671, 39.92339375865878992, -21.00000000000000355 ) ) ;
#918 = PRODUCT_CONTEXT ( 'NONE', #1067, 'mechanical' ) ;
#919 = FACE_OUTER_BOUND ( 'NONE', #1041, .T. ) ;
#920 = CARTESIAN_POINT ( 'NONE',  ( -20.00000000000000711, 0.000000000000000000, -19.50000000000000355 ) ) ;
#921 = ORIENTED_EDGE ( 'NONE', *, *, #461, .T. ) ;
#922 = CIRCLE ( 'NONE', #1258, 2.999999999999999112 ) ;
#923 = CIRCLE ( 'NONE', #547, 1.500000000000001332 ) ;
#924 = CARTESIAN_POINT ( 'NONE',  ( 20.00000000000000000, 0.000000000000000000, 17.00000000000000000 ) ) ;
#925 = CARTESIAN_POINT ( 'NONE',  ( -15.00000000000000000, 1.500000000000000000, -10.49999999999999822 ) ) ;
#926 = AXIS2_PLACEMENT_3D ( 'NONE', #339, #524, #160 ) ;
#927 = LINE ( 'NONE', #634, #389 ) ;
#928 = VERTEX_POINT ( 'NONE', #925 ) ;
#929 = DIRECTION ( 'NONE',  ( 0.000000000000000000, 0.000000000000000000, 1.000000000000000000 ) ) ;
#930 = CARTESIAN_POINT ( 'NONE',  ( -15.00000000000000000, 1.500000000000000000, 10.49999999999999822 ) ) ;
#931 = ADVANCED_FACE ( 'NONE', ( #1126 ), #132, .F. ) ;
#932 = CARTESIAN_POINT ( 'NONE',  ( -17.00000000000000000, 1.500000000000000000, 19.99999999999999645 ) ) ;
#933 = DIRECTION ( 'NONE',  ( 0.000000000000000000, 0.000000000000000000, -1.000000000000000000 ) ) ;
#934 = ORIENTED_EDGE ( 'NONE', *, *, #450, .T. ) ;
#935 = DIRECTION ( 'NONE',  ( -0.000000000000000000, -1.000000000000000000, -0.000000000000000000 ) ) ;
#936 = CIRCLE ( 'NONE', #1102, 1.600000000000000755 ) ;
#937 = FACE_OUTER_BOUND ( 'NONE', #261, .T. ) ;
#938 = PRODUCT ( '37\X2\7535673a652f67b6\X0\', '37\X2\7535673a652f67b6\X0\', '', ( #918 ) ) ;
#939 = EDGE_CURVE ( 'NONE', #847, #30, #1270, .T. ) ;
#940 = CARTESIAN_POINT ( 'NONE',  ( -6.499999999999995559, 33.49999999999999289, -21.00000000000000355 ) ) ;
#941 = EDGE_CURVE ( 'NONE', #1218, #943, #416, .T. ) ;
#942 = CARTESIAN_POINT ( 'NONE',  ( -15.00000000000000000, 1.500000000000000000, -12.00000000000000000 ) ) ;
#943 = VERTEX_POINT ( 'NONE', #34 ) ;
#944 = CARTESIAN_POINT ( 'NONE',  ( -7.749999999999996447, 13.07660624134118343, -19.50000000000000355 ) ) ;
#945 = CARTESIAN_POINT ( 'NONE',  ( 6.500000000000000888, 33.49999999999998579, -21.00000000000000355 ) ) ;
#946 = EDGE_LOOP ( 'NONE', ( #593, #1053, #1280, #864 ) ) ;
#947 = ORIENTED_EDGE ( 'NONE', *, *, #102, .F. ) ;
#948 = CARTESIAN_POINT ( 'NONE',  ( -20.00000000000000711, 26.50000000000000000, -19.50000000000000355 ) ) ;
#949 = EDGE_LOOP ( 'NONE', ( #691, #324 ) ) ;
#950 = FACE_OUTER_BOUND ( 'NONE', #556, .T. ) ;
#951 = FACE_BOUND ( 'NONE', #609, .T. ) ;
#952 = FACE_OUTER_BOUND ( 'NONE', #3, .T. ) ;
#953 = CARTESIAN_POINT ( 'NONE',  ( 20.00000000000000000, 1.500000000000000000, 17.00000000000000000 ) ) ;
#954 = ORIENTED_EDGE ( 'NONE', *, *, #764, .T. ) ;
#955 = EDGE_LOOP ( 'NONE', ( #177, #332, #474, #566 ) ) ;
#956 = CARTESIAN_POINT ( 'NONE',  ( -15.00000000000000000, 0.000000000000000000, -12.00000000000000000 ) ) ;
#957 = CIRCLE ( 'NONE', #565, 1.599999999999999867 ) ;
#958 = DIRECTION ( 'NONE',  ( -0.000000000000000000, -0.000000000000000000, 1.000000000000000000 ) ) ;
#959 = AXIS2_PLACEMENT_3D ( 'NONE', #1163, #72, #462 ) ;
#960 = DIRECTION ( 'NONE',  ( 1.000000000000000000, 0.000000000000000000, -1.756682000989171735E-16 ) ) ;
#961 = ORIENTED_EDGE ( 'NONE', *, *, #801, .T. ) ;
#962 = ORIENTED_EDGE ( 'NONE', *, *, #574, .F. ) ;
#963 = CARTESIAN_POINT ( 'NONE',  ( -6.150000000000003020, 39.92339375865878992, -21.00000000000000355 ) ) ;
#964 = EDGE_CURVE ( 'NONE', #89, #1137, #586, .T. ) ;
#965 = EDGE_CURVE ( 'NONE', #693, #1278, #1119, .T. ) ;
#966 = CYLINDRICAL_SURFACE ( 'NONE', #293, 1.600000000000002531 ) ;
#967 = ORIENTED_EDGE ( 'NONE', *, *, #207, .F. ) ;
#968 = CIRCLE ( 'NONE', #594, 1.500000000000001332 ) ;
#969 = ORIENTED_EDGE ( 'NONE', *, *, #32, .T. ) ;
#970 = DIRECTION ( 'NONE',  ( 0.000000000000000000, 1.000000000000000000, 0.000000000000000000 ) ) ;
#971 = EDGE_CURVE ( 'NONE', #266, #857, #1154, .T. ) ;
#972 = DIRECTION ( 'NONE',  ( 0.000000000000000000, 1.000000000000000000, 0.000000000000000000 ) ) ;
#973 = EDGE_LOOP ( 'NONE', ( #750, #873, #257, #310 ) ) ;
#974 = VECTOR ( 'NONE', #29, 1000.000000000000000 ) ;
#975 = CYLINDRICAL_SURFACE ( 'NONE', #865, 0.5000000000000004441 ) ;
#976 = ORIENTED_EDGE ( 'NONE', *, *, #12, .F. ) ;
#977 = DIRECTION ( 'NONE',  ( 1.000000000000000000, 0.000000000000000000, 0.000000000000000000 ) ) ;
#978 = AXIS2_PLACEMENT_3D ( 'NONE', #956, #282, #64 ) ;
#979 = ORIENTED_EDGE ( 'NONE', *, *, #137, .F. ) ;
#980 = AXIS2_PLACEMENT_3D ( 'NONE', #917, #1044, #442 ) ;
#981 = EDGE_CURVE ( 'NONE', #504, #880, #1090, .T. ) ;
#982 = EDGE_CURVE ( 'NONE', #775, #642, #247, .T. ) ;
#983 = DIRECTION ( 'NONE',  ( 0.000000000000000000, 1.000000000000000000, 0.000000000000000000 ) ) ;
#984 = ORIENTED_EDGE ( 'NONE', *, *, #461, .F. ) ;
#985 = VERTEX_POINT ( 'NONE', #48 ) ;
#986 = DIRECTION ( 'NONE',  ( 0.000000000000000000, 0.000000000000000000, -1.000000000000000000 ) ) ;
#987 = ORIENTED_EDGE ( 'NONE', *, *, #670, .F. ) ;
#988 = AXIS2_PLACEMENT_3D ( 'NONE', #344, #1221, #1139 ) ;
#989 = VECTOR ( 'NONE', #637, 1000.000000000000000 ) ;
#990 = DIRECTION ( 'NONE',  ( -1.000000000000000000, 0.000000000000000000, 0.000000000000000000 ) ) ;
#991 = ORIENTED_EDGE ( 'NONE', *, *, #964, .F. ) ;
#992 = DIRECTION ( 'NONE',  ( 1.000000000000000000, 0.000000000000000000, 0.000000000000000000 ) ) ;
#993 = ORIENTED_EDGE ( 'NONE', *, *, #731, .T. ) ;
#994 = MECHANICAL_DESIGN_GEOMETRIC_PRESENTATION_REPRESENTATION (  '', ( #1138 ), #1034 ) ;
#995 = DIRECTION ( 'NONE',  ( -0.000000000000000000, -0.000000000000000000, 1.000000000000000000 ) ) ;
#996 = LINE ( 'NONE', #604, #974 ) ;
#997 = ORIENTED_EDGE ( 'NONE', *, *, #1061, .T. ) ;
#998 = CARTESIAN_POINT ( 'NONE',  ( 7.750000000000000000, 13.07660624134118876, -21.00000000000000355 ) ) ;
#999 = CIRCLE ( 'NONE', #273, 1.600000000000000755 ) ;
#1000 = CYLINDRICAL_SURFACE ( 'NONE', #667, 1.600000000000001643 ) ;
#1001 = DIRECTION ( 'NONE',  ( 1.000000000000000000, 0.000000000000000000, 0.000000000000000000 ) ) ;
#1002 = ORIENTED_EDGE ( 'NONE', *, *, #1112, .F. ) ;
#1003 = EDGE_CURVE ( 'NONE', #233, #1151, #90, .T. ) ;
#1004 = CARTESIAN_POINT ( 'NONE',  ( -15.00000000000000000, 1.500000000000000000, -10.49999999999999822 ) ) ;
#1005 = PLANE ( 'NONE',  #229 ) ;
#1006 = DIRECTION ( 'NONE',  ( 0.000000000000000000, 0.000000000000000000, -1.000000000000000000 ) ) ;
#1007 = EDGE_LOOP ( 'NONE', ( #1182, #130, #961, #1193 ) ) ;
#1008 = DIRECTION ( 'NONE',  ( 0.000000000000000000, 0.000000000000000000, -1.000000000000000000 ) ) ;
#1009 =( NAMED_UNIT ( * ) SI_UNIT ( $, .STERADIAN. ) SOLID_ANGLE_UNIT ( ) );
#1010 = CARTESIAN_POINT ( 'NONE',  ( 0.000000000000000000, 0.000000000000000000, 0.000000000000000000 ) ) ;
#1011 = CIRCLE ( 'NONE', #55, 6.499999999999998224 ) ;
#1012 = CARTESIAN_POINT ( 'NONE',  ( 6.500000000000000888, 33.49999999999998579, -19.50000000000000355 ) ) ;
#1013 = EDGE_LOOP ( 'NONE', ( #191, #485 ) ) ;
#1014 = DIRECTION ( 'NONE',  ( 0.000000000000000000, 1.000000000000000000, 0.000000000000000000 ) ) ;
#1015 = FILL_AREA_STYLE ('',( #117 ) ) ;
#1016 = EDGE_CURVE ( 'NONE', #490, #1218, #532, .T. ) ;
#1017 = EDGE_CURVE ( 'NONE', #578, #115, #434, .T. ) ;
#1018 = LINE ( 'NONE', #703, #335 ) ;
#1019 = AXIS2_PLACEMENT_3D ( 'NONE', #1059, #960, #675 ) ;
#1020 = FACE_OUTER_BOUND ( 'NONE', #107, .T. ) ;
#1021 = ORIENTED_EDGE ( 'NONE', *, *, #982, .F. ) ;
#1022 = FACE_OUTER_BOUND ( 'NONE', #16, .T. ) ;
#1023 = CARTESIAN_POINT ( 'NONE',  ( 15.00000000000000000, 1.500000000000000000, -10.49999999999999822 ) ) ;
#1024 =( LENGTH_UNIT ( ) NAMED_UNIT ( * ) SI_UNIT ( .MILLI., .METRE. ) );
#1025 = DIRECTION ( 'NONE',  ( -0.000000000000000000, -0.000000000000000000, 1.000000000000000000 ) ) ;
#1026 = DIRECTION ( 'NONE',  ( 0.000000000000000000, -1.000000000000000000, 0.000000000000000000 ) ) ;
#1027 = AXIS2_PLACEMENT_3D ( 'NONE', #145, #838, #1240 ) ;
#1028 =( NAMED_UNIT ( * ) PLANE_ANGLE_UNIT ( ) SI_UNIT ( $, .RADIAN. ) );
#1029 = CARTESIAN_POINT ( 'NONE',  ( 15.50000000000000000, 26.50000000000000000, -21.00000000000000355 ) ) ;
#1030 = CIRCLE ( 'NONE', #757, 6.499999999999998224 ) ;
#1031 = LINE ( 'NONE', #45, #557 ) ;
#1032 = ORIENTED_EDGE ( 'NONE', *, *, #612, .F. ) ;
#1033 = FILL_AREA_STYLE_COLOUR ( '', #1094 ) ;
#1034 =( GEOMETRIC_REPRESENTATION_CONTEXT ( 3 ) GLOBAL_UNCERTAINTY_ASSIGNED_CONTEXT ( ( #597 ) ) GLOBAL_UNIT_ASSIGNED_CONTEXT ( ( #19, #329, #417 ) ) REPRESENTATION_CONTEXT ( 'NONE', 'WORKASPACE' ) );
#1035 = DIRECTION ( 'NONE',  ( 0.000000000000000000, 0.000000000000000000, -1.000000000000000000 ) ) ;
#1036 = VECTOR ( 'NONE', #106, 1000.000000000000000 ) ;
#1037 = DIRECTION ( 'NONE',  ( 0.000000000000000000, 0.000000000000000000, -1.000000000000000000 ) ) ;
#1038 = AXIS2_PLACEMENT_3D ( 'NONE', #469, #1267, #647 ) ;
#1039 = FACE_OUTER_BOUND ( 'NONE', #906, .T. ) ;
#1040 = AXIS2_PLACEMENT_3D ( 'NONE', #453, #269, #1074 ) ;
#1041 = EDGE_LOOP ( 'NONE', ( #947, #687, #766, #997, #170, #156 ) ) ;
#1042 = CARTESIAN_POINT ( 'NONE',  ( -15.50000000000000000, 26.49999999999999645, -19.50000000000000355 ) ) ;
#1043 = AXIS2_PLACEMENT_3D ( 'NONE', #201, #602, #1082 ) ;
#1044 = DIRECTION ( 'NONE',  ( -0.000000000000000000, -0.000000000000000000, 1.000000000000000000 ) ) ;
#1045 = ORIENTED_EDGE ( 'NONE', *, *, #674, .F. ) ;
#1046 = ORIENTED_EDGE ( 'NONE', *, *, #1172, .T. ) ;
#1047 = CARTESIAN_POINT ( 'NONE',  ( 20.00000000000000711, 1.000000000000000888, -20.00000000000000355 ) ) ;
#1048 = ORIENTED_EDGE ( 'NONE', *, *, #71, .F. ) ;
#1049 = PRESENTATION_STYLE_ASSIGNMENT (( #1244 ) ) ;
#1050 = DIRECTION ( 'NONE',  ( 1.000000000000000000, 0.000000000000000000, 0.000000000000000000 ) ) ;
#1051 = DIRECTION ( 'NONE',  ( 1.000000000000000000, 0.000000000000000000, 0.000000000000000000 ) ) ;
#1052 = EDGE_LOOP ( 'NONE', ( #1105, #427, #448, #68 ) ) ;
#1053 = ORIENTED_EDGE ( 'NONE', *, *, #125, .T. ) ;
#1054 = EDGE_CURVE ( 'NONE', #1171, #1246, #818, .T. ) ;
#1055 = ORIENTED_EDGE ( 'NONE', *, *, #612, .T. ) ;
#1056 = FACE_OUTER_BOUND ( 'NONE', #8, .T. ) ;
#1057 = FACE_BOUND ( 'NONE', #93, .T. ) ;
#1058 = VECTOR ( 'NONE', #551, 1000.000000000000000 ) ;
#1059 = CARTESIAN_POINT ( 'NONE',  ( -20.00000000000000711, 1.500000000000000000, -19.50000000000000355 ) ) ;
#1060 = VERTEX_POINT ( 'NONE', #152 ) ;
#1061 = EDGE_CURVE ( 'NONE', #570, #1124, #922, .T. ) ;
#1062 = ORIENTED_EDGE ( 'NONE', *, *, #534, .F. ) ;
#1063 = DIRECTION ( 'NONE',  ( -1.000000000000000000, 0.000000000000000000, -1.756682000989171735E-16 ) ) ;
#1064 = VECTOR ( 'NONE', #911, 1000.000000000000000 ) ;
#1065 = DIRECTION ( 'NONE',  ( 0.000000000000000000, 0.000000000000000000, 1.000000000000000000 ) ) ;
#1066 = ORIENTED_EDGE ( 'NONE', *, *, #236, .F. ) ;
#1067 = APPLICATION_CONTEXT ( 'automotive_design' ) ;
#1068 = ORIENTED_EDGE ( 'NONE', *, *, #318, .F. ) ;
#1069 = CARTESIAN_POINT ( 'NONE',  ( -20.00000000000000000, 1.500000000000000000, 17.00000000000000000 ) ) ;
#1070 = DIRECTION ( 'NONE',  ( -0.000000000000000000, -0.000000000000000000, 1.000000000000000000 ) ) ;
#1071 = ORIENTED_EDGE ( 'NONE', *, *, #137, .T. ) ;
#1072 = CYLINDRICAL_SURFACE ( 'NONE', #366, 1.500000000000001332 ) ;
#1073 = ORIENTED_EDGE ( 'NONE', *, *, #869, .F. ) ;
#1074 = DIRECTION ( 'NONE',  ( -1.000000000000000000, 0.000000000000000000, 0.000000000000000000 ) ) ;
#1075 = EDGE_CURVE ( 'NONE', #364, #1190, #259, .T. ) ;
#1076 = EDGE_CURVE ( 'NONE', #233, #89, #255, .T. ) ;
#1077 = CYLINDRICAL_SURFACE ( 'NONE', #791, 1.600000000000000755 ) ;
#1078 = VERTEX_POINT ( 'NONE', #367 ) ;
#1079 = CIRCLE ( 'NONE', #472, 2.999999999999999112 ) ;
#1080 = CARTESIAN_POINT ( 'NONE',  ( -1.782107708075647678E-15, 19.49999999999999645, -19.50000000000000355 ) ) ;
#1081 = VERTEX_POINT ( 'NONE', #860 ) ;
#1082 = DIRECTION ( 'NONE',  ( -1.000000000000000000, 0.000000000000000000, 0.000000000000000000 ) ) ;
#1083 = VECTOR ( 'NONE', #1277, 1000.000000000000000 ) ;
#1084 = AXIS2_PLACEMENT_3D ( 'NONE', #305, #1106, #92 ) ;
#1085 = ORIENTED_EDGE ( 'NONE', *, *, #51, .T. ) ;
#1086 = DIRECTION ( 'NONE',  ( -0.000000000000000000, -1.000000000000000000, -0.000000000000000000 ) ) ;
#1087 = ORIENTED_EDGE ( 'NONE', *, *, #546, .T. ) ;
#1088 = FACE_OUTER_BOUND ( 'NONE', #946, .T. ) ;
#1089 = EDGE_LOOP ( 'NONE', ( #1160, #587 ) ) ;
#1090 = CIRCLE ( 'NONE', #200, 1.500000000000001332 ) ;
#1091 = ADVANCED_FACE ( 'NONE', ( #1259, #263, #652, #270, #951, #1057, #553, #57 ), #760, .F. ) ;
#1092 = AXIS2_PLACEMENT_3D ( 'NONE', #944, #139, #227 ) ;
#1093 = DIRECTION ( 'NONE',  ( -0.000000000000000000, -0.000000000000000000, 1.000000000000000000 ) ) ;
#1094 = COLOUR_RGB ( '',0.1490196078431372528, 0.1490196078431372528, 0.1490196078431372528 ) ;
#1095 = VERTEX_POINT ( 'NONE', #1245 ) ;
#1096 = DIRECTION ( 'NONE',  ( 0.000000000000000000, 0.000000000000000000, -1.000000000000000000 ) ) ;
#1097 = CARTESIAN_POINT ( 'NONE',  ( 6.149999999999999467, 13.07660624134118876, -21.00000000000000355 ) ) ;
#1098 = EDGE_CURVE ( 'NONE', #1246, #901, #350, .T. ) ;
#1099 = CARTESIAN_POINT ( 'NONE',  ( 2.504156088940087241E-15, 33.49999999999999289, -21.00000000000000355 ) ) ;
#1100 = ORIENTED_EDGE ( 'NONE', *, *, #383, .T. ) ;
#1101 = CARTESIAN_POINT ( 'NONE',  ( -20.00000000000000000, 0.000000000000000000, 19.99999999999999645 ) ) ;
#1102 = AXIS2_PLACEMENT_3D ( 'NONE', #38, #631, #626 ) ;
#1103 = LINE ( 'NONE', #28, #832 ) ;
#1104 = CARTESIAN_POINT ( 'NONE',  ( 7.749999999999994671, 39.92339375865878992, -21.00000000000000355 ) ) ;
#1105 = ORIENTED_EDGE ( 'NONE', *, *, #533, .F. ) ;
#1106 = DIRECTION ( 'NONE',  ( 0.000000000000000000, 0.000000000000000000, -1.000000000000000000 ) ) ;
#1107 = VECTOR ( 'NONE', #935, 1000.000000000000000 ) ;
#1108 = CARTESIAN_POINT ( 'NONE',  ( -9.350000000000004974, 39.92339375865878992, -19.50000000000000355 ) ) ;
#1109 = DIRECTION ( 'NONE',  ( 0.000000000000000000, 0.000000000000000000, 1.000000000000000000 ) ) ;
#1110 = EDGE_LOOP ( 'NONE', ( #789, #839 ) ) ;
#1111 = DIRECTION ( 'NONE',  ( -0.000000000000000000, -1.000000000000000000, -0.000000000000000000 ) ) ;
#1112 = EDGE_CURVE ( 'NONE', #885, #176, #26, .T. ) ;
#1113 = CARTESIAN_POINT ( 'NONE',  ( 9.349999999999994316, 39.92339375865878992, -21.00000000000000355 ) ) ;
#1114 = AXIS2_PLACEMENT_3D ( 'NONE', #1242, #1037, #14 ) ;
#1115 = DIRECTION ( 'NONE',  ( -0.000000000000000000, -0.000000000000000000, 1.000000000000000000 ) ) ;
#1116 = ORIENTED_EDGE ( 'NONE', *, *, #32, .F. ) ;
#1117 = ORIENTED_EDGE ( 'NONE', *, *, #274, .F. ) ;
#1118 = LINE ( 'NONE', #37, #382 ) ;
#1119 = LINE ( 'NONE', #122, #476 ) ;
#1120 = SHAPE_DEFINITION_REPRESENTATION ( #889, #498 ) ;
#1121 = FACE_BOUND ( 'NONE', #605, .T. ) ;
#1122 = AXIS2_PLACEMENT_3D ( 'NONE', #78, #373, #768 ) ;
#1123 = CARTESIAN_POINT ( 'NONE',  ( -17.00000000000000000, 1.500000000000000000, 16.99999999999999645 ) ) ;
#1124 = VERTEX_POINT ( 'NONE', #454 ) ;
#1125 = DIRECTION ( 'NONE',  ( -1.000000000000000000, -0.000000000000000000, 1.756682000989171735E-16 ) ) ;
#1126 = FACE_OUTER_BOUND ( 'NONE', #351, .T. ) ;
#1127 = DIRECTION ( 'NONE',  ( -0.000000000000000000, -0.000000000000000000, 1.000000000000000000 ) ) ;
#1128 = ADVANCED_FACE ( 'NONE', ( #852 ), #460, .F. ) ;
#1129 = EDGE_CURVE ( 'NONE', #63, #395, #168, .T. ) ;
#1130 = DIRECTION ( 'NONE',  ( 0.000000000000000000, 0.000000000000000000, 1.000000000000000000 ) ) ;
#1131 = ORIENTED_EDGE ( 'NONE', *, *, #281, .T. ) ;
#1132 = SURFACE_STYLE_FILL_AREA ( #1233 ) ;
#1133 = LINE ( 'NONE', #340, #540 ) ;
#1134 = AXIS2_PLACEMENT_3D ( 'NONE', #494, #1093, #884 ) ;
#1135 = LINE ( 'NONE', #953, #13 ) ;
#1136 = FACE_BOUND ( 'NONE', #1262, .T. ) ;
#1137 = VERTEX_POINT ( 'NONE', #65 ) ;
#1138 = STYLED_ITEM ( 'NONE', ( #506 ), #498 ) ;
#1139 = DIRECTION ( 'NONE',  ( 1.000000000000000000, 0.000000000000000000, 0.000000000000000000 ) ) ;
#1140 = AXIS2_PLACEMENT_3D ( 'NONE', #419, #22, #426 ) ;
#1141 = FACE_OUTER_BOUND ( 'NONE', #1238, .T. ) ;
#1142 = CLOSED_SHELL ( 'NONE', ( #1289, #437, #70, #1176, #155, #529, #1235, #539, #840, #573, #237, #327, #1196, #787, #708, #422, #871, #86, #762, #745, #1091, #1148, #43, #746, #1128, #511, #39, #931, #803, #1191, #1213, #358, #179, #627, #1159, #558 ) ) ;
#1143 = DIRECTION ( 'NONE',  ( -1.000000000000000000, 0.000000000000000000, 0.000000000000000000 ) ) ;
#1144 = VECTOR ( 'NONE', #1070, 1000.000000000000000 ) ;
#1145 = VERTEX_POINT ( 'NONE', #377 ) ;
#1146 = DIRECTION ( 'NONE',  ( -0.000000000000000000, -0.000000000000000000, 1.000000000000000000 ) ) ;
#1147 = AXIS2_PLACEMENT_3D ( 'NONE', #1228, #1035, #834 ) ;
#1148 = ADVANCED_FACE ( 'NONE', ( #868 ), #653, .T. ) ;
#1149 = DIRECTION ( 'NONE',  ( -0.000000000000000000, 0.000000000000000000, -1.000000000000000000 ) ) ;
#1150 = ORIENTED_EDGE ( 'NONE', *, *, #281, .F. ) ;
#1151 = VERTEX_POINT ( 'NONE', #256 ) ;
#1152 = EDGE_LOOP ( 'NONE', ( #385, #596 ) ) ;
#1153 = CARTESIAN_POINT ( 'NONE',  ( 6.500000000000000888, 33.49999999999998579, -21.00000000000000355 ) ) ;
#1154 = CIRCLE ( 'NONE', #988, 20.00000000000000711 ) ;
#1155 = CIRCLE ( 'NONE', #592, 1.000000000000000888 ) ;
#1156 = DIRECTION ( 'NONE',  ( 1.000000000000000000, 0.000000000000000000, 0.000000000000000000 ) ) ;
#1157 = CARTESIAN_POINT ( 'NONE',  ( -9.350000000000004974, 39.92339375865878992, -21.00000000000000355 ) ) ;
#1158 = VERTEX_POINT ( 'NONE', #1157 ) ;
#1159 = ADVANCED_FACE ( 'NONE', ( #455 ), #277, .T. ) ;
#1160 = ORIENTED_EDGE ( 'NONE', *, *, #108, .T. ) ;
#1161 = DIRECTION ( 'NONE',  ( -1.000000000000000000, 3.097720492815729138E-16, 0.000000000000000000 ) ) ;
#1162 = CARTESIAN_POINT ( 'NONE',  ( 13.89999999999999680, 26.50000000000000000, -21.00000000000000355 ) ) ;
#1163 = CARTESIAN_POINT ( 'NONE',  ( -7.749999999999996447, 13.07660624134118343, -21.00000000000000355 ) ) ;
#1164 = ORIENTED_EDGE ( 'NONE', *, *, #730, .T. ) ;
#1165 = PRODUCT_RELATED_PRODUCT_CATEGORY ( 'part', '', ( #938 ) ) ;
#1166 = EDGE_CURVE ( 'NONE', #892, #915, #912, .T. ) ;
#1167 = ORIENTED_EDGE ( 'NONE', *, *, #1229, .T. ) ;
#1168 = CARTESIAN_POINT ( 'NONE',  ( 6.499999999999996447, 19.50000000000000000, -21.00000000000000355 ) ) ;
#1169 = VECTOR ( 'NONE', #1086, 1000.000000000000000 ) ;
#1170 = LINE ( 'NONE', #180, #1144 ) ;
#1171 = VERTEX_POINT ( 'NONE', #169 ) ;
#1172 = EDGE_CURVE ( 'NONE', #1078, #63, #625, .T. ) ;
#1173 = CYLINDRICAL_SURFACE ( 'NONE', #1134, 1.600000000000000755 ) ;
#1174 = EDGE_LOOP ( 'NONE', ( #1131, #79, #1068, #1178 ) ) ;
#1175 = PLANE ( 'NONE',  #18 ) ;
#1176 = ADVANCED_FACE ( 'NONE', ( #761 ), #1077, .F. ) ;
#1177 = CARTESIAN_POINT ( 'NONE',  ( 9.350000000000001421, 13.07660624134118876, -21.00000000000000355 ) ) ;
#1178 = ORIENTED_EDGE ( 'NONE', *, *, #819, .F. ) ;
#1179 = DIRECTION ( 'NONE',  ( 0.000000000000000000, 0.000000000000000000, -1.000000000000000000 ) ) ;
#1180 = ORIENTED_EDGE ( 'NONE', *, *, #599, .F. ) ;
#1181 = LINE ( 'NONE', #290, #747 ) ;
#1182 = ORIENTED_EDGE ( 'NONE', *, *, #1273, .T. ) ;
#1183 = CIRCLE ( 'NONE', #616, 1.000000000000000888 ) ;
#1184 = DIRECTION ( 'NONE',  ( 0.000000000000000000, 0.000000000000000000, -1.000000000000000000 ) ) ;
#1185 = VERTEX_POINT ( 'NONE', #554 ) ;
#1186 = CIRCLE ( 'NONE', #1230, 1.600000000000000755 ) ;
#1187 = EDGE_CURVE ( 'NONE', #985, #657, #862, .T. ) ;
#1188 = CARTESIAN_POINT ( 'NONE',  ( 6.499999999999996447, 19.50000000000000000, -19.50000000000000355 ) ) ;
#1189 = CIRCLE ( 'NONE', #582, 0.5000000000000004441 ) ;
#1190 = VERTEX_POINT ( 'NONE', #480 ) ;
#1191 = ADVANCED_FACE ( 'NONE', ( #1260 ), #966, .F. ) ;
#1192 = LINE ( 'NONE', #1286, #103 ) ;
#1193 = ORIENTED_EDGE ( 'NONE', *, *, #533, .T. ) ;
#1194 = DIRECTION ( 'NONE',  ( 0.000000000000000000, 0.000000000000000000, 1.000000000000000000 ) ) ;
#1195 = VECTOR ( 'NONE', #958, 1000.000000000000000 ) ;
#1196 = ADVANCED_FACE ( 'NONE', ( #952 ), #774, .F. ) ;
#1197 = DIRECTION ( 'NONE',  ( -0.000000000000000000, -1.000000000000000000, -0.000000000000000000 ) ) ;
#1198 = AXIS2_PLACEMENT_3D ( 'NONE', #182, #577, #990 ) ;
#1199 = DIRECTION ( 'NONE',  ( -0.000000000000000000, -0.000000000000000000, 1.000000000000000000 ) ) ;
#1200 = ORIENTED_EDGE ( 'NONE', *, *, #108, .F. ) ;
#1201 = DIRECTION ( 'NONE',  ( -1.000000000000000000, 0.000000000000000000, 0.000000000000000000 ) ) ;
#1202 = VECTOR ( 'NONE', #322, 1000.000000000000000 ) ;
#1203 = DIRECTION ( 'NONE',  ( -1.000000000000000000, 0.000000000000000000, 0.000000000000000000 ) ) ;
#1204 = DIRECTION ( 'NONE',  ( 0.000000000000000000, 0.000000000000000000, -1.000000000000000000 ) ) ;
#1205 = ORIENTED_EDGE ( 'NONE', *, *, #1112, .T. ) ;
#1206 = DIRECTION ( 'NONE',  ( -0.000000000000000000, -1.000000000000000000, -0.000000000000000000 ) ) ;
#1207 = CIRCLE ( 'NONE', #414, 1.500000000000001332 ) ;
#1208 = CARTESIAN_POINT ( 'NONE',  ( 20.00000000000000711, 2.000000000000000000, -19.00000000000000355 ) ) ;
#1209 = CIRCLE ( 'NONE', #211, 1.599999999999998979 ) ;
#1210 = DIRECTION ( 'NONE',  ( 0.000000000000000000, 1.000000000000000000, 0.000000000000000000 ) ) ;
#1211 = DIRECTION ( 'NONE',  ( -1.000000000000000000, 0.000000000000000000, 0.000000000000000000 ) ) ;
#1212 = VERTEX_POINT ( 'NONE', #780 ) ;
#1213 = ADVANCED_FACE ( 'NONE', ( #368 ), #66, .F. ) ;
#1214 = EDGE_CURVE ( 'NONE', #756, #85, #175, .T. ) ;
#1215 = DIRECTION ( 'NONE',  ( -1.000000000000000000, 0.000000000000000000, 0.000000000000000000 ) ) ;
#1216 = DIRECTION ( 'NONE',  ( 0.000000000000000000, -0.000000000000000000, 1.000000000000000000 ) ) ;
#1217 = CARTESIAN_POINT ( 'NONE',  ( -15.50000000000000000, 26.49999999999999645, -21.00000000000000355 ) ) ;
#1218 = VERTEX_POINT ( 'NONE', #384 ) ;
#1219 = ORIENTED_EDGE ( 'NONE', *, *, #265, .T. ) ;
#1220 = DIRECTION ( 'NONE',  ( -0.000000000000000000, -1.000000000000000000, -0.000000000000000000 ) ) ;
#1221 = DIRECTION ( 'NONE',  ( -0.000000000000000000, 0.000000000000000000, -1.000000000000000000 ) ) ;
#1222 = LINE ( 'NONE', #336, #394 ) ;
#1223 = DIRECTION ( 'NONE',  ( 1.000000000000000000, 0.000000000000000000, 0.000000000000000000 ) ) ;
#1224 = AXIS2_PLACEMENT_3D ( 'NONE', #630, #542, #439 ) ;
#1225 = CARTESIAN_POINT ( 'NONE',  ( -15.00000000000000000, 1.500000000000000000, 13.50000000000000178 ) ) ;
#1226 = EDGE_LOOP ( 'NONE', ( #338, #164 ) ) ;
#1227 = DIRECTION ( 'NONE',  ( 0.000000000000000000, 0.000000000000000000, -1.000000000000000000 ) ) ;
#1228 = CARTESIAN_POINT ( 'NONE',  ( 7.750000000000000000, 13.07660624134118876, -19.50000000000000355 ) ) ;
#1229 = EDGE_CURVE ( 'NONE', #1256, #490, #516, .T. ) ;
#1230 = AXIS2_PLACEMENT_3D ( 'NONE', #710, #512, #217 ) ;
#1231 = DIRECTION ( 'NONE',  ( 0.000000000000000000, 0.000000000000000000, 1.000000000000000000 ) ) ;
#1232 = ORIENTED_EDGE ( 'NONE', *, *, #404, .T. ) ;
#1233 = FILL_AREA_STYLE ('',( #1033 ) ) ;
#1234 = CARTESIAN_POINT ( 'NONE',  ( -20.00000000000000711, 26.50000000000000000, -21.00000000000000355 ) ) ;
#1235 = ADVANCED_FACE ( 'NONE', ( #188 ), #1266, .F. ) ;
#1236 = EDGE_CURVE ( 'NONE', #1151, #1137, #1170, .T. ) ;
#1237 = DIRECTION ( 'NONE',  ( 0.000000000000000000, 1.000000000000000000, 0.000000000000000000 ) ) ;
#1238 = EDGE_LOOP ( 'NONE', ( #622, #678, #67, #991 ) ) ;
#1239 = CARTESIAN_POINT ( 'NONE',  ( 15.00000000000000000, 0.000000000000000000, 10.49999999999999822 ) ) ;
#1240 = DIRECTION ( 'NONE',  ( -1.000000000000000000, 0.000000000000000000, 0.000000000000000000 ) ) ;
#1241 = CARTESIAN_POINT ( 'NONE',  ( -6.500000000000000888, 19.49999999999999645, -21.00000000000000355 ) ) ;
#1242 = CARTESIAN_POINT ( 'NONE',  ( -1.782107708075647678E-15, 19.49999999999999645, -21.00000000000000355 ) ) ;
#1243 = ORIENTED_EDGE ( 'NONE', *, *, #910, .T. ) ;
#1244 = SURFACE_STYLE_USAGE ( .BOTH. , #738 ) ;
#1245 = CARTESIAN_POINT ( 'NONE',  ( -20.00000000000000000, 0.000000000000000000, 17.00000000000000000 ) ) ;
#1246 = VERTEX_POINT ( 'NONE', #575 ) ;
#1247 = ORIENTED_EDGE ( 'NONE', *, *, #12, .T. ) ;
#1248 = FACE_BOUND ( 'NONE', #370, .T. ) ;
#1249 = AXIS2_PLACEMENT_3D ( 'NONE', #360, #58, #977 ) ;
#1250 = VECTOR ( 'NONE', #76, 1000.000000000000000 ) ;
#1251 = VERTEX_POINT ( 'NONE', #875 ) ;
#1252 = FACE_BOUND ( 'NONE', #1013, .T. ) ;
#1253 = CARTESIAN_POINT ( 'NONE',  ( -1.782107708075647678E-15, 19.49999999999999645, -21.00000000000000355 ) ) ;
#1254 = CARTESIAN_POINT ( 'NONE',  ( -15.50000000000000000, 26.49999999999999645, -21.00000000000000355 ) ) ;
#1255 = ORIENTED_EDGE ( 'NONE', *, *, #574, .T. ) ;
#1256 = VERTEX_POINT ( 'NONE', #1177 ) ;
#1257 = LINE ( 'NONE', #1168, #689 ) ;
#1258 = AXIS2_PLACEMENT_3D ( 'NONE', #545, #1111, #220 ) ;
#1259 = FACE_OUTER_BOUND ( 'NONE', #356, .T. ) ;
#1260 = FACE_OUTER_BOUND ( 'NONE', #483, .T. ) ;
#1261 = PRESENTATION_LAYER_ASSIGNMENT (  '', '', ( #527 ) ) ;
#1262 = EDGE_LOOP ( 'NONE', ( #60, #1180 ) ) ;
#1263 = ORIENTED_EDGE ( 'NONE', *, *, #778, .T. ) ;
#1264 = CARTESIAN_POINT ( 'NONE',  ( 6.149999999999995914, 39.92339375865878992, -21.00000000000000355 ) ) ;
#1265 = AXIS2_PLACEMENT_3D ( 'NONE', #1099, #1115, #1001 ) ;
#1266 = CYLINDRICAL_SURFACE ( 'NONE', #1122, 1.500000000000001332 ) ;
#1267 = DIRECTION ( 'NONE',  ( 0.000000000000000000, 0.000000000000000000, -1.000000000000000000 ) ) ;
#1268 = ORIENTED_EDGE ( 'NONE', *, *, #559, .F. ) ;
#1269 = FACE_OUTER_BOUND ( 'NONE', #493, .T. ) ;
#1270 = CIRCLE ( 'NONE', #83, 2.999999999999999112 ) ;
#1271 = DIRECTION ( 'NONE',  ( -0.000000000000000000, -0.000000000000000000, 1.000000000000000000 ) ) ;
#1272 = ORIENTED_EDGE ( 'NONE', *, *, #153, .F. ) ;
#1273 = EDGE_CURVE ( 'NONE', #749, #1278, #1222, .T. ) ;
#1274 = DIRECTION ( 'NONE',  ( 1.000000000000000000, 0.000000000000000000, -0.000000000000000000 ) ) ;
#1275 = EDGE_LOOP ( 'NONE', ( #143, #470, #445, #323 ) ) ;
#1276 = VECTOR ( 'NONE', #1146, 1000.000000000000000 ) ;
#1277 = DIRECTION ( 'NONE',  ( -0.000000000000000000, -0.000000000000000000, 1.000000000000000000 ) ) ;
#1278 = VERTEX_POINT ( 'NONE', #212 ) ;
#1279 = DIRECTION ( 'NONE',  ( -1.000000000000000000, 0.000000000000000000, 0.000000000000000000 ) ) ;
#1280 = ORIENTED_EDGE ( 'NONE', *, *, #1075, .F. ) ;
#1281 = EDGE_LOOP ( 'NONE', ( #304, #1073 ) ) ;
#1282 = EDGE_CURVE ( 'NONE', #95, #267, #1189, .T. ) ;
#1283 = DIRECTION ( 'NONE',  ( 1.000000000000000000, -0.000000000000000000, -0.000000000000000000 ) ) ;
#1284 = VERTEX_POINT ( 'NONE', #932 ) ;
#1285 = AXIS2_PLACEMENT_3D ( 'NONE', #535, #1026, #933 ) ;
#1286 = CARTESIAN_POINT ( 'NONE',  ( -20.00000000000000711, 1.500000000000000000, -19.50000000000000355 ) ) ;
#1287 = ORIENTED_EDGE ( 'NONE', *, *, #125, .F. ) ;
#1288 = AXIS2_PLACEMENT_3D ( 'NONE', #418, #1025, #1223 ) ;
#1289 = ADVANCED_FACE ( 'NONE', ( #11 ), #314, .F. ) ;
#1290 = DIRECTION ( 'NONE',  ( -1.000000000000000000, 0.000000000000000000, -0.000000000000000000 ) ) ;
ENDSEC;
END-ISO-10303-21;
