ISO-10303-21;
HEADER;
FILE_DESCRIPTION (( 'STEP AP214' ),
    '1' );
FILE_NAME ('Áù½ÇÁªÖáÆ÷.STEP',
    '2022-12-08T06:32:31',
    ( '' ),
    ( '' ),
    'SwSTEP 2.0',
    'SolidWorks 2022',
    '' );
FILE_SCHEMA (( 'AUTOMOTIVE_DESIGN' ));
ENDSEC;

DATA;
#1 = EDGE_CURVE ( 'NONE', #505, #57, #122, .T. ) ;
#2 = CARTESIAN_POINT ( 'NONE',  ( 3.464101615137743728, 6.000000000000000000, -6.000000000000013323 ) ) ;
#3 = FACE_OUTER_BOUND ( 'NONE', #556, .T. ) ;
#4 = B_SPLINE_CURVE_WITH_KNOTS ( 'NONE', 3,
 ( #560, #135, #679, #76, #620, #181, #401, #507, #504, #398, #553, #403, #616, #68, #16, #131 ),
 .UNSPECIFIED., .F., .F.,
 ( 4, 2, 2, 2, 2, 2, 2, 4 ),
 ( 0.002356703387223211318, 0.002651128364242629539, 0.002945553341262047761, 0.003534403295300884637, 0.003828828272320302858, 0.004123253249339721080, 0.004417678226359138434, 0.004712103203378556655 ),
 .UNSPECIFIED. ) ;
#5 = DIRECTION ( 'NONE',  ( -0.4999999999999949485, 0.000000000000000000, 0.8660254037844415942 ) ) ;
#6 =( NAMED_UNIT ( * ) SI_UNIT ( $, .STERADIAN. ) SOLID_ANGLE_UNIT ( ) );
#7 = EDGE_LOOP ( 'NONE', ( #420, #232 ) ) ;
#8 = VECTOR ( 'NONE', #688, 1000.000000000000000 ) ;
#9 = PRESENTATION_LAYER_ASSIGNMENT (  '', '', ( #658 ) ) ;
#10 = DIRECTION ( 'NONE',  ( 0.8660254037844345998, 0.000000000000000000, -0.5000000000000069944 ) ) ;
#11 = CARTESIAN_POINT ( 'NONE',  ( 1.422758038123424829, -6.485116676696650373, 5.312933748864934635 ) ) ;
#12 = EDGE_CURVE ( 'NONE', #483, #72, #445, .T. ) ;
#13 = UNCERTAINTY_MEASURE_WITH_UNIT (LENGTH_MEASURE( 1.000000000000000082E-05 ), #646, 'distance_accuracy_value', 'NONE');
#14 = FACE_OUTER_BOUND ( 'NONE', #348, .T. ) ;
#15 = ORIENTED_EDGE ( 'NONE', *, *, #522, .F. ) ;
#16 = CARTESIAN_POINT ( 'NONE',  ( -0.09815911193589864359, -4.500000000000001776, 5.500000000000000888 ) ) ;
#17 = VERTEX_POINT ( 'NONE', #664 ) ;
#18 = AXIS2_PLACEMENT_3D ( 'NONE', #526, #43, #421 ) ;
#19 = EDGE_CURVE ( 'NONE', #206, #359, #548, .T. ) ;
#20 = SURFACE_STYLE_FILL_AREA ( #559 ) ;
#21 = DIRECTION ( 'NONE',  ( 0.000000000000000000, 0.000000000000000000, -1.000000000000000000 ) ) ;
#22 = ORIENTED_EDGE ( 'NONE', *, *, #652, .T. ) ;
#23 = PLANE ( 'NONE',  #593 ) ;
#24 = ORIENTED_EDGE ( 'NONE', *, *, #326, .T. ) ;
#25 = DIRECTION ( 'NONE',  ( 1.000000000000000000, 0.000000000000000000, -3.505400730386694480E-15 ) ) ;
#26 = ORIENTED_EDGE ( 'NONE', *, *, #262, .T. ) ;
#27 = VECTOR ( 'NONE', #426, 1000.000000000000000 ) ;
#28 = DIRECTION ( 'NONE',  ( 0.000000000000000000, -1.000000000000000000, 0.000000000000000000 ) ) ;
#29 = DIRECTION ( 'NONE',  ( -1.039100930793198864E-14, 0.000000000000000000, -1.000000000000000000 ) ) ;
#30 = VERTEX_POINT ( 'NONE', #704 ) ;
#31 = DIRECTION ( 'NONE',  ( -0.5000000000000008882, 0.000000000000000000, -0.8660254037844380415 ) ) ;
#32 = DIRECTION ( 'NONE',  ( 0.000000000000000000, 1.000000000000000000, 0.000000000000000000 ) ) ;
#33 = ORIENTED_EDGE ( 'NONE', *, *, #446, .F. ) ;
#34 = CARTESIAN_POINT ( 'NONE',  ( -1.500000000000001554, -6.000000000000000888, 5.291502622129179656 ) ) ;
#35 = CARTESIAN_POINT ( 'NONE',  ( 4.701055397933058952E-15, -4.499999999999942268, 3.000000000000029754 ) ) ;
#36 = VERTEX_POINT ( 'NONE', #392 ) ;
#37 = EDGE_CURVE ( 'NONE', #352, #508, #385, .T. ) ;
#38 = CYLINDRICAL_SURFACE ( 'NONE', #18, 2.000000000000000000 ) ;
#39 = PLANE ( 'NONE',  #350 ) ;
#40 = ORIENTED_EDGE ( 'NONE', *, *, #686, .T. ) ;
#41 = ADVANCED_FACE ( 'NONE', ( #654, #389 ), #708, .T. ) ;
#42 = B_SPLINE_CURVE_WITH_KNOTS ( 'NONE', 3,
 ( #224, #444, #324, #535, #278, #116, #47, #541, #434, #707, #496, #165, #205, #650 ),
 .UNSPECIFIED., .F., .F.,
 ( 4, 2, 2, 2, 2, 2, 4 ),
 ( 0.004712103203378556655, 0.005301035028352081915, 0.005595500940838844112, 0.005889966853325607175, 0.006184432765812369372, 0.006478898678299131568, 0.007067830503272656828 ),
 .UNSPECIFIED. ) ;
#43 = DIRECTION ( 'NONE',  ( -0.000000000000000000, -1.000000000000000000, -0.000000000000000000 ) ) ;
#44 = DIRECTION ( 'NONE',  ( 0.000000000000000000, 1.000000000000000000, 0.000000000000000000 ) ) ;
#45 = EDGE_LOOP ( 'NONE', ( #681, #615, #580, #26, #252, #338, #641 ) ) ;
#46 = DIRECTION ( 'NONE',  ( 0.000000000000000000, 1.000000000000000000, 0.000000000000000000 ) ) ;
#47 = CARTESIAN_POINT ( 'NONE',  ( 0.9912713010402703917, -4.869976773831313110, 5.410393098798722100 ) ) ;
#48 = CARTESIAN_POINT ( 'NONE',  ( 0.000000000000000000, -7.500000000000001776, 5.500000000000000000 ) ) ;
#49 = AXIS2_PLACEMENT_3D ( 'NONE', #657, #166, #545 ) ;
#50 = AXIS2_PLACEMENT_3D ( 'NONE', #223, #547, #698 ) ;
#51 = CARTESIAN_POINT ( 'NONE',  ( 0.7565394148354714909, -7.298885067316281727, 2.904256686966019796 ) ) ;
#52 = DIRECTION ( 'NONE',  ( -0.000000000000000000, -1.000000000000000000, -0.000000000000000000 ) ) ;
#53 = DIRECTION ( 'NONE',  ( 0.000000000000000000, 0.000000000000000000, 1.000000000000000000 ) ) ;
#54 = DIRECTION ( 'NONE',  ( 0.5000000000000008882, 0.000000000000000000, 0.8660254037844381525 ) ) ;
#55 = CARTESIAN_POINT ( 'NONE',  ( 4.701055397933058952E-15, -4.499999999999942268, 3.000000000000029754 ) ) ;
#56 = CARTESIAN_POINT ( 'NONE',  ( 3.464101615137827661, 0.000000000000000000, 5.999999999999965361 ) ) ;
#57 = VERTEX_POINT ( 'NONE', #56 ) ;
#58 = DIRECTION ( 'NONE',  ( 1.000000000000000000, 0.000000000000000000, -1.039100930793198864E-14 ) ) ;
#59 = FACE_OUTER_BOUND ( 'NONE', #546, .T. ) ;
#60 = ORIENTED_EDGE ( 'NONE', *, *, #682, .T. ) ;
#61 = ADVANCED_FACE ( 'NONE', ( #173 ), #284, .T. ) ;
#62 = CARTESIAN_POINT ( 'NONE',  ( 3.464101615137827661, 6.000000000000000000, 5.999999999999965361 ) ) ;
#63 = VECTOR ( 'NONE', #316, 1000.000000000000227 ) ;
#64 = DIRECTION ( 'NONE',  ( 0.000000000000000000, -1.000000000000000000, 0.000000000000000000 ) ) ;
#65 = CARTESIAN_POINT ( 'NONE',  ( -6.928203230275514990, 6.000000000000000000, 4.837938458043934978E-14 ) ) ;
#66 = EDGE_CURVE ( 'NONE', #30, #72, #598, .T. ) ;
#67 = LINE ( 'NONE', #285, #429 ) ;
#68 = CARTESIAN_POINT ( 'NONE',  ( -0.1977065712600935554, -4.509819959610126716, 5.497298320494686585 ) ) ;
#69 = ADVANCED_FACE ( 'NONE', ( #651 ), #381, .F. ) ;
#70 = EDGE_LOOP ( 'NONE', ( #88, #411 ) ) ;
#71 = CARTESIAN_POINT ( 'NONE',  ( 3.939760687290985999E-21, -4.500000000000000888, 5.500000000000000000 ) ) ;
#72 = VERTEX_POINT ( 'NONE', #216 ) ;
#73 = VECTOR ( 'NONE', #168, 1000.000000000000000 ) ;
#74 = PRODUCT_DEFINITION_FORMATION_WITH_SPECIFIED_SOURCE ( 'ÈÎºÎ', '', #376, .NOT_KNOWN. ) ;
#75 = SURFACE_STYLE_USAGE ( .BOTH. , #172 ) ;
#76 = CARTESIAN_POINT ( 'NONE',  ( -1.451485955639495229, -5.609046780159337331, 5.305053220327700103 ) ) ;
#77 = ORIENTED_EDGE ( 'NONE', *, *, #642, .F. ) ;
#78 = LINE ( 'NONE', #510, #643 ) ;
#79 = ORIENTED_EDGE ( 'NONE', *, *, #340, .F. ) ;
#80 = EDGE_CURVE ( 'NONE', #521, #469, #438, .T. ) ;
#81 = CARTESIAN_POINT ( 'NONE',  ( 0.000000000000000000, 0.5000000000000004441, 0.000000000000000000 ) ) ;
#82 = PLANE ( 'NONE',  #155 ) ;
#83 = ORIENTED_EDGE ( 'NONE', *, *, #400, .T. ) ;
#84 = AXIS2_PLACEMENT_3D ( 'NONE', #673, #502, #555 ) ;
#85 =( GEOMETRIC_REPRESENTATION_CONTEXT ( 3 ) GLOBAL_UNCERTAINTY_ASSIGNED_CONTEXT ( ( #210 ) ) GLOBAL_UNIT_ASSIGNED_CONTEXT ( ( #189, #594, #6 ) ) REPRESENTATION_CONTEXT ( 'NONE', 'WORKASPACE' ) );
#86 = CARTESIAN_POINT ( 'NONE',  ( -1.198870911477038836, -6.922297690447393848, 5.369579351309925919 ) ) ;
#87 = CARTESIAN_POINT ( 'NONE',  ( 1.308932855146651697, -5.242022375042598270, 2.700711773464314458 ) ) ;
#88 = ORIENTED_EDGE ( 'NONE', *, *, #450, .F. ) ;
#89 = FACE_OUTER_BOUND ( 'NONE', #70, .T. ) ;
#90 = UNCERTAINTY_MEASURE_WITH_UNIT (LENGTH_MEASURE( 1.000000000000000082E-05 ), #238, 'distance_accuracy_value', 'NONE');
#91 = CARTESIAN_POINT ( 'NONE',  ( -6.928203230275514990, 6.000000000000000000, 4.837938458043934978E-14 ) ) ;
#92 = EDGE_LOOP ( 'NONE', ( #272, #409, #538, #573, #40, #158, #670 ) ) ;
#93 = ADVANCED_FACE ( 'NONE', ( #3 ), #220, .F. ) ;
#94 = FACE_OUTER_BOUND ( 'NONE', #424, .T. ) ;
#95 = FILL_AREA_STYLE ('',( #680 ) ) ;
#96 = ORIENTED_EDGE ( 'NONE', *, *, #473, .T. ) ;
#97 = B_SPLINE_CURVE_WITH_KNOTS ( 'NONE', 3,
 ( #481, #152, #360, #417, #691, #694, #635, #188, #410, #250, #683, #623, #138, #149, #627, #357 ),
 .UNSPECIFIED., .F., .F.,
 ( 4, 2, 2, 2, 2, 2, 2, 4 ),
 ( 0.007153416149688781450, 0.007450908796714701167, 0.007748401443740621751, 0.008343386737792460317, 0.008640879384818380901, 0.008938372031844301485, 0.009235864678870220335, 0.009533357325896140919 ),
 .UNSPECIFIED. ) ;
#98 = AXIS2_PLACEMENT_3D ( 'NONE', #104, #64, #384 ) ;
#99 = CARTESIAN_POINT ( 'NONE',  ( -0.3899623038776501294, -7.451742390738760768, 5.487004034362363392 ) ) ;
#100 = ORIENTED_EDGE ( 'NONE', *, *, #194, .F. ) ;
#101 = ADVANCED_FACE ( 'NONE', ( #59 ), #346, .F. ) ;
#102 = LINE ( 'NONE', #277, #187 ) ;
#103 = CARTESIAN_POINT ( 'NONE',  ( -1.500000000000001554, -6.000000000000000888, 2.598076211353315568 ) ) ;
#104 = CARTESIAN_POINT ( 'NONE',  ( 0.000000000000000000, 0.5000000000000004441, 0.000000000000000000 ) ) ;
#105 = CARTESIAN_POINT ( 'NONE',  ( 1.190782912818231898, -6.917271501723762483, 2.754188319406901009 ) ) ;
#106 = EDGE_CURVE ( 'NONE', #612, #602, #78, .T. ) ;
#107 = LINE ( 'NONE', #437, #110 ) ;
#108 = DIRECTION ( 'NONE',  ( -0.4999999999999948375, 0.000000000000000000, 0.8660254037844415942 ) ) ;
#109 = VECTOR ( 'NONE', #513, 1000.000000000000000 ) ;
#110 = VECTOR ( 'NONE', #391, 1000.000000000000000 ) ;
#111 = CARTESIAN_POINT ( 'NONE',  ( 4.701055397933058952E-15, -4.499999999999942268, 3.000000000000029754 ) ) ;
#112 = CARTESIAN_POINT ( 'NONE',  ( -1.450725972813572184, -5.606065497351690574, 2.626004403692743239 ) ) ;
#113 = CARTESIAN_POINT ( 'NONE',  ( 0.7574186490456202847, -7.309432157068366465, 5.450625046624762327 ) ) ;
#114 = LINE ( 'NONE', #428, #597 ) ;
#115 = B_SPLINE_CURVE_WITH_KNOTS ( 'NONE', 3,
 ( #35, #358, #419, #572, #309, #531, #87, #684, #414, #471 ),
 .UNSPECIFIED., .F., .F.,
 ( 4, 2, 2, 2, 4 ),
 ( 0.002386423646366660212, 0.002982541575796453064, 0.003578659505226245482, 0.004174777434656037900, 0.004770895364085830752 ),
 .UNSPECIFIED. ) ;
#116 = CARTESIAN_POINT ( 'NONE',  ( 0.9160726087419750474, -4.808202209137625083, 5.423796954543375293 ) ) ;
#117 = CARTESIAN_POINT ( 'NONE',  ( 1.198583689215190873, -6.922625393485009937, 5.369639926947641584 ) ) ;
#118 = APPLICATION_CONTEXT ( 'automotive_design' ) ;
#119 = ORIENTED_EDGE ( 'NONE', *, *, #446, .T. ) ;
#120 = EDGE_CURVE ( 'NONE', #57, #206, #67, .T. ) ;
#121 = DIRECTION ( 'NONE',  ( -0.000000000000000000, -1.000000000000000000, -0.000000000000000000 ) ) ;
#122 = LINE ( 'NONE', #605, #290 ) ;
#123 = ORIENTED_EDGE ( 'NONE', *, *, #174, .F. ) ;
#124 = DIRECTION ( 'NONE',  ( 0.000000000000000000, 0.000000000000000000, -1.000000000000000000 ) ) ;
#125 = DIRECTION ( 'NONE',  ( 0.000000000000000000, 0.000000000000000000, -1.000000000000000000 ) ) ;
#126 = EDGE_CURVE ( 'NONE', #602, #310, #416, .T. ) ;
#127 = CYLINDRICAL_SURFACE ( 'NONE', #568, 2.000000000000000000 ) ;
#128 = ORIENTED_EDGE ( 'NONE', *, *, #705, .F. ) ;
#129 = DIRECTION ( 'NONE',  ( -0.000000000000000000, -1.000000000000000000, -0.000000000000000000 ) ) ;
#130 = ORIENTED_EDGE ( 'NONE', *, *, #465, .T. ) ;
#131 = CARTESIAN_POINT ( 'NONE',  ( 3.939760687290985999E-21, -4.500000000000000888, 5.500000000000000000 ) ) ;
#132 = EDGE_LOOP ( 'NONE', ( #203, #77, #637, #667 ) ) ;
#133 = VECTOR ( 'NONE', #31, 1000.000000000000227 ) ;
#134 = APPLICATION_PROTOCOL_DEFINITION ( 'draft international standard', 'automotive_design', 1998, #118 ) ;
#135 = CARTESIAN_POINT ( 'NONE',  ( -1.500000000000001554, -5.901661130497487306, 5.291502622129180544 ) ) ;
#136 = ORIENTED_EDGE ( 'NONE', *, *, #394, .T. ) ;
#137 = EDGE_CURVE ( 'NONE', #457, #318, #451, .T. ) ;
#138 = CARTESIAN_POINT ( 'NONE',  ( -1.450120174509484716, -6.396191881267973223, 2.626340628111683007 ) ) ;
#139 = LINE ( 'NONE', #368, #406 ) ;
#140 = ORIENTED_EDGE ( 'NONE', *, *, #301, .T. ) ;
#141 = CARTESIAN_POINT ( 'NONE',  ( 6.928203230275514990, 6.000000000000000000, 0.000000000000000000 ) ) ;
#142 = CARTESIAN_POINT ( 'NONE',  ( -3.464101615137701984, 6.000000000000000000, 6.000000000000037303 ) ) ;
#143 = ORIENTED_EDGE ( 'NONE', *, *, #626, .F. ) ;
#144 = AXIS2_PLACEMENT_3D ( 'NONE', #81, #28, #191 ) ;
#145 = CARTESIAN_POINT ( 'NONE',  ( -1.500000000000001776, -6.196786588215471347, 5.291502622129180544 ) ) ;
#146 = ADVANCED_FACE ( 'NONE', ( #14 ), #127, .F. ) ;
#147 = PLANE ( 'NONE',  #339 ) ;
#148 = ORIENTED_EDGE ( 'NONE', *, *, #494, .F. ) ;
#149 = CARTESIAN_POINT ( 'NONE',  ( -1.489633060248833241, -6.202014536892200169, 2.604132669662431177 ) ) ;
#150 = LINE ( 'NONE', #91, #386 ) ;
#151 = VERTEX_POINT ( 'NONE', #71 ) ;
#152 = CARTESIAN_POINT ( 'NONE',  ( -0.09924460914285619662, -7.500000000000003553, 3.000000000000000888 ) ) ;
#153 = SURFACE_STYLE_USAGE ( .BOTH. , #640 ) ;
#154 = ORIENTED_EDGE ( 'NONE', *, *, #137, .T. ) ;
#155 = AXIS2_PLACEMENT_3D ( 'NONE', #192, #479, #636 ) ;
#156 = FACE_OUTER_BOUND ( 'NONE', #243, .T. ) ;
#157 = LINE ( 'NONE', #266, #291 ) ;
#158 = ORIENTED_EDGE ( 'NONE', *, *, #66, .T. ) ;
#159 = LINE ( 'NONE', #209, #314 ) ;
#160 = CARTESIAN_POINT ( 'NONE',  ( 0.000000000000000000, 6.000000000000000000, 0.000000000000000000 ) ) ;
#161 = ORIENTED_EDGE ( 'NONE', *, *, #648, .F. ) ;
#162 = DIRECTION ( 'NONE',  ( -0.000000000000000000, -1.000000000000000000, -0.000000000000000000 ) ) ;
#163 = CARTESIAN_POINT ( 'NONE',  ( 0.9235930847048928749, -7.197838173812045603, 5.423708290368158380 ) ) ;
#164 = CARTESIAN_POINT ( 'NONE',  ( 0.000000000000000000, -12.00000000000000000, 0.000000000000000000 ) ) ;
#165 = CARTESIAN_POINT ( 'NONE',  ( 1.461048328345017966, -5.606917965873452481, 5.302971082310856232 ) ) ;
#166 = DIRECTION ( 'NONE',  ( 0.000000000000000000, 0.000000000000000000, -1.000000000000000000 ) ) ;
#167 = EDGE_CURVE ( 'NONE', #697, #363, #292, .T. ) ;
#168 = DIRECTION ( 'NONE',  ( -0.000000000000000000, -1.000000000000000000, -0.000000000000000000 ) ) ;
#169 = DIRECTION ( 'NONE',  ( 0.000000000000000000, 1.000000000000000000, 0.000000000000000000 ) ) ;
#170 = ORIENTED_EDGE ( 'NONE', *, *, #167, .F. ) ;
#171 = PLANE ( 'NONE',  #549 ) ;
#172 = SURFACE_SIDE_STYLE ('',( #20 ) ) ;
#173 = FACE_OUTER_BOUND ( 'NONE', #92, .T. ) ;
#174 = EDGE_CURVE ( 'NONE', #564, #352, #665, .T. ) ;
#175 = VECTOR ( 'NONE', #611, 1000.000000000000000 ) ;
#176 = VECTOR ( 'NONE', #271, 1000.000000000000000 ) ;
#177 = CARTESIAN_POINT ( 'NONE',  ( 0.000000000000000000, 0.5000000000000004441, 0.000000000000000000 ) ) ;
#178 = EDGE_LOOP ( 'NONE', ( #369, #647 ) ) ;
#179 = CYLINDRICAL_SURFACE ( 'NONE', #233, 1.500000000000000222 ) ;
#180 = VERTEX_POINT ( 'NONE', #231 ) ;
#181 = CARTESIAN_POINT ( 'NONE',  ( -1.309407898711723472, -5.242137810462532244, 5.342431121656172621 ) ) ;
#182 = ORIENTED_EDGE ( 'NONE', *, *, #262, .F. ) ;
#183 = DIRECTION ( 'NONE',  ( 0.4999999999999948375, 0.000000000000000000, -0.8660254037844415942 ) ) ;
#184 = AXIS2_PLACEMENT_3D ( 'NONE', #540, #319, #533 ) ;
#185 = EDGE_CURVE ( 'NONE', #508, #352, #666, .T. ) ;
#186 = EDGE_LOOP ( 'NONE', ( #699, #337, #466, #461, #119, #24, #689 ) ) ;
#187 = VECTOR ( 'NONE', #603, 1000.000000000000000 ) ;
#188 = CARTESIAN_POINT ( 'NONE',  ( -1.130271877986773532, -6.990887238431375827, 2.779897518548358093 ) ) ;
#189 =( LENGTH_UNIT ( ) NAMED_UNIT ( * ) SI_UNIT ( .MILLI., .METRE. ) );
#190 = ORIENTED_EDGE ( 'NONE', *, *, #66, .F. ) ;
#191 = DIRECTION ( 'NONE',  ( 0.000000000000000000, 0.000000000000000000, -1.000000000000000000 ) ) ;
#192 = CARTESIAN_POINT ( 'NONE',  ( 0.000000000000000000, 6.000000000000000000, 0.000000000000000000 ) ) ;
#193 = EDGE_LOOP ( 'NONE', ( #662, #487, #79, #307 ) ) ;
#194 = EDGE_CURVE ( 'NONE', #511, #151, #4, .T. ) ;
#195 = CARTESIAN_POINT ( 'NONE',  ( -0.9157747582724696800, -7.192033862090275953, 5.423848615368970449 ) ) ;
#196 = DIRECTION ( 'NONE',  ( 0.000000000000000000, 0.000000000000000000, 1.000000000000000000 ) ) ;
#197 = ORIENTED_EDGE ( 'NONE', *, *, #273, .F. ) ;
#198 = DIRECTION ( 'NONE',  ( 0.000000000000000000, -0.000000000000000000, 1.000000000000000000 ) ) ;
#199 = FACE_BOUND ( 'NONE', #178, .T. ) ;
#200 = ORIENTED_EDGE ( 'NONE', *, *, #534, .T. ) ;
#201 = PLANE ( 'NONE',  #349 ) ;
#202 = CARTESIAN_POINT ( 'NONE',  ( 0.000000000000000000, 0.000000000000000000, 0.000000000000000000 ) ) ;
#203 = ORIENTED_EDGE ( 'NONE', *, *, #1, .T. ) ;
#204 = CARTESIAN_POINT ( 'NONE',  ( 3.464101615137743728, 0.000000000000000000, -6.000000000000013323 ) ) ;
#205 = CARTESIAN_POINT ( 'NONE',  ( 1.499999999999999556, -5.802177050560503702, 5.291502622129182321 ) ) ;
#206 = VERTEX_POINT ( 'NONE', #236 ) ;
#207 = ADVANCED_FACE ( 'NONE', ( #456 ), #179, .F. ) ;
#208 = PRESENTATION_LAYER_ASSIGNMENT (  '', '', ( #515 ) ) ;
#209 = CARTESIAN_POINT ( 'NONE',  ( 3.673940397442060361E-16, 0.5000000000000004441, 3.000000000000000444 ) ) ;
#210 = UNCERTAINTY_MEASURE_WITH_UNIT (LENGTH_MEASURE( 1.000000000000000082E-05 ), #189, 'distance_accuracy_value', 'NONE');
#211 = DIRECTION ( 'NONE',  ( -1.000000000000000000, 0.000000000000000000, 3.505400730386694874E-15 ) ) ;
#212 = CARTESIAN_POINT ( 'NONE',  ( 0.000000000000000000, 0.5000000000000004441, 0.000000000000000000 ) ) ;
#213 = LINE ( 'NONE', #265, #690 ) ;
#214 = B_SPLINE_CURVE_WITH_KNOTS ( 'NONE', 3,
 ( #485, #433, #659, #274, #387, #379, #589, #105, #495, #537, #332, #51, #270, #489, #653, #592 ),
 .UNSPECIFIED., .F., .F.,
 ( 4, 2, 2, 2, 2, 2, 2, 4 ),
 ( 0.004770895364085830752, 0.005068710462286199481, 0.005366525560486568210, 0.005664340658686937806, 0.005962155756887306535, 0.006259970855087675264, 0.006557785953288043992, 0.007153416149688781450 ),
 .UNSPECIFIED. ) ;
#215 = CARTESIAN_POINT ( 'NONE',  ( -1.500000000000001332, -5.898967694940651540, 2.598076211353316012 ) ) ;
#216 = CARTESIAN_POINT ( 'NONE',  ( 0.000000000000000000, -7.500000000000001776, 5.500000000000000000 ) ) ;
#217 = ADVANCED_FACE ( 'NONE', ( #295 ), #351, .F. ) ;
#218 = PLANE ( 'NONE',  #527 ) ;
#219 =( NAMED_UNIT ( * ) PLANE_ANGLE_UNIT ( ) SI_UNIT ( $, .RADIAN. ) );
#220 = CYLINDRICAL_SURFACE ( 'NONE', #49, 1.500000000000000222 ) ;
#221 = ORIENTED_EDGE ( 'NONE', *, *, #473, .F. ) ;
#222 = VECTOR ( 'NONE', #467, 1000.000000000000000 ) ;
#223 = CARTESIAN_POINT ( 'NONE',  ( 0.000000000000000000, 0.5000000000000004441, 0.000000000000000000 ) ) ;
#224 = CARTESIAN_POINT ( 'NONE',  ( 3.939760687290985999E-21, -4.500000000000000888, 5.500000000000000000 ) ) ;
#225 = DIRECTION ( 'NONE',  ( 0.000000000000000000, -1.000000000000000000, 0.000000000000000000 ) ) ;
#226 = ORIENTED_EDGE ( 'NONE', *, *, #412, .T. ) ;
#227 = LINE ( 'NONE', #142, #8 ) ;
#228 =( NAMED_UNIT ( * ) PLANE_ANGLE_UNIT ( ) SI_UNIT ( $, .RADIAN. ) );
#229 = CARTESIAN_POINT ( 'NONE',  ( 0.1976372011592276989, -7.490180157013763385, 5.497298483443024963 ) ) ;
#230 = ADVANCED_FACE ( 'NONE', ( #342 ), #23, .F. ) ;
#231 = CARTESIAN_POINT ( 'NONE',  ( -3.464101615137785473, 6.000000000000000000, -5.999999999999988454 ) ) ;
#232 = ORIENTED_EDGE ( 'NONE', *, *, #294, .T. ) ;
#233 = AXIS2_PLACEMENT_3D ( 'NONE', #396, #614, #669 ) ;
#234 = CIRCLE ( 'NONE', #569, 2.000000000000000000 ) ;
#235 = FILL_AREA_STYLE_COLOUR ( '', #257 ) ;
#236 = CARTESIAN_POINT ( 'NONE',  ( 6.928203230275514990, 0.000000000000000000, 0.000000000000000000 ) ) ;
#237 = VERTEX_POINT ( 'NONE', #141 ) ;
#238 =( LENGTH_UNIT ( ) NAMED_UNIT ( * ) SI_UNIT ( .MILLI., .METRE. ) );
#239 = CARTESIAN_POINT ( 'NONE',  ( -3.464101615137785473, 0.000000000000000000, -5.999999999999988454 ) ) ;
#240 = ORIENTED_EDGE ( 'NONE', *, *, #326, .F. ) ;
#241 = ADVANCED_FACE ( 'NONE', ( #565, #89 ), #201, .F. ) ;
#242 = CARTESIAN_POINT ( 'NONE',  ( -3.464101615137785473, 6.000000000000000000, -5.999999999999988454 ) ) ;
#243 = EDGE_LOOP ( 'NONE', ( #441, #693, #402, #136 ) ) ;
#244 = DIRECTION ( 'NONE',  ( -0.4999999999999949485, 0.000000000000000000, 0.8660254037844415942 ) ) ;
#245 = AXIS2_PLACEMENT_3D ( 'NONE', #254, #423, #259 ) ;
#246 = ORIENTED_EDGE ( 'NONE', *, *, #174, .T. ) ;
#247 = CARTESIAN_POINT ( 'NONE',  ( 0.000000000000000000, 0.5000000000000004441, 0.000000000000000000 ) ) ;
#248 = FACE_BOUND ( 'NONE', #676, .T. ) ;
#249 = ORIENTED_EDGE ( 'NONE', *, *, #671, .T. ) ;
#250 = CARTESIAN_POINT ( 'NONE',  ( -1.298840366761972343, -6.756520244477879800, 2.704905179012717209 ) ) ;
#251 = DIRECTION ( 'NONE',  ( 0.000000000000000000, -0.000000000000000000, 1.000000000000000000 ) ) ;
#252 = ORIENTED_EDGE ( 'NONE', *, *, #194, .T. ) ;
#253 = CARTESIAN_POINT ( 'NONE',  ( -6.928203230275514990, 0.000000000000000000, 4.837938458043934978E-14 ) ) ;
#254 = CARTESIAN_POINT ( 'NONE',  ( 0.000000000000000000, -12.00000000000000000, 0.000000000000000000 ) ) ;
#255 = ORIENTED_EDGE ( 'NONE', *, *, #286, .T. ) ;
#256 = AXIS2_PLACEMENT_3D ( 'NONE', #177, #563, #344 ) ;
#257 = COLOUR_RGB ( '',0.8313725490196077761, 0.6705882352941175961, 0.1294117647058823373 ) ;
#258 = LINE ( 'NONE', #253, #63 ) ;
#259 = DIRECTION ( 'NONE',  ( 0.000000000000000000, 0.000000000000000000, 1.000000000000000000 ) ) ;
#260 = VERTEX_POINT ( 'NONE', #582 ) ;
#261 = DIRECTION ( 'NONE',  ( 0.000000000000000000, 0.000000000000000000, -1.000000000000000000 ) ) ;
#262 = EDGE_CURVE ( 'NONE', #72, #511, #577, .T. ) ;
#263 = CARTESIAN_POINT ( 'NONE',  ( 3.464101615137827661, 6.000000000000000000, 5.999999999999965361 ) ) ;
#264 = ORIENTED_EDGE ( 'NONE', *, *, #19, .F. ) ;
#265 = CARTESIAN_POINT ( 'NONE',  ( -3.464101615137701984, 6.000000000000000000, 6.000000000000037303 ) ) ;
#266 = CARTESIAN_POINT ( 'NONE',  ( 3.464101615137743728, 0.000000000000000000, -6.000000000000013323 ) ) ;
#267 = ADVANCED_FACE ( 'NONE', ( #94 ), #38, .F. ) ;
#268 = ORIENTED_EDGE ( 'NONE', *, *, #400, .F. ) ;
#269 = VECTOR ( 'NONE', #121, 1000.000000000000000 ) ;
#270 = CARTESIAN_POINT ( 'NONE',  ( 0.6694090727346186931, -7.345892023812178984, 2.925802005197476241 ) ) ;
#271 = DIRECTION ( 'NONE',  ( -0.000000000000000000, -1.000000000000000000, -0.000000000000000000 ) ) ;
#272 = ORIENTED_EDGE ( 'NONE', *, *, #450, .T. ) ;
#273 = EDGE_CURVE ( 'NONE', #363, #505, #258, .T. ) ;
#274 = CARTESIAN_POINT ( 'NONE',  ( 1.450462349962868824, -6.394957628225829360, 2.626150969578788352 ) ) ;
#275 = DIRECTION ( 'NONE',  ( 0.000000000000000000, 0.000000000000000000, 1.000000000000000000 ) ) ;
#276 = DIRECTION ( 'NONE',  ( -0.8660254037844415942, 0.000000000000000000, -0.4999999999999948375 ) ) ;
#277 = CARTESIAN_POINT ( 'NONE',  ( -1.500000000000001554, -6.000000000000000888, 8.000000000000000000 ) ) ;
#278 = CARTESIAN_POINT ( 'NONE',  ( 0.7535101175446661248, -4.699310374628292486, 5.448759944368913644 ) ) ;
#279 = DIRECTION ( 'NONE',  ( -0.5000000000000008882, 0.000000000000000000, -0.8660254037844380415 ) ) ;
#280 = EDGE_LOOP ( 'NONE', ( #532, #366, #197, #170, #161, #264 ) ) ;
#281 = AXIS2_PLACEMENT_3D ( 'NONE', #202, #305, #196 ) ;
#282 = LINE ( 'NONE', #322, #442 ) ;
#283 =( NAMED_UNIT ( * ) SI_UNIT ( $, .STERADIAN. ) SOLID_ANGLE_UNIT ( ) );
#284 = CYLINDRICAL_SURFACE ( 'NONE', #453, 5.500000000000000000 ) ;
#285 = CARTESIAN_POINT ( 'NONE',  ( 3.464101615137827661, 0.000000000000000000, 5.999999999999965361 ) ) ;
#286 = EDGE_CURVE ( 'NONE', #625, #363, #308, .T. ) ;
#287 = VERTEX_POINT ( 'NONE', #475 ) ;
#288 = CARTESIAN_POINT ( 'NONE',  ( 0.000000000000000000, 0.5000000000000004441, -3.000000000000000444 ) ) ;
#289 = ORIENTED_EDGE ( 'NONE', *, *, #648, .T. ) ;
#290 = VECTOR ( 'NONE', #449, 1000.000000000000000 ) ;
#291 = VECTOR ( 'NONE', #211, 1000.000000000000000 ) ;
#292 = LINE ( 'NONE', #239, #474 ) ;
#293 = ORIENTED_EDGE ( 'NONE', *, *, #167, .T. ) ;
#294 = EDGE_CURVE ( 'NONE', #521, #457, #668, .T. ) ;
#295 = FACE_OUTER_BOUND ( 'NONE', #186, .T. ) ;
#296 = ORIENTED_EDGE ( 'NONE', *, *, #306, .F. ) ;
#297 = DIRECTION ( 'NONE',  ( 0.4999999999999948930, 0.000000000000000000, -0.8660254037844415942 ) ) ;
#298 = ORIENTED_EDGE ( 'NONE', *, *, #340, .T. ) ;
#299 = AXIS2_PLACEMENT_3D ( 'NONE', #591, #276, #108 ) ;
#300 = CARTESIAN_POINT ( 'NONE',  ( -1.310397750426997909, -6.755648015747648394, 5.342176378806201775 ) ) ;
#301 = EDGE_CURVE ( 'NONE', #477, #480, #97, .T. ) ;
#302 = CARTESIAN_POINT ( 'NONE',  ( 2.449293598294706414E-16, 6.000000000000000000, 2.000000000000000000 ) ) ;
#303 = ORIENTED_EDGE ( 'NONE', *, *, #126, .T. ) ;
#304 = CARTESIAN_POINT ( 'NONE',  ( 6.928203230275514990, 6.000000000000000000, 0.000000000000000000 ) ) ;
#305 = DIRECTION ( 'NONE',  ( 0.000000000000000000, 1.000000000000000000, 0.000000000000000000 ) ) ;
#306 = EDGE_CURVE ( 'NONE', #457, #521, #619, .T. ) ;
#307 = ORIENTED_EDGE ( 'NONE', *, *, #642, .T. ) ;
#308 = LINE ( 'NONE', #530, #222 ) ;
#309 = CARTESIAN_POINT ( 'NONE',  ( 0.9269101245195002781, -4.805057158793733407, 2.856910549263500076 ) ) ;
#310 = VERTEX_POINT ( 'NONE', #413 ) ;
#311 = DIRECTION ( 'NONE',  ( 0.000000000000000000, 1.000000000000000000, 0.000000000000000000 ) ) ;
#312 = CARTESIAN_POINT ( 'NONE',  ( -3.464101615137701984, 6.000000000000000000, 6.000000000000037303 ) ) ;
#313 = ORIENTED_EDGE ( 'NONE', *, *, #695, .T. ) ;
#314 = VECTOR ( 'NONE', #162, 1000.000000000000000 ) ;
#315 = EDGE_CURVE ( 'NONE', #237, #287, #570, .T. ) ;
#316 = DIRECTION ( 'NONE',  ( 0.5000000000000069944, 0.000000000000000000, 0.8660254037844344888 ) ) ;
#317 = CARTESIAN_POINT ( 'NONE',  ( -3.464101615137701984, 0.000000000000000000, 6.000000000000037303 ) ) ;
#318 = VERTEX_POINT ( 'NONE', #470 ) ;
#319 = DIRECTION ( 'NONE',  ( 0.000000000000000000, 1.000000000000000000, 0.000000000000000000 ) ) ;
#320 = CARTESIAN_POINT ( 'NONE',  ( -0.1000114948070666004, -4.499999999999995559, 3.000000000000003997 ) ) ;
#321 = CARTESIAN_POINT ( 'NONE',  ( 1.500000000000002442, -6.000000000000006217, 5.291502622129180544 ) ) ;
#322 = CARTESIAN_POINT ( 'NONE',  ( 3.464101615137827661, 6.000000000000000000, 5.999999999999965361 ) ) ;
#323 = APPLICATION_CONTEXT ( 'automotive_design' ) ;
#324 = CARTESIAN_POINT ( 'NONE',  ( 0.3946058035788913010, -4.539660141835593521, 5.488835771754903448 ) ) ;
#325 = CARTESIAN_POINT ( 'NONE',  ( 0.000000000000000000, -12.00000000000000000, 0.000000000000000000 ) ) ;
#326 = EDGE_CURVE ( 'NONE', #36, #318, #462, .T. ) ;
#327 = COLOUR_RGB ( '',0.8313725490196077761, 0.6705882352941175961, 0.1294117647058823373 ) ;
#328 =( GEOMETRIC_REPRESENTATION_CONTEXT ( 3 ) GLOBAL_UNCERTAINTY_ASSIGNED_CONTEXT ( ( #90 ) ) GLOBAL_UNIT_ASSIGNED_CONTEXT ( ( #238, #228, #283 ) ) REPRESENTATION_CONTEXT ( 'NONE', 'WORKASPACE' ) );
#329 = DIRECTION ( 'NONE',  ( 0.4999999999999948930, 0.000000000000000000, -0.8660254037844415942 ) ) ;
#330 = CARTESIAN_POINT ( 'NONE',  ( -0.4897361239288610668, -4.578830311316408164, 2.961183781437843443 ) ) ;
#331 = CARTESIAN_POINT ( 'NONE',  ( 3.673940397442060361E-16, 0.5000000000000004441, 3.000000000000000444 ) ) ;
#332 = CARTESIAN_POINT ( 'NONE',  ( 0.9178966632838897466, -7.190344496282114584, 2.857363208540128152 ) ) ;
#333 = CARTESIAN_POINT ( 'NONE',  ( 0.09957661842912909900, -7.500000000000000888, 5.499999999999999112 ) ) ;
#334 = ORIENTED_EDGE ( 'NONE', *, *, #37, .T. ) ;
#335 = CYLINDRICAL_SURFACE ( 'NONE', #499, 5.500000000000000000 ) ;
#336 = LINE ( 'NONE', #383, #176 ) ;
#337 = ORIENTED_EDGE ( 'NONE', *, *, #80, .T. ) ;
#338 = ORIENTED_EDGE ( 'NONE', *, *, #571, .T. ) ;
#339 = AXIS2_PLACEMENT_3D ( 'NONE', #524, #32, #251 ) ;
#340 = EDGE_CURVE ( 'NONE', #373, #237, #282, .T. ) ;
#341 = FACE_OUTER_BOUND ( 'NONE', #634, .T. ) ;
#342 = FACE_OUTER_BOUND ( 'NONE', #345, .T. ) ;
#343 = CARTESIAN_POINT ( 'NONE',  ( 0.000000000000000000, 0.000000000000000000, 0.000000000000000000 ) ) ;
#344 = DIRECTION ( 'NONE',  ( 0.000000000000000000, 0.000000000000000000, -1.000000000000000000 ) ) ;
#345 = EDGE_LOOP ( 'NONE', ( #293, #452, #514, #226 ) ) ;
#346 = PLANE ( 'NONE',  #397 ) ;
#347 = EDGE_CURVE ( 'NONE', #180, #625, #586, .T. ) ;
#348 = EDGE_LOOP ( 'NONE', ( #249, #246, #334, #472 ) ) ;
#349 = AXIS2_PLACEMENT_3D ( 'NONE', #519, #311, #198 ) ;
#350 = AXIS2_PLACEMENT_3D ( 'NONE', #566, #29, #628 ) ;
#351 = CYLINDRICAL_SURFACE ( 'NONE', #656, 3.000000000000000444 ) ;
#352 = VERTEX_POINT ( 'NONE', #382 ) ;
#353 = PRODUCT_RELATED_PRODUCT_CATEGORY ( 'part', '', ( #376 ) ) ;
#354 = CARTESIAN_POINT ( 'NONE',  ( 0.000000000000000000, 0.5000000000000004441, 0.000000000000000000 ) ) ;
#355 = ORIENTED_EDGE ( 'NONE', *, *, #705, .T. ) ;
#356 = ADVANCED_FACE ( 'NONE', ( #436 ), #335, .T. ) ;
#357 = CARTESIAN_POINT ( 'NONE',  ( -1.500000000000001554, -6.000000000000000888, 2.598076211353315568 ) ) ;
#358 = CARTESIAN_POINT ( 'NONE',  ( 0.1998593847135141655, -4.499999999999998224, 3.000000000000003109 ) ) ;
#359 = VERTEX_POINT ( 'NONE', #204 ) ;
#360 = CARTESIAN_POINT ( 'NONE',  ( -0.1999494148261318494, -7.489943522628343509, 2.994935113156032891 ) ) ;
#361 = VECTOR ( 'NONE', #5, 999.9999999999998863 ) ;
#362 = DIRECTION ( 'NONE',  ( 0.5000000000000069944, 0.000000000000000000, 0.8660254037844344888 ) ) ;
#363 = VERTEX_POINT ( 'NONE', #599 ) ;
#364 = DIRECTION ( 'NONE',  ( 0.000000000000000000, 0.000000000000000000, -1.000000000000000000 ) ) ;
#365 = CARTESIAN_POINT ( 'NONE',  ( 6.735557395310442023E-16, 0.000000000000000000, -5.500000000000000000 ) ) ;
#366 = ORIENTED_EDGE ( 'NONE', *, *, #1, .F. ) ;
#367 = CARTESIAN_POINT ( 'NONE',  ( -0.09964457540309730466, -7.500000000000004441, 5.500000000000002665 ) ) ;
#368 = CARTESIAN_POINT ( 'NONE',  ( 0.000000000000000000, -12.00000000000000000, 5.500000000000000000 ) ) ;
#369 = ORIENTED_EDGE ( 'NONE', *, *, #671, .F. ) ;
#370 = ADVANCED_FACE ( 'NONE', ( #543 ), #702, .F. ) ;
#371 = CARTESIAN_POINT ( 'NONE',  ( 0.000000000000000000, -7.500000000000001776, 5.500000000000000000 ) ) ;
#372 = PRESENTATION_STYLE_ASSIGNMENT (( #153 ) ) ;
#373 = VERTEX_POINT ( 'NONE', #62 ) ;
#374 = PRODUCT_DEFINITION ( 'Î´Öª', '', #74, #610 ) ;
#375 = CARTESIAN_POINT ( 'NONE',  ( 6.928203230275514990, 6.000000000000000000, 0.000000000000000000 ) ) ;
#376 = PRODUCT ( '\X2\516d89d280548f745668\X0\', '\X2\516d89d280548f745668\X0\', '', ( #613 ) ) ;
#377 = DIRECTION ( 'NONE',  ( 0.000000000000000000, 1.000000000000000000, 0.000000000000000000 ) ) ;
#378 = ORIENTED_EDGE ( 'NONE', *, *, #80, .F. ) ;
#379 = CARTESIAN_POINT ( 'NONE',  ( 1.345025372029432287, -6.671323747037946283, 2.681932659631433680 ) ) ;
#380 = CARTESIAN_POINT ( 'NONE',  ( -1.489901466034770916, -5.800040348869837992, 2.603977457259761152 ) ) ;
#381 = PLANE ( 'NONE',  #299 ) ;
#382 = CARTESIAN_POINT ( 'NONE',  ( 2.449293598294706414E-16, 0.5000000000000004441, 2.000000000000000000 ) ) ;
#383 = CARTESIAN_POINT ( 'NONE',  ( 0.000000000000000000, 6.000000000000000000, -2.000000000000000000 ) ) ;
#384 = DIRECTION ( 'NONE',  ( 0.000000000000000000, -0.000000000000000000, -1.000000000000000000 ) ) ;
#385 = CIRCLE ( 'NONE', #405, 2.000000000000000000 ) ;
#386 = VECTOR ( 'NONE', #362, 1000.000000000000227 ) ;
#387 = CARTESIAN_POINT ( 'NONE',  ( 1.421483182539800660, -6.489034136330479541, 2.642203929290312114 ) ) ;
#388 = CARTESIAN_POINT ( 'NONE',  ( -0.3934343155496993205, -4.549112136514791516, 2.975698992973313750 ) ) ;
#389 = FACE_OUTER_BOUND ( 'NONE', #7, .T. ) ;
#390 = CARTESIAN_POINT ( 'NONE',  ( 6.928203230275514990, 6.000000000000000000, 0.000000000000000000 ) ) ;
#391 = DIRECTION ( 'NONE',  ( -1.000000000000000000, 0.000000000000000000, 3.505400730386694874E-15 ) ) ;
#392 = CARTESIAN_POINT ( 'NONE',  ( 3.673940397442060361E-16, -12.00000000000000000, 3.000000000000000444 ) ) ;
#393 = ORIENTED_EDGE ( 'NONE', *, *, #454, .T. ) ;
#394 = EDGE_CURVE ( 'NONE', #237, #206, #649, .T. ) ;
#395 = DIRECTION ( 'NONE',  ( 0.000000000000000000, -1.000000000000000000, 0.000000000000000000 ) ) ;
#396 = CARTESIAN_POINT ( 'NONE',  ( -1.301042606982605321E-15, -6.000000000000000888, 8.000000000000000000 ) ) ;
#397 = AXIS2_PLACEMENT_3D ( 'NONE', #552, #408, #25 ) ;
#398 = CARTESIAN_POINT ( 'NONE',  ( -0.7534267535174615782, -4.699283881879157576, 5.448767990887389168 ) ) ;
#399 = ORIENTED_EDGE ( 'NONE', *, *, #315, .T. ) ;
#400 = EDGE_CURVE ( 'NONE', #511, #480, #102, .T. ) ;
#401 = CARTESIAN_POINT ( 'NONE',  ( -1.198902611395974205, -5.077446984106899208, 5.369602413549094067 ) ) ;
#402 = ORIENTED_EDGE ( 'NONE', *, *, #315, .F. ) ;
#403 = CARTESIAN_POINT ( 'NONE',  ( -0.4846289881489061480, -4.577070294118432692, 5.479362110531175389 ) ) ;
#404 = ORIENTED_EDGE ( 'NONE', *, *, #522, .T. ) ;
#405 = AXIS2_PLACEMENT_3D ( 'NONE', #212, #225, #542 ) ;
#406 = VECTOR ( 'NONE', #44, 1000.000000000000000 ) ;
#407 = APPLICATION_PROTOCOL_DEFINITION ( 'draft international standard', 'automotive_design', 1998, #323 ) ;
#408 = DIRECTION ( 'NONE',  ( 3.505400730386694480E-15, -0.000000000000000000, 1.000000000000000000 ) ) ;
#409 = ORIENTED_EDGE ( 'NONE', *, *, #106, .T. ) ;
#410 = CARTESIAN_POINT ( 'NONE',  ( -1.191215094961499465, -6.916687392828716696, 2.753997988981848000 ) ) ;
#411 = ORIENTED_EDGE ( 'NONE', *, *, #617, .F. ) ;
#412 = EDGE_CURVE ( 'NONE', #180, #697, #114, .T. ) ;
#413 = CARTESIAN_POINT ( 'NONE',  ( 0.000000000000000000, 0.000000000000000000, 5.500000000000000000 ) ) ;
#414 = CARTESIAN_POINT ( 'NONE',  ( 1.499999999999999334, -5.801135218364866120, 2.598076211353318232 ) ) ;
#415 = EDGE_LOOP ( 'NONE', ( #221, #240 ) ) ;
#416 = CIRCLE ( 'NONE', #84, 5.500000000000000000 ) ;
#417 = CARTESIAN_POINT ( 'NONE',  ( -0.3951059459143746455, -7.450449158231538860, 2.975484396196250270 ) ) ;
#418 = AXIS2_PLACEMENT_3D ( 'NONE', #604, #169, #275 ) ;
#419 = CARTESIAN_POINT ( 'NONE',  ( 0.3994355678972641988, -4.540735130623215099, 2.979074764181981028 ) ) ;
#420 = ORIENTED_EDGE ( 'NONE', *, *, #306, .T. ) ;
#421 = DIRECTION ( 'NONE',  ( 0.000000000000000000, 0.000000000000000000, -1.000000000000000000 ) ) ;
#422 = EDGE_CURVE ( 'NONE', #287, #359, #644, .T. ) ;
#423 = DIRECTION ( 'NONE',  ( 0.000000000000000000, 1.000000000000000000, 0.000000000000000000 ) ) ;
#424 = EDGE_LOOP ( 'NONE', ( #123, #313, #22, #674 ) ) ;
#425 = CARTESIAN_POINT ( 'NONE',  ( -0.6670295434436912529, -7.347120354513203111, 5.460164705893518544 ) ) ;
#426 = DIRECTION ( 'NONE',  ( 0.000000000000000000, 0.000000000000000000, -1.000000000000000000 ) ) ;
#427 = EDGE_LOOP ( 'NONE', ( #378, #296, #154, #96, #33, #459, #554 ) ) ;
#428 = CARTESIAN_POINT ( 'NONE',  ( -3.464101615137785473, 6.000000000000000000, -5.999999999999988454 ) ) ;
#429 = VECTOR ( 'NONE', #297, 999.9999999999998863 ) ;
#430 = EDGE_LOOP ( 'NONE', ( #190, #525, #130, #140, #268, #182 ) ) ;
#431 = AXIS2_PLACEMENT_3D ( 'NONE', #687, #632, #364 ) ;
#432 = ADVANCED_FACE ( 'NONE', ( #156 ), #218, .F. ) ;
#433 = CARTESIAN_POINT ( 'NONE',  ( 1.499999999999998890, -6.099351037013622800, 2.598076211353317788 ) ) ;
#434 = CARTESIAN_POINT ( 'NONE',  ( 1.192512510962664418, -5.084905794904186038, 5.369451140671790412 ) ) ;
#435 = DIRECTION ( 'NONE',  ( 0.000000000000000000, 1.000000000000000000, 0.000000000000000000 ) ) ;
#436 = FACE_OUTER_BOUND ( 'NONE', #45, .T. ) ;
#437 = CARTESIAN_POINT ( 'NONE',  ( 3.464101615137743728, 6.000000000000000000, -6.000000000000013323 ) ) ;
#438 = LINE ( 'NONE', #331, #700 ) ;
#439 = CARTESIAN_POINT ( 'NONE',  ( 0.000000000000000000, 0.5000000000000004441, -3.000000000000000444 ) ) ;
#440 = CARTESIAN_POINT ( 'NONE',  ( 0.3907622732058778636, -7.451551655807875818, 5.486953246127217909 ) ) ;
#441 = ORIENTED_EDGE ( 'NONE', *, *, #19, .T. ) ;
#442 = VECTOR ( 'NONE', #329, 999.9999999999998863 ) ;
#443 = DIRECTION ( 'NONE',  ( -0.000000000000000000, -1.000000000000000000, -0.000000000000000000 ) ) ;
#444 = CARTESIAN_POINT ( 'NONE',  ( 0.1963455190365064884, -4.500000000000000888, 5.500000000000000000 ) ) ;
#445 = LINE ( 'NONE', #595, #630 ) ;
#446 = EDGE_CURVE ( 'NONE', #477, #36, #159, .T. ) ;
#447 = PRODUCT_DEFINITION_SHAPE ( 'NONE', 'NONE',  #374 ) ;
#448 = CARTESIAN_POINT ( 'NONE',  ( 3.674164151889682942E-16, -7.500000000000001776, 3.000000000000000444 ) ) ;
#449 = DIRECTION ( 'NONE',  ( 1.000000000000000000, 0.000000000000000000, -1.039100930793198864E-14 ) ) ;
#450 = EDGE_CURVE ( 'NONE', #483, #612, #539, .T. ) ;
#451 = LINE ( 'NONE', #288, #109 ) ;
#452 = ORIENTED_EDGE ( 'NONE', *, *, #286, .F. ) ;
#453 = AXIS2_PLACEMENT_3D ( 'NONE', #325, #435, #53 ) ;
#454 = EDGE_CURVE ( 'NONE', #622, #373, #213, .T. ) ;
#455 = AXIS2_PLACEMENT_3D ( 'NONE', #247, #478, #261 ) ;
#456 = FACE_OUTER_BOUND ( 'NONE', #430, .T. ) ;
#457 = VERTEX_POINT ( 'NONE', #439 ) ;
#458 = CARTESIAN_POINT ( 'NONE',  ( 2.449293598294706414E-16, 6.000000000000000000, 2.000000000000000000 ) ) ;
#459 = ORIENTED_EDGE ( 'NONE', *, *, #465, .F. ) ;
#460 = CARTESIAN_POINT ( 'NONE',  ( 0.000000000000000000, 6.000000000000000000, 0.000000000000000000 ) ) ;
#461 = ORIENTED_EDGE ( 'NONE', *, *, #301, .F. ) ;
#462 = CIRCLE ( 'NONE', #431, 3.000000000000000444 ) ;
#463 = DIRECTION ( 'NONE',  ( 0.000000000000000000, 1.000000000000000000, 0.000000000000000000 ) ) ;
#464 = CARTESIAN_POINT ( 'NONE',  ( 3.673940397442060361E-16, 0.5000000000000004441, 3.000000000000000444 ) ) ;
#465 = EDGE_CURVE ( 'NONE', #17, #477, #214, .T. ) ;
#466 = ORIENTED_EDGE ( 'NONE', *, *, #682, .F. ) ;
#467 = DIRECTION ( 'NONE',  ( -0.000000000000000000, -1.000000000000000000, -0.000000000000000000 ) ) ;
#468 = CARTESIAN_POINT ( 'NONE',  ( -1.500000000000001554, -6.000000000000000888, 5.291502622129179656 ) ) ;
#469 = VERTEX_POINT ( 'NONE', #111 ) ;
#470 = CARTESIAN_POINT ( 'NONE',  ( 0.000000000000000000, -12.00000000000000000, -3.000000000000000444 ) ) ;
#471 = CARTESIAN_POINT ( 'NONE',  ( 1.499999999999998890, -6.000000000000000888, 2.598076211353317344 ) ) ;
#472 = ORIENTED_EDGE ( 'NONE', *, *, #652, .F. ) ;
#473 = EDGE_CURVE ( 'NONE', #318, #36, #678, .T. ) ;
#474 = VECTOR ( 'NONE', #244, 999.9999999999998863 ) ;
#475 = CARTESIAN_POINT ( 'NONE',  ( 3.464101615137743728, 6.000000000000000000, -6.000000000000013323 ) ) ;
#476 = CARTESIAN_POINT ( 'NONE',  ( -6.928203230275514990, 6.000000000000000000, 4.837938458043934978E-14 ) ) ;
#477 = VERTEX_POINT ( 'NONE', #448 ) ;
#478 = DIRECTION ( 'NONE',  ( 0.000000000000000000, -1.000000000000000000, 0.000000000000000000 ) ) ;
#479 = DIRECTION ( 'NONE',  ( 0.000000000000000000, 1.000000000000000000, 0.000000000000000000 ) ) ;
#480 = VERTEX_POINT ( 'NONE', #663 ) ;
#481 = CARTESIAN_POINT ( 'NONE',  ( 3.674164151889682942E-16, -7.500000000000001776, 3.000000000000000444 ) ) ;
#482 = CARTESIAN_POINT ( 'NONE',  ( -1.421119323474283602, -5.510087833782698397, 2.642393432193892000 ) ) ;
#483 = VERTEX_POINT ( 'NONE', #606 ) ;
#484 = ADVANCED_FACE ( 'NONE', ( #341 ), #171, .F. ) ;
#485 = CARTESIAN_POINT ( 'NONE',  ( 1.499999999999998890, -6.000000000000000888, 2.598076211353317344 ) ) ;
#486 = CARTESIAN_POINT ( 'NONE',  ( -1.196799736820474802, -5.075501381995226602, 2.754782372497110110 ) ) ;
#487 = ORIENTED_EDGE ( 'NONE', *, *, #394, .F. ) ;
#488 = VECTOR ( 'NONE', #52, 1000.000000000000000 ) ;
#489 = CARTESIAN_POINT ( 'NONE',  ( 0.3992149556331346383, -7.459028034302804144, 2.978981527352391190 ) ) ;
#490 = CARTESIAN_POINT ( 'NONE',  ( -0.7603198214786199838, -4.692264250881598819, 2.907871593312238545 ) ) ;
#491 = CARTESIAN_POINT ( 'NONE',  ( 6.928203230275514990, 0.000000000000000000, 0.000000000000000000 ) ) ;
#492 = CARTESIAN_POINT ( 'NONE',  ( -3.464101615137785473, 6.000000000000000000, -5.999999999999988454 ) ) ;
#493 = DIRECTION ( 'NONE',  ( -0.000000000000000000, -1.000000000000000000, -0.000000000000000000 ) ) ;
#494 = EDGE_CURVE ( 'NONE', #622, #505, #227, .T. ) ;
#495 = CARTESIAN_POINT ( 'NONE',  ( 1.128469892060347091, -6.992897236153035934, 2.780623483899988369 ) ) ;
#496 = CARTESIAN_POINT ( 'NONE',  ( 1.347072267106956822, -5.332774226352482216, 5.332629504905398221 ) ) ;
#497 = DIRECTION ( 'NONE',  ( 0.000000000000000000, 1.000000000000000000, 0.000000000000000000 ) ) ;
#498 = VECTOR ( 'NONE', #279, 1000.000000000000227 ) ;
#499 = AXIS2_PLACEMENT_3D ( 'NONE', #164, #46, #655 ) ;
#500 = DIRECTION ( 'NONE',  ( -0.5000000000000069944, 0.000000000000000000, -0.8660254037844345998 ) ) ;
#501 = CARTESIAN_POINT ( 'NONE',  ( 1.451904686769178721, -6.389412612522002988, 5.304938272400264943 ) ) ;
#502 = DIRECTION ( 'NONE',  ( 0.000000000000000000, 1.000000000000000000, 0.000000000000000000 ) ) ;
#503 = ORIENTED_EDGE ( 'NONE', *, *, #412, .F. ) ;
#504 = CARTESIAN_POINT ( 'NONE',  ( -0.9155340399545759400, -4.807812215068585360, 5.423884393413936245 ) ) ;
#505 = VERTEX_POINT ( 'NONE', #317 ) ;
#506 = SHAPE_DEFINITION_REPRESENTATION ( #447, #557 ) ;
#507 = CARTESIAN_POINT ( 'NONE',  ( -0.9907613692788960202, -4.869509047435128579, 5.410489007192018640 ) ) ;
#508 = VERTEX_POINT ( 'NONE', #624 ) ;
#509 = DIRECTION ( 'NONE',  ( 0.000000000000000000, 0.000000000000000000, 1.000000000000000000 ) ) ;
#510 = CARTESIAN_POINT ( 'NONE',  ( 6.735557395310442023E-16, -12.00000000000000000, -5.500000000000000000 ) ) ;
#511 = VERTEX_POINT ( 'NONE', #468 ) ;
#512 = ADVANCED_FACE ( 'NONE', ( #520, #199 ), #82, .T. ) ;
#513 = DIRECTION ( 'NONE',  ( -0.000000000000000000, -1.000000000000000000, -0.000000000000000000 ) ) ;
#514 = ORIENTED_EDGE ( 'NONE', *, *, #347, .F. ) ;
#515 = STYLED_ITEM ( 'NONE', ( #372 ), #638 ) ;
#516 = CARTESIAN_POINT ( 'NONE',  ( -1.460206621706207519, -6.394895948260853835, 5.303186527789157445 ) ) ;
#517 = FACE_OUTER_BOUND ( 'NONE', #132, .T. ) ;
#518 = ORIENTED_EDGE ( 'NONE', *, *, #347, .T. ) ;
#519 = CARTESIAN_POINT ( 'NONE',  ( 0.000000000000000000, -12.00000000000000000, 0.000000000000000000 ) ) ;
#520 = FACE_OUTER_BOUND ( 'NONE', #561, .T. ) ;
#521 = VERTEX_POINT ( 'NONE', #464 ) ;
#522 = EDGE_CURVE ( 'NONE', #625, #622, #150, .T. ) ;
#523 = CARTESIAN_POINT ( 'NONE',  ( -0.7530329135539518548, -7.300972546736984370, 5.448827272123182297 ) ) ;
#524 = CARTESIAN_POINT ( 'NONE',  ( 0.000000000000000000, 0.000000000000000000, 0.000000000000000000 ) ) ;
#525 = ORIENTED_EDGE ( 'NONE', *, *, #626, .T. ) ;
#526 = CARTESIAN_POINT ( 'NONE',  ( 0.000000000000000000, 6.000000000000000000, 0.000000000000000000 ) ) ;
#527 = AXIS2_PLACEMENT_3D ( 'NONE', #375, #706, #54 ) ;
#528 = SURFACE_STYLE_FILL_AREA ( #95 ) ;
#529 = ORIENTED_EDGE ( 'NONE', *, *, #585, .T. ) ;
#530 = CARTESIAN_POINT ( 'NONE',  ( -6.928203230275514990, 6.000000000000000000, 4.837938458043934978E-14 ) ) ;
#531 = CARTESIAN_POINT ( 'NONE',  ( 1.198588839784446192, -5.077809365786535523, 2.753994382451425249 ) ) ;
#532 = ORIENTED_EDGE ( 'NONE', *, *, #120, .F. ) ;
#533 = DIRECTION ( 'NONE',  ( 0.000000000000000000, 0.000000000000000000, 1.000000000000000000 ) ) ;
#534 = EDGE_CURVE ( 'NONE', #469, #17, #115, .T. ) ;
#535 = CARTESIAN_POINT ( 'NONE',  ( 0.6657301003345418300, -4.652268575012410423, 5.460316968902734658 ) ) ;
#536 = CARTESIAN_POINT ( 'NONE',  ( 1.499999999999998890, -6.098884973387269426, 5.291502622129181432 ) ) ;
#537 = CARTESIAN_POINT ( 'NONE',  ( 0.9921202470488663661, -7.129153060591309377, 2.832138533316916007 ) ) ;
#538 = ORIENTED_EDGE ( 'NONE', *, *, #585, .F. ) ;
#539 = CIRCLE ( 'NONE', #184, 5.500000000000000000 ) ;
#540 = CARTESIAN_POINT ( 'NONE',  ( 0.000000000000000000, -12.00000000000000000, 0.000000000000000000 ) ) ;
#541 = CARTESIAN_POINT ( 'NONE',  ( 1.129653747296008204, -5.008307661032495695, 5.383201156098015971 ) ) ;
#542 = DIRECTION ( 'NONE',  ( 0.000000000000000000, 0.000000000000000000, -1.000000000000000000 ) ) ;
#543 = FACE_OUTER_BOUND ( 'NONE', #427, .T. ) ;
#544 =( NAMED_UNIT ( * ) SI_UNIT ( $, .STERADIAN. ) SOLID_ANGLE_UNIT ( ) );
#545 = DIRECTION ( 'NONE',  ( -1.000000000000000000, 0.000000000000000000, 0.000000000000000000 ) ) ;
#546 = EDGE_LOOP ( 'NONE', ( #289, #503, #128, #685 ) ) ;
#547 = DIRECTION ( 'NONE',  ( -0.000000000000000000, -1.000000000000000000, -0.000000000000000000 ) ) ;
#548 = LINE ( 'NONE', #491, #498 ) ;
#549 = AXIS2_PLACEMENT_3D ( 'NONE', #65, #10, #500 ) ;
#550 = CARTESIAN_POINT ( 'NONE',  ( 0.000000000000000000, -12.00000000000000000, 0.000000000000000000 ) ) ;
#551 = PRESENTATION_STYLE_ASSIGNMENT (( #75 ) ) ;
#552 = CARTESIAN_POINT ( 'NONE',  ( 3.464101615137743728, 6.000000000000000000, -6.000000000000013323 ) ) ;
#553 = CARTESIAN_POINT ( 'NONE',  ( -0.6655591162191558663, -4.652177583339698330, 5.460339317047654184 ) ) ;
#554 = ORIENTED_EDGE ( 'NONE', *, *, #534, .F. ) ;
#555 = DIRECTION ( 'NONE',  ( 0.000000000000000000, 0.000000000000000000, 1.000000000000000000 ) ) ;
#556 = EDGE_LOOP ( 'NONE', ( #143, #629, #100, #83, #60, #200 ) ) ;
#557 = ADVANCED_BREP_SHAPE_REPRESENTATION ( '\X2\516d89d280548f745668\X0\', ( #638, #609 ), #558 ) ;
#558 =( GEOMETRIC_REPRESENTATION_CONTEXT ( 3 ) GLOBAL_UNCERTAINTY_ASSIGNED_CONTEXT ( ( #13 ) ) GLOBAL_UNIT_ASSIGNED_CONTEXT ( ( #646, #219, #544 ) ) REPRESENTATION_CONTEXT ( 'NONE', 'WORKASPACE' ) );
#559 = FILL_AREA_STYLE ('',( #235 ) ) ;
#560 = CARTESIAN_POINT ( 'NONE',  ( -1.500000000000001554, -6.000000000000000888, 5.291502622129179656 ) ) ;
#561 = EDGE_LOOP ( 'NONE', ( #298, #399, #355, #518, #404, #393 ) ) ;
#562 = ADVANCED_FACE ( 'NONE', ( #517 ), #39, .F. ) ;
#563 = DIRECTION ( 'NONE',  ( 0.000000000000000000, -1.000000000000000000, 0.000000000000000000 ) ) ;
#564 = VERTEX_POINT ( 'NONE', #302 ) ;
#565 = FACE_BOUND ( 'NONE', #415, .T. ) ;
#566 = CARTESIAN_POINT ( 'NONE',  ( -3.464101615137701984, 6.000000000000000000, 6.000000000000037303 ) ) ;
#567 = ORIENTED_EDGE ( 'NONE', *, *, #273, .T. ) ;
#568 = AXIS2_PLACEMENT_3D ( 'NONE', #460, #129, #21 ) ;
#569 = AXIS2_PLACEMENT_3D ( 'NONE', #160, #377, #587 ) ;
#570 = LINE ( 'NONE', #304, #133 ) ;
#571 = EDGE_CURVE ( 'NONE', #151, #310, #139, .T. ) ;
#572 = CARTESIAN_POINT ( 'NONE',  ( 0.7635318071356241854, -4.693852262800694675, 2.907138524903747356 ) ) ;
#573 = ORIENTED_EDGE ( 'NONE', *, *, #571, .F. ) ;
#574 = CARTESIAN_POINT ( 'NONE',  ( -0.9924293010291331818, -7.128966432409051812, 5.410175833608251494 ) ) ;
#575 = CARTESIAN_POINT ( 'NONE',  ( 6.735557395310442023E-16, -12.00000000000000000, -5.500000000000000000 ) ) ;
#576 = ORIENTED_EDGE ( 'NONE', *, *, #185, .F. ) ;
#577 = B_SPLINE_CURVE_WITH_KNOTS ( 'NONE', 3,
 ( #371, #367, #639, #99, #578, #425, #523, #195, #574, #86, #300, #516, #145, #34 ),
 .UNSPECIFIED., .F., .F.,
 ( 4, 2, 2, 2, 2, 2, 4 ),
 ( 0.000000000000000000, 0.0002945879234029017400, 0.0005891758468058034800, 0.0008837637702087050573, 0.001178351693611606743, 0.001767527540417409030, 0.002356703387223211318 ),
 .UNSPECIFIED. ) ;
#578 = CARTESIAN_POINT ( 'NONE',  ( -0.4855290250847751343, -7.422646557360861763, 5.479287234039859733 ) ) ;
#579 = LINE ( 'NONE', #263, #488 ) ;
#580 = ORIENTED_EDGE ( 'NONE', *, *, #12, .T. ) ;
#581 = CIRCLE ( 'NONE', #245, 5.500000000000000000 ) ;
#582 = CARTESIAN_POINT ( 'NONE',  ( 0.000000000000000000, 6.000000000000000000, -2.000000000000000000 ) ) ;
#583 = CIRCLE ( 'NONE', #281, 5.500000000000000000 ) ;
#584 = EDGE_LOOP ( 'NONE', ( #576, #618 ) ) ;
#585 = EDGE_CURVE ( 'NONE', #310, #602, #583, .T. ) ;
#586 = LINE ( 'NONE', #492, #361 ) ;
#587 = DIRECTION ( 'NONE',  ( 0.000000000000000000, 0.000000000000000000, 1.000000000000000000 ) ) ;
#588 = CARTESIAN_POINT ( 'NONE',  ( 1.310109671359148242, -6.756258652332201464, 5.342249944405693007 ) ) ;
#589 = CARTESIAN_POINT ( 'NONE',  ( 1.298703929936774415, -6.756782039758619796, 2.704974185936727338 ) ) ;
#590 = CARTESIAN_POINT ( 'NONE',  ( -1.307451837182622922, -5.239115027033186323, 2.701455611640042331 ) ) ;
#591 = CARTESIAN_POINT ( 'NONE',  ( 3.464101615137827661, 6.000000000000000000, 5.999999999999965361 ) ) ;
#592 = CARTESIAN_POINT ( 'NONE',  ( 3.674164151889682942E-16, -7.500000000000001776, 3.000000000000000444 ) ) ;
#593 = AXIS2_PLACEMENT_3D ( 'NONE', #242, #675, #183 ) ;
#594 =( NAMED_UNIT ( * ) PLANE_ANGLE_UNIT ( ) SI_UNIT ( $, .RADIAN. ) );
#595 = CARTESIAN_POINT ( 'NONE',  ( 0.000000000000000000, -12.00000000000000000, 5.500000000000000000 ) ) ;
#596 = ADVANCED_FACE ( 'NONE', ( #248, #633 ), #147, .F. ) ;
#597 = VECTOR ( 'NONE', #443, 1000.000000000000000 ) ;
#598 = B_SPLINE_CURVE_WITH_KNOTS ( 'NONE', 3,
 ( #321, #536, #661, #501, #11, #588, #117, #163, #113, #601, #440, #229, #333, #48 ),
 .UNSPECIFIED., .F., .F.,
 ( 4, 2, 2, 2, 2, 2, 4 ),
 ( 0.007067830503272656828, 0.007362217519563844965, 0.007656604535855033103, 0.008245378568437412847, 0.008834152601019790857, 0.009128539617310981596, 0.009422926633602170601 ),
 .UNSPECIFIED. ) ;
#599 = CARTESIAN_POINT ( 'NONE',  ( -6.928203230275514990, 0.000000000000000000, 4.837938458043934978E-14 ) ) ;
#600 = CARTESIAN_POINT ( 'NONE',  ( -3.464101615137785473, 0.000000000000000000, -5.999999999999988454 ) ) ;
#601 = CARTESIAN_POINT ( 'NONE',  ( 0.4864473081188814274, -7.422301976513987043, 5.479198674863661189 ) ) ;
#602 = VERTEX_POINT ( 'NONE', #365 ) ;
#603 = DIRECTION ( 'NONE',  ( 0.000000000000000000, 0.000000000000000000, -1.000000000000000000 ) ) ;
#604 = CARTESIAN_POINT ( 'NONE',  ( 0.000000000000000000, 6.000000000000000000, 0.000000000000000000 ) ) ;
#605 = CARTESIAN_POINT ( 'NONE',  ( -3.464101615137701984, 0.000000000000000000, 6.000000000000037303 ) ) ;
#606 = CARTESIAN_POINT ( 'NONE',  ( 0.000000000000000000, -12.00000000000000000, 5.500000000000000000 ) ) ;
#607 = DIRECTION ( 'NONE',  ( -0.000000000000000000, -1.000000000000000000, -0.000000000000000000 ) ) ;
#608 = MECHANICAL_DESIGN_GEOMETRIC_PRESENTATION_REPRESENTATION (  '', ( #515 ), #85 ) ;
#609 = AXIS2_PLACEMENT_3D ( 'NONE', #343, #509, #672 ) ;
#610 = PRODUCT_DEFINITION_CONTEXT ( 'detailed design', #323, 'design' ) ;
#611 = DIRECTION ( 'NONE',  ( -0.000000000000000000, -1.000000000000000000, -0.000000000000000000 ) ) ;
#612 = VERTEX_POINT ( 'NONE', #575 ) ;
#613 = PRODUCT_CONTEXT ( 'NONE', #118, 'mechanical' ) ;
#614 = DIRECTION ( 'NONE',  ( 0.000000000000000000, 0.000000000000000000, -1.000000000000000000 ) ) ;
#615 = ORIENTED_EDGE ( 'NONE', *, *, #617, .T. ) ;
#616 = CARTESIAN_POINT ( 'NONE',  ( -0.3910957824586972498, -4.548528839405065582, 5.486931820405293259 ) ) ;
#617 = EDGE_CURVE ( 'NONE', #612, #483, #581, .T. ) ;
#618 = ORIENTED_EDGE ( 'NONE', *, *, #37, .F. ) ;
#619 = CIRCLE ( 'NONE', #144, 3.000000000000000444 ) ;
#620 = CARTESIAN_POINT ( 'NONE',  ( -1.422965229627181527, -5.515339303061487897, 5.312880554744731754 ) ) ;
#621 = B_SPLINE_CURVE_WITH_KNOTS ( 'NONE', 3,
 ( #103, #215, #380, #112, #482, #590, #486, #703, #490, #330, #388, #660, #320, #55 ),
 .UNSPECIFIED., .F., .F.,
 ( 4, 2, 2, 2, 2, 2, 4 ),
 ( 0.000000000000000000, 0.0002983029557958318217, 0.0005966059115916636435, 0.001193211823183329022, 0.001789817734774994291, 0.002088120690570827252, 0.002386423646366660212 ),
 .UNSPECIFIED. ) ;
#622 = VERTEX_POINT ( 'NONE', #312 ) ;
#623 = CARTESIAN_POINT ( 'NONE',  ( -1.421214276447249514, -6.489557464994512692, 2.642338787387526367 ) ) ;
#624 = CARTESIAN_POINT ( 'NONE',  ( 0.000000000000000000, 0.5000000000000004441, -2.000000000000000000 ) ) ;
#625 = VERTEX_POINT ( 'NONE', #476 ) ;
#626 = EDGE_CURVE ( 'NONE', #30, #17, #692, .T. ) ;
#627 = CARTESIAN_POINT ( 'NONE',  ( -1.500000000000001332, -6.100757861373010016, 2.598076211353316012 ) ) ;
#628 = DIRECTION ( 'NONE',  ( -1.000000000000000000, 0.000000000000000000, 1.039100930793198864E-14 ) ) ;
#629 = ORIENTED_EDGE ( 'NONE', *, *, #686, .F. ) ;
#630 = VECTOR ( 'NONE', #497, 1000.000000000000000 ) ;
#631 = CIRCLE ( 'NONE', #418, 2.000000000000000000 ) ;
#632 = DIRECTION ( 'NONE',  ( 0.000000000000000000, -1.000000000000000000, 0.000000000000000000 ) ) ;
#633 = FACE_OUTER_BOUND ( 'NONE', #280, .T. ) ;
#634 = EDGE_LOOP ( 'NONE', ( #567, #148, #15, #255 ) ) ;
#635 = CARTESIAN_POINT ( 'NONE',  ( -0.9251481881085992232, -7.196490275704312545, 2.857530359809960618 ) ) ;
#636 = DIRECTION ( 'NONE',  ( 0.000000000000000000, -0.000000000000000000, 1.000000000000000000 ) ) ;
#637 = ORIENTED_EDGE ( 'NONE', *, *, #454, .F. ) ;
#638 = MANIFOLD_SOLID_BREP ( 'ÇÐ³ý-À­Éì2', #677 ) ;
#639 = CARTESIAN_POINT ( 'NONE',  ( -0.1975316455245472169, -7.490170398487978609, 5.497296164531322304 ) ) ;
#640 = SURFACE_SIDE_STYLE ('',( #528 ) ) ;
#641 = ORIENTED_EDGE ( 'NONE', *, *, #126, .F. ) ;
#642 = EDGE_CURVE ( 'NONE', #373, #57, #579, .T. ) ;
#643 = VECTOR ( 'NONE', #463, 1000.000000000000000 ) ;
#644 = LINE ( 'NONE', #2, #269 ) ;
#645 = MECHANICAL_DESIGN_GEOMETRIC_PRESENTATION_REPRESENTATION (  '', ( #658 ), #328 ) ;
#646 =( LENGTH_UNIT ( ) NAMED_UNIT ( * ) SI_UNIT ( .MILLI., .METRE. ) );
#647 = ORIENTED_EDGE ( 'NONE', *, *, #695, .F. ) ;
#648 = EDGE_CURVE ( 'NONE', #359, #697, #157, .T. ) ;
#649 = LINE ( 'NONE', #390, #73 ) ;
#650 = CARTESIAN_POINT ( 'NONE',  ( 1.500000000000002442, -6.000000000000006217, 5.291502622129180544 ) ) ;
#651 = FACE_OUTER_BOUND ( 'NONE', #193, .T. ) ;
#652 = EDGE_CURVE ( 'NONE', #260, #508, #336, .T. ) ;
#653 = CARTESIAN_POINT ( 'NONE',  ( 0.1987043600117071318, -7.500000000000001776, 3.000000000000001776 ) ) ;
#654 = FACE_BOUND ( 'NONE', #584, .T. ) ;
#655 = DIRECTION ( 'NONE',  ( 0.000000000000000000, 0.000000000000000000, 1.000000000000000000 ) ) ;
#656 = AXIS2_PLACEMENT_3D ( 'NONE', #354, #607, #125 ) ;
#657 = CARTESIAN_POINT ( 'NONE',  ( -1.301042606982605321E-15, -6.000000000000000888, 8.000000000000000000 ) ) ;
#658 = STYLED_ITEM ( 'NONE', ( #551 ), #557 ) ;
#659 = CARTESIAN_POINT ( 'NONE',  ( 1.489831461154324188, -6.200586076556551696, 2.604018464034805636 ) ) ;
#660 = CARTESIAN_POINT ( 'NONE',  ( -0.1986851892459376712, -4.509902570757521545, 2.995012396136077282 ) ) ;
#661 = CARTESIAN_POINT ( 'NONE',  ( 1.490316663797616403, -6.196534078115376154, 5.294275543929175321 ) ) ;
#662 = ORIENTED_EDGE ( 'NONE', *, *, #120, .T. ) ;
#663 = CARTESIAN_POINT ( 'NONE',  ( -1.500000000000001554, -6.000000000000000888, 2.598076211353315568 ) ) ;
#664 = CARTESIAN_POINT ( 'NONE',  ( 1.499999999999998890, -6.000000000000000888, 2.598076211353317344 ) ) ;
#665 = LINE ( 'NONE', #458, #175 ) ;
#666 = CIRCLE ( 'NONE', #256, 2.000000000000000000 ) ;
#667 = ORIENTED_EDGE ( 'NONE', *, *, #494, .T. ) ;
#668 = CIRCLE ( 'NONE', #455, 3.000000000000000444 ) ;
#669 = DIRECTION ( 'NONE',  ( -1.000000000000000000, 0.000000000000000000, 0.000000000000000000 ) ) ;
#670 = ORIENTED_EDGE ( 'NONE', *, *, #12, .F. ) ;
#671 = EDGE_CURVE ( 'NONE', #260, #564, #234, .T. ) ;
#672 = DIRECTION ( 'NONE',  ( 1.000000000000000000, 0.000000000000000000, 0.000000000000000000 ) ) ;
#673 = CARTESIAN_POINT ( 'NONE',  ( 0.000000000000000000, 0.000000000000000000, 0.000000000000000000 ) ) ;
#674 = ORIENTED_EDGE ( 'NONE', *, *, #185, .T. ) ;
#675 = DIRECTION ( 'NONE',  ( 0.8660254037844415942, -0.000000000000000000, 0.4999999999999948375 ) ) ;
#676 = EDGE_LOOP ( 'NONE', ( #529, #303 ) ) ;
#677 = CLOSED_SHELL ( 'NONE', ( #207, #146, #217, #61, #356, #370, #267, #512, #596, #69, #432, #101, #230, #484, #562, #241, #41, #93 ) ) ;
#678 = CIRCLE ( 'NONE', #701, 3.000000000000000444 ) ;
#679 = CARTESIAN_POINT ( 'NONE',  ( -1.490084570903262184, -5.801747960720393671, 5.294341235836998116 ) ) ;
#680 = FILL_AREA_STYLE_COLOUR ( '', #327 ) ;
#681 = ORIENTED_EDGE ( 'NONE', *, *, #106, .F. ) ;
#682 = EDGE_CURVE ( 'NONE', #480, #469, #621, .T. ) ;
#683 = CARTESIAN_POINT ( 'NONE',  ( -1.345833977723362329, -6.669512834465960438, 2.681517330041961689 ) ) ;
#684 = CARTESIAN_POINT ( 'NONE',  ( 1.458970633859152377, -5.600951144901962664, 2.622699752573242282 ) ) ;
#685 = ORIENTED_EDGE ( 'NONE', *, *, #422, .T. ) ;
#686 = EDGE_CURVE ( 'NONE', #151, #30, #42, .T. ) ;
#687 = CARTESIAN_POINT ( 'NONE',  ( 0.000000000000000000, -12.00000000000000000, 0.000000000000000000 ) ) ;
#688 = DIRECTION ( 'NONE',  ( -0.000000000000000000, -1.000000000000000000, -0.000000000000000000 ) ) ;
#689 = ORIENTED_EDGE ( 'NONE', *, *, #137, .F. ) ;
#690 = VECTOR ( 'NONE', #58, 1000.000000000000000 ) ;
#691 = CARTESIAN_POINT ( 'NONE',  ( -0.4892279173072859866, -7.421394474448114842, 2.961288784653154593 ) ) ;
#692 = LINE ( 'NONE', #696, #27 ) ;
#693 = ORIENTED_EDGE ( 'NONE', *, *, #422, .F. ) ;
#694 = CARTESIAN_POINT ( 'NONE',  ( -0.7617925201448639827, -7.307094864387854827, 2.907571674265802653 ) ) ;
#695 = EDGE_CURVE ( 'NONE', #564, #260, #631, .T. ) ;
#696 = CARTESIAN_POINT ( 'NONE',  ( 1.499999999999998890, -6.000000000000000888, 8.000000000000000000 ) ) ;
#697 = VERTEX_POINT ( 'NONE', #600 ) ;
#698 = DIRECTION ( 'NONE',  ( 0.000000000000000000, 0.000000000000000000, -1.000000000000000000 ) ) ;
#699 = ORIENTED_EDGE ( 'NONE', *, *, #294, .F. ) ;
#700 = VECTOR ( 'NONE', #493, 1000.000000000000000 ) ;
#701 = AXIS2_PLACEMENT_3D ( 'NONE', #550, #395, #124 ) ;
#702 = CYLINDRICAL_SURFACE ( 'NONE', #50, 3.000000000000000444 ) ;
#703 = CARTESIAN_POINT ( 'NONE',  ( -0.9246919536149902363, -4.803349635162390996, 2.857638941642918873 ) ) ;
#704 = CARTESIAN_POINT ( 'NONE',  ( 1.500000000000002442, -6.000000000000006217, 5.291502622129180544 ) ) ;
#705 = EDGE_CURVE ( 'NONE', #287, #180, #107, .T. ) ;
#706 = DIRECTION ( 'NONE',  ( -0.8660254037844381525, 0.000000000000000000, 0.5000000000000008882 ) ) ;
#707 = CARTESIAN_POINT ( 'NONE',  ( 1.300823155490981486, -5.246778511232648157, 5.344244638768193667 ) ) ;
#708 = PLANE ( 'NONE',  #98 ) ;
ENDSEC;
END-ISO-10303-21;
